<svg width="70" height="114" viewBox="0 0 70 114" fill="currentColor" xmlns="http://www.w3.org/2000/svg">

<path fill-rule="evenodd" clip-rule="evenodd" d="M62.6189 15.4274C57.1759 13.2914 51.7869 13.4224 46.4839 12.6514C46.1669 13.4474 45.8599 13.9624 45.7599 14.5164C45.1679 17.7824 44.6269 21.0564 44.0129 24.6534C46.3019 24.8574 48.3999 25.0924 50.5039 25.2234C55.8389 25.5544 60.4519 27.5984 64.6849 30.7944C68.1529 33.4094 69.1339 36.9504 69.1329 41.0034C69.1329 43.7404 69.1899 46.4794 69.1849 49.2164C69.1819 50.5504 69.4409 51.9624 67.5589 52.5184C67.0619 52.6644 66.6779 53.7444 66.5389 54.4534C65.9429 57.5154 65.4609 60.5984 64.9339 63.6734C64.1089 68.4814 63.1269 73.2684 62.4939 78.1014C61.4259 86.2424 60.4319 94.3984 59.7249 102.575C59.4889 105.321 58.0759 107.008 56.0759 108.102C52.1219 110.267 47.8089 111.572 43.2939 112.09C40.7739 112.38 38.2529 112.956 35.7389 112.916C31.9589 112.856 28.0909 112.789 24.4459 111.931C21.6939 111.283 19.1759 109.492 16.6879 107.986C16.0389 107.593 15.7049 106.396 15.5599 105.512C15.0049 102.161 14.7189 98.7624 14.0889 95.4274C12.1749 85.2664 10.1409 75.1294 8.17294 64.9794C7.80194 63.0664 7.50994 61.1384 7.21394 59.2104C7.06394 58.2244 6.97194 57.1594 5.82694 56.8514C2.70594 56.0144 2.48394 53.2284 2.02194 50.8604C1.46594 48.0014 1.64194 45.0044 1.14294 42.1284C0.444936 38.0984 2.38594 35.4264 5.16594 33.0324C11.0449 27.9734 17.9979 25.7634 25.6199 25.2864C27.7659 25.1514 29.9019 24.8664 32.0489 24.7254C33.2329 24.6484 33.8159 24.0434 34.0079 22.9484C34.6039 19.5834 35.1759 16.2144 35.7879 12.8524C36.3099 9.99538 36.7349 7.11138 37.4569 4.30438C38.2039 1.39638 39.3869 0.753382 42.3649 1.07538C47.8659 1.66938 53.0659 3.23038 57.9329 5.86938C59.7309 6.84238 61.4989 7.86438 63.3159 8.79438C64.2409 9.26938 64.6999 9.93239 64.3679 10.9104C63.8759 12.3604 63.2689 13.7694 62.6189 15.4274ZM47.7839 33.2864C47.3139 35.4024 47.3179 35.4104 46.2659 35.7614C45.3379 36.0684 44.4219 36.4194 43.4839 36.6834C38.9229 37.9664 34.3259 38.6684 29.5999 37.6144C28.3289 37.3304 27.1769 36.9914 26.6309 35.5344C28.4999 33.9454 30.3169 36.7324 32.1819 35.4294C32.1209 32.6284 33.6829 29.8074 32.3559 26.9254C26.9169 26.7384 19.7209 27.6684 14.9959 29.4144C10.5269 31.0654 6.63394 33.5894 3.74094 37.5164C2.95294 38.5874 2.69294 39.6964 3.05094 40.8084C3.78594 43.0894 4.89194 45.2504 7.51494 45.7904C10.1789 46.3404 12.8809 46.8684 15.5869 47.0024C19.9619 47.2174 24.3529 47.1684 28.7359 47.1124C38.5009 46.9864 48.2569 46.7444 57.8629 44.6654C60.3459 44.1274 62.9129 43.7594 64.8609 41.9674C66.9379 40.0594 67.7879 38.3664 66.2729 35.5504C65.3409 33.8194 64.1889 32.6104 62.6559 31.5394C57.0589 27.6294 50.8069 26.3574 43.8009 26.6284C43.4009 29.3104 43.0209 31.8594 42.5759 34.8364C44.6069 34.2314 46.1099 33.7844 47.7839 33.2864ZM8.56994 57.6404C9.06294 61.2634 9.34394 64.5554 9.98794 67.7764C11.3819 74.7554 13.0569 81.6794 14.4369 88.6624C15.4559 93.8254 16.2209 99.0404 17.0219 104.245C17.2349 105.618 17.8139 106.57 18.9919 107.3C22.4649 109.449 26.1669 110.777 30.2799 111.008C36.5799 111.362 42.7629 110.751 48.8159 108.976C50.5829 108.458 52.2639 107.656 54.0249 107.126C56.8039 106.29 57.7339 104.177 58.0569 101.607C58.8699 95.1154 59.5819 88.6104 60.4879 82.1314C61.2579 76.6244 62.2679 71.1524 63.1289 65.6584C63.7279 61.8314 64.2499 57.9944 64.8449 53.9014C56.4599 56.5234 48.0249 56.8104 39.5899 58.3344C39.3569 60.4574 39.1259 62.5524 38.8819 64.7814C39.9809 64.9564 40.8339 65.1434 41.6969 65.2204C44.3259 65.4554 46.9929 65.4534 49.5789 65.9184C51.8499 66.3274 54.1709 66.9644 56.2139 68.0014C59.0669 69.4464 59.6929 71.8554 58.6849 74.9424C58.3269 76.0464 58.1779 77.2224 57.9829 78.3754C57.7059 80.0044 57.5009 81.6464 57.2129 83.2724C56.9259 84.9044 56.5649 86.5234 56.2519 88.1514C55.4989 92.0664 54.9399 96.0324 53.9509 99.8864C53.1039 103.177 50.4589 105.566 46.3939 105.628C42.0969 105.694 37.7939 105.951 33.4989 105.862C30.2919 105.797 27.0819 105.409 23.8989 104.988C21.6979 104.697 20.0139 103.308 19.3909 101.237C18.5779 98.5414 18.1029 95.7304 17.6519 92.9434C17.2019 90.1524 17.0699 87.3094 16.5999 84.5204C16.0009 80.9574 15.1539 77.4374 14.5099 73.8804C14.1089 71.6514 14.3739 71.0744 16.3399 70.1314C19.2459 68.7384 22.2009 67.4714 25.5369 67.4434C26.7519 67.4334 27.9609 67.0964 29.2339 66.8994C29.1849 64.0114 30.7399 61.5634 29.8469 58.8254C22.7419 59.3584 15.8329 59.5444 8.56994 57.6404ZM17.0479 77.5754C17.4089 79.4364 17.7329 80.9304 17.9809 82.4374C18.8909 87.9224 19.7859 93.4114 20.6709 98.9004C21.0989 101.551 22.5779 103.012 25.2829 103.398C32.9859 104.499 40.6839 104.01 48.3809 103.394C50.1669 103.25 51.4299 101.998 52.1489 100.458C52.7609 99.1534 53.0939 97.6894 53.3689 96.2614C54.2549 91.6674 55.0959 87.0644 55.8719 82.4514C56.1689 80.6904 56.2469 78.8914 56.4499 76.8374C51.1049 78.5284 46.1259 79.4214 41.0369 79.6604C33.0869 80.0374 25.0789 81.1584 17.0479 77.5754ZM3.94994 45.9664C3.94994 47.2814 3.91694 48.4184 3.95594 49.5534C4.10894 53.9474 5.07594 55.1454 9.39794 56.2724C15.3359 57.8224 21.3999 57.9184 27.4569 57.4884C34.6559 56.9774 41.8499 56.3314 49.0209 55.5304C52.9949 55.0854 57.0789 54.6814 60.8329 53.4224C67.7509 51.1014 67.8859 51.0264 67.0199 44.2064C66.9719 43.8344 66.8799 43.4684 66.7849 42.9794C65.4149 43.7244 64.2259 44.6984 62.8759 45.0484C56.7279 46.6434 50.4619 47.6544 44.1189 48.0504C39.8299 48.3174 35.5289 48.4874 31.2309 48.5344C25.6629 48.5944 20.0869 48.6024 14.5209 48.4154C10.9309 48.2954 7.36294 47.7414 3.94994 45.9664ZM44.6619 10.4244C50.6029 11.2714 56.0689 12.0504 61.4939 12.8234C62.5199 10.5554 62.5249 10.2284 60.7269 9.23338C56.9789 7.15838 53.1769 5.16938 48.9749 4.12638C47.6539 3.79738 46.2939 3.61238 44.9849 3.24438C40.2869 1.92338 38.5989 3.04238 37.9539 7.98238C37.9409 8.07838 37.9559 8.17938 37.9399 8.27438C36.8579 14.3144 35.7039 20.3424 34.7249 26.3994C34.2339 29.4434 34.0619 32.5384 33.7309 35.7844C35.5259 35.7844 36.9559 35.7624 38.3859 35.7894C40.0249 35.8214 40.9029 35.0674 41.1469 33.4274C41.6659 29.9654 42.2749 26.5154 42.8029 23.0544C43.4179 19.0294 43.9899 14.9964 44.6619 10.4244ZM25.8149 73.4164C27.0339 73.2054 27.7529 73.0814 28.6299 72.9304C28.7469 71.5854 28.8629 70.2594 28.9829 68.9084C25.0759 68.7894 21.5789 69.4694 18.2789 71.0394C15.8369 72.2014 15.6839 73.3254 17.5349 75.2354C20.0419 77.8234 23.4059 78.4824 26.6509 78.5664C32.4949 78.7164 38.3689 78.4894 44.1989 78.0104C47.8589 77.7094 51.5589 77.0674 54.9829 75.5064C56.2689 74.9204 57.4799 74.1244 57.5129 72.6004C57.5459 71.1604 56.7209 70.0004 55.4279 69.2874C54.8349 68.9594 54.2049 68.6184 53.5509 68.5034C50.3009 67.9314 47.0479 67.3514 43.7749 66.9434C42.1689 66.7424 40.5209 66.9084 38.7849 66.9084C38.6389 68.2084 38.5079 69.1684 38.4309 70.1334C38.3489 71.1514 38.3159 72.1724 38.2799 72.8614C39.4279 73.8954 40.8669 72.1904 41.5859 73.8424C38.3039 75.8474 28.8739 75.7824 25.8149 73.4164ZM30.3509 73.3994C31.3699 73.5034 31.9509 73.5524 32.5279 73.6234C35.8669 74.0354 36.3599 73.7114 36.7939 70.2804C37.2589 66.6174 37.5909 62.9384 37.9509 59.2644C37.9819 58.9234 37.7959 58.5614 37.6799 58.0724C35.6669 58.3284 33.7759 58.5674 31.7539 58.8244C31.2779 63.7624 30.8269 68.4634 30.3509 73.3994Z" fill="currentColor" stroke="currentColor"/>

</svg>
