<svg width="74" height="96" viewBox="0 0 74 96" fill="currentColor" xmlns="http://www.w3.org/2000/svg">

<path d="M60.407 37.856C60.407 37.856 56.883 72.16 50.95 91.787C50.95 91.787 46.518 94.716 37.37 94.716C13.468 94.716 1.40201 81.652 1.40201 81.652C1.40201 81.652 19.155 93.101 37.753 93.101C45.82 93.101 50.364 91.385 50.364 91.385C50.364 91.385 55.439 54.322 60.407 37.856ZM13.272 28.022C8.735 46.169 3.66901 81.402 3.66901 81.402C10.948 59.458 13.272 28.022 13.272 28.022ZM61.575 43.107C67.467 46.02 71.561 49.398 71.561 56.63C71.561 65.198 67.033 79.1 54.774 79.86C66.774 81.87 73.157 67.224 73.157 57.39C73.158 48.449 67.676 44.219 61.575 43.107ZM56.3 73.971C62.335 72.727 65.872 64.191 65.872 57.466C65.872 53.724 64.764 49.908 60.407 48.591C60.407 48.591 63.966 50.393 63.966 57.327C63.966 69.396 56.3 73.971 56.3 73.971ZM30.908 28.513C30.908 28.513 28.91 31.382 26.042 31.382C21.793 31.382 16.002 28.293 16.002 28.293C22.401 33.696 28.167 34.149 30.51 31.131C35.782 36.347 50.435 39.393 56.599 36.123C56.599 36.123 38.503 38.219 30.908 28.513ZM14.89 32.884C14.89 32.884 29.683 46.065 54.774 42.405C29.92 41.325 14.89 32.884 14.89 32.884ZM45.178 88.906C39.995 89.4 35.084 89.014 27.691 87.085C20.301 85.154 14.039 83.491 7.564 82.396C11.459 83.659 16.385 85.705 21.682 87.25C29.936 89.657 38.595 91.455 45.178 88.906ZM1 39.324C1 46.657 7.23099 49.744 7.23099 49.744C0.0119877 43.168 1.17701 33.601 6.29401 29.286H7.896V28.294H7.12399C4.53099 26.198 4.198 24.048 4.198 20.682C4.198 16.599 6.95599 13.069 9.43799 13.069C11.259 13.069 11.591 14.063 12.414 14.008C13.244 13.951 13.221 13.37 13.852 11.966C15.229 8.87897 17.769 7.49997 20.802 7.49997C23.835 7.49997 26.096 9.65096 26.15 11.141C26.207 12.631 25.545 14.447 26.758 14.503C27.971 14.558 28.192 13.126 28.139 11.747C30.289 9.53998 33.107 10.638 35.529 13.402C37.074 15.165 37.46 15.056 38.838 13.951C40.218 12.849 43.03 12.023 44.521 12.023C47.963 12.023 55.549 15.379 55.549 20.351C55.549 21.949 54.941 22.778 54.172 23.22C53.007 23.885 54.064 25.476 55.109 24.433C55.825 23.716 56.983 23.274 56.983 23.274C56.983 23.274 64.816 26.418 64.816 31.823C64.816 36.071 61.083 37.481 61.083 37.481C61.083 37.481 65.874 36.842 65.874 32.154C65.874 24.986 56.93 22.226 56.93 22.226C58.029 16.823 51.139 10.422 44.078 10.422C40.599 10.422 37.239 12.684 37.239 12.684C34.833 10.311 32.936 8.87796 30.618 8.87796C28.911 8.87796 27.692 10.092 27.692 10.092C27.692 10.092 25.767 5.56897 20.967 5.56897C16.17 5.56897 13.299 8.76697 11.978 12.077C7.84 10.146 2.54599 13.888 2.54599 21.233C2.54599 25.863 5.41098 28.292 5.41098 28.292C5.41098 28.292 1 31.988 1 39.324ZM51.561 44.054C48.651 51.178 45.84 62.595 44.627 68.886C43.414 75.171 41.87 76.827 39.938 78.315C38.01 79.806 37.386 78.293 37.386 78.293C37.386 78.293 45.988 62.149 46.428 44.687C42.967 58.735 38.31 72.565 36.606 78.818C37.49 80.987 40.07 80.598 42.251 78.207C44.366 75.88 45.376 74.398 46.462 69.101C47.555 63.802 49.075 56.234 51.561 44.054ZM23.55 72.841C23.369 78.094 25.978 79.189 28.182 79.189C32.906 79.189 35.714 66.657 38.31 44.054C34.32 58.793 33.364 71.625 29.112 77.191C27.785 78.926 25.689 78.514 25.689 71.986C25.689 63.567 27.541 52.656 30.255 42.528C26.687 49.744 23.835 64.353 23.55 72.841ZM19.411 37.479C17.128 45.878 11.923 62.997 11.923 67.917C11.923 72.841 14.272 75.832 16.128 75.832C17.984 75.832 17.92 74.442 18.199 72.137C18.911 66.356 22.91 47.593 24.481 42.242C20.802 48.476 18.101 59.627 17.271 72.359C17.103 74.895 16.34 75.915 14.9 74.015C13.273 71.862 12.972 69.047 14.4 63.81C15.837 58.571 19.202 45.166 19.411 37.479Z" fill="currentColor" stroke="currentColor"/>

<path d="M8.51108 17.249C8.08408 17.927 7.57209 18.551 7.13809 19.226C7.09709 19.29 7.19707 19.346 7.23907 19.285C7.69407 18.626 8.07208 17.915 8.53308 17.262C8.54208 17.249 8.52008 17.235 8.51108 17.249Z" fill="currentColor" stroke="currentColor"/>

<path d="M11.8549 20.098C12.0809 20.098 12.0819 19.746 11.8549 19.746C11.6289 19.746 11.6279 20.098 11.8549 20.098Z" fill="currentColor" stroke="currentColor"/>

<path d="M9.65316 17.478C9.83716 17.376 10.0182 17.271 10.2002 17.165C10.1152 17.08 10.0302 16.995 9.94519 16.91C9.65219 17.568 9.41818 18.245 9.08718 18.887C8.79318 19.456 8.33316 19.996 8.17916 20.62C8.14616 20.754 8.30716 20.916 8.43716 20.818C8.97316 20.415 9.24617 19.738 9.52417 19.141C9.83417 18.477 10.1392 17.772 10.2862 17.053C10.3282 16.846 10.0642 16.731 9.94519 16.91C9.83019 17.082 9.71716 17.255 9.60516 17.429C9.58516 17.461 9.62316 17.495 9.65316 17.478Z" fill="currentColor"/>

<path d="M9.94519 16.91C10.0302 16.995 10.1152 17.08 10.2002 17.165C10.0182 17.271 9.83716 17.376 9.65316 17.478C9.62316 17.495 9.58516 17.461 9.60516 17.429C9.71716 17.255 9.83019 17.082 9.94519 16.91ZM9.94519 16.91C9.65219 17.568 9.41818 18.245 9.08718 18.887C8.79318 19.456 8.33316 19.996 8.17916 20.62C8.14616 20.754 8.30716 20.916 8.43716 20.818C8.97316 20.415 9.24617 19.738 9.52417 19.141C9.83417 18.477 10.1392 17.772 10.2862 17.053C10.3282 16.846 10.0642 16.731 9.94519 16.91Z" stroke="currentColor"/>

<path d="M7.78697 25.1119C12.489 20.4179 17.022 14.8189 20.761 9.32394C20.844 9.20194 20.658 9.06294 20.558 9.16794C15.878 14.0899 12.111 19.859 7.65398 24.9799C7.57598 25.0699 7.70097 25.1979 7.78697 25.1119Z" fill="white" stroke="white"/>
<path d="M15.035 22.279C16.369 20.462 18.125 18.604 19.056 16.545C19.135 16.371 18.932 16.185 18.78 16.332C17.139 17.916 15.982 20.203 14.711 22.09C14.574 22.293 14.895 22.47 15.035 22.279Z" fill="currentColor" stroke="currentColor"/>

<path d="M13.8549 16.988C14.2619 16.988 14.2629 16.355 13.8549 16.355C13.4479 16.356 13.4469 16.988 13.8549 16.988Z" fill="currentColor" stroke="currentColor"/>

<path d="M24.4859 17.5579C23.8039 18.3299 23.1109 19.0949 22.4399 19.8769C21.8449 20.5699 21.1219 21.2709 20.6919 22.0759C20.5869 22.2719 20.8249 22.4349 20.9859 22.3029C21.7549 21.6749 22.3739 20.7219 22.9839 19.9349C23.5559 19.1969 24.1209 18.4539 24.6889 17.7139C24.7769 17.5979 24.5819 17.4479 24.4859 17.5579Z" fill="currentColor" stroke="currentColor"/>

<path d="M26.6272 19.9309C26.0252 20.5139 25.5002 21.1389 24.9782 21.7929C24.8292 21.9799 25.0932 22.2469 25.2432 22.0579C25.7752 21.3909 26.2762 20.7319 26.7192 20.0009C26.7542 19.9449 26.6752 19.8849 26.6272 19.9309Z" fill="currentColor" stroke="currentColor"/>

<path d="M5.966 34.399C3.787 35.283 2.72299 39.21 4.66299 40.848C4.78499 40.951 5.02 40.857 4.957 40.677C4.587 39.618 4.19001 38.699 4.34601 37.542C4.51301 36.299 5.18799 35.405 6.04599 34.537C6.09899 34.482 6.045 34.367 5.966 34.399Z" fill="currentColor" stroke="currentColor"/>

<path d="M6.8549 38.1449C7.1419 38.1449 7.1419 37.7 6.8549 37.7C6.5679 37.699 6.5679 38.1449 6.8549 38.1449Z" fill="currentColor" stroke="currentColor"/>

<path d="M47.69 16.776C49.17 16.137 50.675 16.618 51.455 18.067C51.982 19.046 52.66 21.371 51.001 21.693C50.708 21.75 50.76 22.152 51.001 22.235C53.477 23.091 52.755 19.292 52.186 18.174C51.401 16.632 49.144 15.207 47.618 16.683C47.568 16.734 47.633 16.801 47.69 16.776Z" fill="white" stroke="white"/>
<path d="M58.3638 27.1759C59.2048 26.4689 60.1968 28.5119 60.5898 29.1639C61.3238 30.3799 62.9668 33.3109 60.3498 33.7119C60.1748 33.7389 60.2148 33.9799 60.3498 34.0279C61.7428 34.5279 62.4688 32.9289 62.2928 31.7679C62.0008 29.8389 60.3878 27.7589 58.9498 26.5209C58.9078 26.4849 58.8298 26.4699 58.7898 26.5209C58.6308 26.7219 58.4718 26.9229 58.3128 27.1249C58.2868 27.1619 58.3288 27.2059 58.3638 27.1759Z" fill="currentColor" stroke="currentColor"/>

<path d="M32.105 17.2699C32.874 17.2699 32.875 16.075 32.105 16.075C31.336 16.074 31.335 17.2699 32.105 17.2699Z" fill="currentColor" stroke="currentColor"/>

<path d="M42.6239 15.5271C42.5579 15.5571 42.4929 15.5881 42.4269 15.6181C42.1969 15.7241 42.1969 16.119 42.4269 16.225C42.4929 16.255 42.5579 16.2861 42.6239 16.3161C43.4859 16.7151 43.4859 15.1291 42.6239 15.5271Z" fill="currentColor" stroke="currentColor"/>

<path d="M38.605 26.551C38.771 26.551 38.771 26.293 38.605 26.293C38.439 26.293 38.439 26.551 38.605 26.551Z" fill="currentColor" stroke="currentColor"/>

<path d="M38.7202 26.814C39.5642 27.662 40.6542 26.002 39.5162 25.504C39.1252 25.333 38.5462 25.33 38.3022 25.735C38.0842 26.097 38.2171 26.713 38.6871 26.78C39.0411 26.83 39.3162 26.588 39.2472 26.22C39.2092 26.021 39.2282 25.947 39.0732 26.23C38.7322 26.853 39.5462 25.96 39.3492 25.892C39.4662 25.982 39.5832 26.072 39.7002 26.162C39.6862 26.138 39.6732 26.114 39.6592 26.091C39.2292 25.344 38.0992 26.19 38.7202 26.814Z" fill="currentColor" stroke="currentColor"/>

<path d="M45.7192 21.787C45.2902 22.123 44.9282 22.4889 44.6302 22.9459C44.3882 23.3179 44.0612 23.763 44.1312 24.22C44.1582 24.395 44.3752 24.398 44.4832 24.313C44.7952 24.067 44.9092 23.57 45.1222 23.233C45.3812 22.824 45.6762 22.426 46.0002 22.068C46.1782 21.874 45.9172 21.632 45.7192 21.787Z" fill="currentColor" stroke="currentColor"/>

<path d="M46.9468 23.58C45.7738 25.102 44.3077 26.612 43.5187 28.372C43.4707 28.48 43.5908 28.582 43.6848 28.5C45.1488 27.211 46.1538 25.358 47.2708 23.769C47.4118 23.569 47.0898 23.394 46.9468 23.58Z" fill="currentColor" stroke="currentColor"/>

<path d="M44.1997 31.999C46.4667 29.439 48.8158 26.962 51.1278 24.444C51.2298 24.333 51.0738 24.176 50.9618 24.278C48.4388 26.584 46.1928 29.226 44.1818 31.985C44.1738 31.996 44.1907 32.009 44.1997 31.999Z" fill="currentColor" stroke="currentColor"/>

<path d="M51.8549 29.5549C52.6689 29.5549 52.6709 28.2889 51.8549 28.2889C51.0409 28.2889 51.0389 29.5549 51.8549 29.5549Z" fill="currentColor" stroke="currentColor"/>

<path d="M21.3548 29.016C22.4408 29.016 22.4428 27.328 21.3548 27.328C20.2688 27.328 20.2668 29.016 21.3548 29.016Z" fill="currentColor" stroke="currentColor"/>

<path d="M7.60479 44.1449C8.85679 44.1449 8.85879 42.2 7.60479 42.2C6.35279 42.199 6.35079 44.1449 7.60479 44.1449Z" fill="currentColor" stroke="currentColor"/>

<path d="M6.397 23.499C7.468 23.499 7.47 21.835 6.397 21.835C5.327 21.835 5.325 23.499 6.397 23.499Z" fill="currentColor" stroke="currentColor"/>

<path d="M23.346 11.6319C23.348 11.6179 23.35 11.605 23.352 11.591C23.223 10.72 21.739 10.9179 21.808 11.7999C21.826 12.0369 21.881 12.217 21.974 12.434C22.365 13.354 23.82 12.5599 23.346 11.6319Z" fill="currentColor" stroke="currentColor"/>

<path d="M47.8078 31.517C47.1618 31.625 46.2658 32.016 46.0228 32.681C45.9778 32.805 46.1288 32.891 46.2298 32.84C46.5278 32.69 46.7368 32.399 47.0138 32.208C47.2888 32.019 47.5798 31.83 47.8708 31.667C47.9578 31.619 47.8948 31.503 47.8078 31.517Z" fill="currentColor" stroke="currentColor"/>

<path d="M12.4361 42.8079C13.7261 42.1909 15.1841 41.5629 16.2201 40.5529C16.2981 40.4769 16.218 40.3109 16.106 40.3569C14.76 40.9089 13.5461 41.8239 12.2591 42.5049C12.0571 42.6109 12.2341 42.9049 12.4361 42.8079Z" fill="currentColor" stroke="currentColor"/>

<path d="M11.4189 46.4859C12.0929 45.8229 12.8049 45.2039 13.5669 44.6439C14.1889 44.1869 14.8809 43.8209 15.4699 43.3209C15.5399 43.2619 15.4649 43.1309 15.3789 43.1639C13.8279 43.7559 12.4139 45.1739 11.2869 46.3529C11.2029 46.4409 11.3329 46.5709 11.4189 46.4859Z" fill="currentColor" stroke="currentColor"/>

<path d="M10.1412 42.9569C11.6272 41.6809 13.2272 40.5549 14.7282 39.3049C14.8532 39.2009 14.6932 39.0059 14.5582 39.0839C12.8872 40.0479 11.3652 41.4689 10.0422 42.8569C9.97819 42.9239 10.0732 43.0159 10.1412 42.9569Z" fill="currentColor" stroke="currentColor"/>

<path d="M9.72721 50.2939C10.7172 49.4979 11.6142 48.5659 12.5412 47.6969C13.3792 46.9109 14.2822 46.1509 14.9422 45.2019C15.0292 45.0769 14.8582 44.9119 14.7342 44.9939C13.7692 45.6289 12.9852 46.5149 12.1782 47.3329C11.2872 48.2369 10.3322 49.1099 9.51322 50.0789C9.38322 50.2309 9.57521 50.4169 9.72721 50.2939Z" fill="currentColor" stroke="currentColor"/>

<path d="M68.1132 48.396C67.9122 48.793 67.8042 49.222 67.5802 49.612C67.3352 50.039 66.9972 50.379 66.6982 50.765C66.5822 50.915 66.7372 51.199 66.9252 51.06C67.6412 50.529 68.3102 49.349 68.2652 48.439C68.2622 48.361 68.1522 48.319 68.1132 48.396Z" fill="currentColor" stroke="currentColor"/>

<path d="M69.7122 48.8359C69.4602 49.3469 69.1751 49.8399 68.8401 50.3019C68.4741 50.8059 68.0241 51.2219 67.6371 51.7029C67.4371 51.9509 67.7371 52.2499 67.9851 52.0509C68.9081 51.3129 69.5721 50.0889 70.0361 49.0249C70.1311 48.8089 69.8212 48.6159 69.7122 48.8359Z" fill="currentColor" stroke="currentColor"/>

<path d="M70.7351 50.755C70.1321 51.167 69.6231 51.693 69.0891 52.19C68.6251 52.621 67.9361 53.06 67.7481 53.688C67.7101 53.816 67.8371 53.941 67.9641 53.904C68.5921 53.72 69.0371 53.031 69.4691 52.57C69.9681 52.038 70.496 51.532 70.911 50.931C70.983 50.827 70.8401 50.684 70.7351 50.755Z" fill="currentColor" stroke="currentColor"/>

<path d="M71.2551 51.784C70.2451 52.3 69.5352 53.568 68.8332 54.436C68.1552 55.274 67.3091 56.086 66.9061 57.097C66.8541 57.227 67.0351 57.362 67.1471 57.282C68.0341 56.651 68.6211 55.633 69.2741 54.776C69.9481 53.892 71.0141 52.896 71.2731 51.798C71.2761 51.787 71.2651 51.779 71.2551 51.784Z" fill="currentColor" stroke="currentColor"/>

<path d="M71.058 54.6249C70.12 55.4699 69.264 56.3579 68.472 57.3419C67.843 58.1219 67.0831 58.9479 66.7251 59.8879C66.6731 60.0259 66.866 60.1159 66.96 60.0249C67.747 59.2619 68.304 58.1919 68.991 57.3329C69.695 56.4519 70.426 55.5849 71.175 54.7419C71.244 54.6619 71.136 54.5539 71.058 54.6249Z" fill="currentColor" stroke="currentColor"/>

<path d="M70.8881 56.9419C70.1271 57.6439 69.4901 58.4919 68.8391 59.2939C68.2611 60.0059 67.5481 60.7029 67.1381 61.5259C67.0651 61.6729 67.2361 61.7989 67.3591 61.6959C68.0641 61.1099 68.5861 60.2489 69.1431 59.5279C69.7741 58.7109 70.4531 57.8989 70.9621 56.9989C70.9881 56.9509 70.9271 56.9049 70.8881 56.9419Z" fill="currentColor" stroke="currentColor"/>

<path d="M72.1218 59.19C70.2438 60.853 68.2088 62.9939 67.1558 65.3059C67.0608 65.5149 67.3338 65.7899 67.5058 65.5759C68.2438 64.6549 68.8248 63.6109 69.5358 62.6659C70.3968 61.5219 71.3278 60.4149 72.2708 59.3389C72.3608 59.2369 72.2238 59.099 72.1218 59.19Z" fill="currentColor" stroke="currentColor"/>

<path d="M70.0429 66.3169C67.5859 67.6129 65.2539 69.5019 63.8729 71.9529C63.7839 72.1119 64.0009 72.2919 64.1309 72.1519C66.0319 70.0999 67.8519 68.1189 70.1259 66.4589C70.2099 66.3979 70.1379 66.2669 70.0429 66.3169Z" fill="currentColor" stroke="currentColor"/>

<path d="M56.3549 47.723C57.0639 47.723 57.0649 46.621 56.3549 46.621C55.6459 46.621 55.6449 47.723 56.3549 47.723Z" fill="currentColor" stroke="currentColor"/>

<path d="M52.6979 53.583C53.3209 53.185 53.9448 52.788 54.5678 52.39C55.1198 52.038 55.7418 51.73 56.1738 51.23C56.2528 51.138 56.1798 50.974 56.0488 51.015C55.4168 51.208 54.8899 51.646 54.3449 52.009C53.7289 52.419 53.1129 52.829 52.4969 53.24C52.2849 53.38 52.4809 53.722 52.6979 53.583Z" fill="currentColor" stroke="currentColor"/>

<path d="M50.983 56.361C51.914 55.813 52.796 55.187 53.738 54.653C54.676 54.122 55.698 53.719 56.604 53.138C56.702 53.075 56.641 52.911 56.523 52.945C54.562 53.511 52.42 54.904 50.885 56.231C50.812 56.294 50.904 56.408 50.983 56.361Z" fill="currentColor" stroke="currentColor"/>

<path d="M50.967 57.7799C51.667 57.1569 52.414 56.5969 53.22 56.1189C53.947 55.6879 54.777 55.3939 55.462 54.9009C55.545 54.8419 55.531 54.6679 55.403 54.6829C53.647 54.8889 51.917 56.3159 50.652 57.4659C50.44 57.6589 50.754 57.9699 50.967 57.7799Z" fill="currentColor" stroke="currentColor"/>

<path d="M49.834 60.1579C50.806 59.5159 51.703 58.7669 52.677 58.1229C53.655 57.4769 54.681 56.9149 55.662 56.2759C55.725 56.2349 55.686 56.117 55.608 56.148C53.532 56.971 51.303 58.4429 49.791 60.1039C49.766 60.1309 49.799 60.1809 49.834 60.1579Z" fill="currentColor" stroke="currentColor"/>

<path d="M49.2911 62.797C49.6561 62.497 50.3181 62.266 50.7291 61.998C51.3381 61.601 51.9481 61.204 52.5571 60.807C53.5791 60.141 54.6521 59.484 55.5521 58.658C55.6861 58.535 55.5161 58.347 55.3671 58.419C54.1391 59.011 53.0201 59.876 51.9091 60.66C50.9771 61.318 49.9891 61.888 49.2571 62.764C49.2381 62.788 49.2671 62.817 49.2911 62.797Z" fill="currentColor" stroke="currentColor"/>

<path d="M52.7611 52.2319C54.5031 51.6149 56.2091 50.6859 57.7781 49.7159C57.9321 49.6209 57.7951 49.3849 57.6361 49.4729C56.0101 50.3769 54.3331 51.2229 52.7341 52.1679C52.7001 52.1869 52.7221 52.2449 52.7611 52.2319Z" fill="currentColor" stroke="currentColor"/>

<path d="M51.4172 63.291C52.7382 62.284 54.3962 61.314 55.4642 60.03C55.5822 59.889 55.4372 59.684 55.2652 59.772C53.7802 60.535 52.4722 61.944 51.2032 63.014C51.0542 63.142 51.2582 63.413 51.4172 63.291Z" fill="currentColor" stroke="currentColor"/>

<path d="M6.46201 79.423C6.55701 79.283 7.27 79.026 7.457 78.933C7.764 78.781 8.077 78.644 8.397 78.522C8.9 78.331 9.411 78.159 9.905 77.947C10.043 77.888 9.974 77.65 9.828 77.663C9.022 77.735 8.274 78.029 7.556 78.387C7.105 78.612 6.21299 78.908 6.16299 79.483C6.15699 79.556 6.21999 79.627 6.28699 79.646C6.41099 79.681 6.43898 79.677 6.54498 79.602C6.57798 79.579 6.597 79.542 6.586 79.502C6.58 79.481 6.575 79.46 6.569 79.438C6.556 79.386 6.49001 79.383 6.46201 79.423Z" fill="currentColor" stroke="currentColor"/>

<path d="M6.468 77.611C7.914 76.741 9.491 76.217 10.973 75.436C11.123 75.357 11.013 75.153 10.865 75.179C9.225 75.466 7.67601 76.425 6.30201 77.328C6.12701 77.442 6.285 77.72 6.468 77.611Z" fill="currentColor" stroke="currentColor"/>

<path d="M6.82785 80.8719C8.99085 79.7059 11.2518 78.6109 13.2488 77.1709C13.3848 77.0729 13.2708 76.8819 13.1188 76.9479C10.8658 77.9399 8.77583 79.3349 6.67483 80.6089C6.50583 80.7109 6.65485 80.9649 6.82785 80.8719Z" fill="currentColor" stroke="currentColor"/>

<path d="M9.5278 81.553C10.4938 81.276 11.3798 80.683 12.2848 80.247C13.3198 79.748 14.4048 79.316 15.3848 78.713C15.4738 78.658 15.4168 78.512 15.3128 78.542C14.2618 78.837 13.2678 79.35 12.3018 79.848C11.3598 80.334 10.2818 80.779 9.49381 81.494C9.46781 81.518 9.4948 81.562 9.5278 81.553Z" fill="currentColor" stroke="currentColor"/>

<path d="M14.4532 81.106C14.8652 80.819 15.2992 80.575 15.7722 80.402C16.1742 80.255 16.5902 80.144 16.9732 79.948C17.1692 79.848 17.0482 79.599 16.8722 79.577C15.9082 79.452 14.9032 80.058 14.1692 80.621C13.8892 80.835 14.1502 81.317 14.4532 81.106Z" fill="currentColor" stroke="currentColor"/>

<path d="M6.33321 74.955C6.87621 74.747 7.41422 74.542 7.94122 74.296C8.45722 74.055 9.03221 73.861 9.47521 73.501C9.66321 73.348 9.4542 73.091 9.2582 73.129C8.7352 73.23 8.24619 73.535 7.76519 73.76C7.22219 74.014 6.70219 74.299 6.17919 74.591C5.98819 74.698 6.11821 75.037 6.33321 74.955Z" fill="currentColor" stroke="currentColor"/>

<path d="M32.5328 23.098C31.2558 24.654 29.9798 26.21 28.7028 27.765C28.4788 28.038 28.8738 28.349 29.0898 28.063C30.2988 26.455 31.5088 24.847 32.7178 23.239C32.7968 23.134 32.6178 22.995 32.5328 23.098Z" fill="currentColor" stroke="currentColor"/>

<path d="M31.1942 27.725C30.6232 28.044 30.1502 28.715 29.7222 29.206C29.3392 29.646 28.6822 30.176 28.5882 30.771C28.5742 30.858 28.6442 30.967 28.7472 30.93C29.3502 30.711 29.7532 29.944 30.1332 29.453C30.5202 28.952 31.0652 28.3819 31.2632 27.7779C31.2762 27.7369 31.2282 27.706 31.1942 27.725Z" fill="currentColor" stroke="currentColor"/>

<path d="M34.6832 27.783C33.8722 28.199 33.2502 28.69 32.6752 29.4C32.2302 29.949 31.6432 30.65 31.5922 31.379C31.5822 31.523 31.7772 31.593 31.8722 31.495C32.3772 30.971 32.6282 30.19 33.0782 29.605C33.5642 28.974 34.1302 28.364 34.7122 27.82C34.7322 27.801 34.7062 27.771 34.6832 27.783Z" fill="currentColor" stroke="currentColor"/>

<path d="M36.5442 29.111C35.8822 29.472 35.3802 30.14 34.8572 30.673C34.3162 31.224 33.6912 31.751 33.2732 32.404C33.1712 32.563 33.3842 32.801 33.5462 32.677C34.1632 32.202 34.6332 31.542 35.1382 30.954C35.6272 30.384 36.2552 29.822 36.5612 29.129C36.5662 29.117 36.5562 29.105 36.5442 29.111Z" fill="currentColor" stroke="currentColor"/>

<path d="M28.2048 27.53C26.9478 28.893 25.7658 30.408 24.9418 32.076C24.8228 32.317 25.1718 32.528 25.3058 32.289C26.2198 30.661 27.1468 29.115 28.3538 27.68C28.4398 27.577 28.2978 27.429 28.2048 27.53Z" fill="currentColor" stroke="currentColor"/>

<path d="M31.9981 26.813C31.3051 27.606 30.6161 28.406 29.8871 29.166C29.2331 29.848 28.3771 30.464 27.9401 31.314C27.8601 31.469 28.0171 31.602 28.1651 31.538C29.0891 31.138 29.7611 30.201 30.4011 29.455C31.0701 28.674 31.6931 27.872 32.2571 27.012C32.3571 26.858 32.1211 26.672 31.9981 26.813Z" fill="currentColor" stroke="currentColor"/>

<path d="M36.7919 30.859C36.0779 31.481 35.3939 32.123 34.7139 32.781C34.5079 32.981 34.8289 33.302 35.0289 33.096C35.6889 32.418 36.3339 31.736 36.9579 31.025C37.0579 30.911 36.9059 30.76 36.7919 30.859Z" fill="currentColor" stroke="currentColor"/>

<path d="M36.6839 27.4949C35.9159 28.1739 35.1589 28.8639 34.4159 29.5709C33.7669 30.1879 32.9399 30.8389 32.5339 31.6479C32.4729 31.7689 32.5989 31.9149 32.7259 31.8399C33.5099 31.3789 34.1099 30.5419 34.7309 29.8859C35.4339 29.1419 36.1529 28.4119 36.8819 27.6939C37.0129 27.5659 36.8179 27.3759 36.6839 27.4949Z" fill="currentColor" stroke="currentColor"/>

<path d="M39.3189 84.953C41.5399 82.752 44.2458 81.026 46.5118 78.849C46.5868 78.777 46.4868 78.639 46.3978 78.702C43.8978 80.451 41.0969 82.418 39.0869 84.721C38.9489 84.879 39.1669 85.104 39.3189 84.953Z" fill="currentColor" stroke="currentColor"/>

<path d="M41.006 84.6559C44.217 82.7979 47.407 80.1999 49.772 77.3409C49.82 77.2829 49.747 77.2089 49.689 77.2579C46.769 79.7059 43.893 82.1549 40.906 84.5269C40.833 84.5859 40.928 84.7019 41.006 84.6559Z" fill="currentColor" stroke="currentColor"/>

<path d="M43.2539 85.075C45.7719 82.858 48.3889 80.705 50.7279 78.295C50.8789 78.14 50.6569 77.933 50.4959 78.063C47.8809 80.169 45.4949 82.574 43.0549 84.876C42.9219 85.002 43.1189 85.194 43.2539 85.075Z" fill="currentColor" stroke="currentColor"/>

<path d="M41.9049 88.4449C45.0589 86.1689 48.3779 83.6319 51.0869 80.8389C51.1769 80.7469 51.0579 80.5779 50.9449 80.6549C47.7259 82.8429 44.6459 85.6769 41.8619 88.3899C41.8349 88.4169 41.8719 88.4689 41.9049 88.4449Z" fill="currentColor" stroke="currentColor"/>

<path d="M9.18814 70.349C9.30914 70.349 9.30914 70.161 9.18814 70.161C9.06814 70.162 9.06814 70.349 9.18814 70.349Z" fill="currentColor" stroke="currentColor"/>

<path d="M8.16402 70.28C8.36102 70.375 8.71302 70.553 8.80302 70.776C9.15302 70.572 9.50201 70.369 9.85201 70.165C9.32101 69.513 8.39302 69.974 8.03902 70.555C7.87502 70.823 7.85702 71.23 8.03902 71.497C8.16402 71.68 8.28402 71.825 8.48302 71.931C8.98202 72.197 9.45201 71.936 9.65401 71.455C9.62601 71.521 9.768 71.055 9.778 71.027C9.772 71.043 9.661 71.195 9.726 71.152C10.214 70.824 10.068 69.96 9.40901 69.982C8.96001 69.998 8.58102 70.008 8.16402 70.2C8.13302 70.214 8.13402 70.266 8.16402 70.28Z" fill="currentColor" stroke="currentColor"/>

<path d="M13.188 82.396C13.369 82.396 13.369 82.115 13.188 82.115C13.007 82.115 13.007 82.396 13.188 82.396Z" fill="currentColor" stroke="currentColor"/>

<path d="M10.855 60.776C11.096 60.776 11.097 60.401 10.855 60.401C10.614 60.401 10.613 60.776 10.855 60.776Z" fill="currentColor" stroke="currentColor"/>

<path d="M10.5218 65.917C10.9438 65.917 10.9448 65.261 10.5218 65.261C10.0988 65.261 10.0988 65.917 10.5218 65.917Z" fill="currentColor" stroke="currentColor"/>

<path d="M50.1879 73.245C51.0329 73.245 51.0339 71.932 50.1879 71.932C49.3439 71.932 49.3419 73.245 50.1879 73.245Z" fill="currentColor" stroke="currentColor"/>

<path d="M51.9 70.903C51.979 70.849 52.059 70.795 52.139 70.741C52.5 70.496 52.5 70.015 52.139 69.77C52.059 69.716 51.98 69.662 51.9 69.608C51.419 69.282 50.771 69.716 50.771 70.256C50.772 70.795 51.42 71.229 51.9 70.903Z" fill="currentColor" stroke="currentColor"/>

<path d="M50.8251 75.5409C50.7571 75.6409 50.6661 75.7129 50.5531 75.7559C50.0651 75.7909 49.8251 76.4509 50.2931 76.7169C50.7281 76.9649 51.2801 76.4599 50.9981 76.0119C50.9351 75.8869 50.9291 75.7609 50.9821 75.6329C50.9991 75.5459 50.8931 75.4679 50.8251 75.5409Z" fill="currentColor" stroke="currentColor"/>

<path d="M39.6342 9.14099C41.2022 9.14099 41.2052 6.703 39.6342 6.703C38.0662 6.703 38.0632 9.14099 39.6342 9.14099Z" fill="currentColor" stroke="currentColor"/>

<path d="M51.509 6.42595C52.004 7.61495 52.193 7.89095 52.077 7.25295C52.076 7.13195 52.053 7.01596 52.01 6.90496C51.774 6.18396 51.094 5.55997 50.291 5.59597C49.438 5.63397 48.883 6.14196 48.572 6.90496C48.112 8.03496 49.079 9.33597 50.172 9.59597C51.018 9.79697 51.877 9.39997 52.218 8.59197C52.552 7.80197 52.258 6.87095 51.509 6.42595Z" fill="currentColor" stroke="currentColor"/>

<path d="M46.7478 2.91991C46.7238 2.90491 46.7009 2.88993 46.6769 2.87493C46.2699 2.61493 45.6649 2.61493 45.2579 2.87493C45.2339 2.88993 45.2108 2.90491 45.1868 2.91991C44.6068 3.28991 44.2878 3.98492 44.4758 4.66692C44.6498 5.29792 45.2938 5.83294 45.9678 5.80294C47.5048 5.73294 48.0638 3.75791 46.7478 2.91991Z" fill="currentColor" stroke="currentColor"/>

<path d="M60.2288 17.183C60.2598 17.159 60.2918 17.134 60.3228 17.11C60.7968 16.742 60.7938 15.765 60.3228 15.399C60.2918 15.375 60.2598 15.35 60.2288 15.326C59.7998 14.993 59.3218 14.833 58.7948 15.055C58.3178 15.255 57.9878 15.728 57.9878 16.254C57.9878 16.706 58.2478 17.159 58.6378 17.387C59.1948 17.714 59.7598 17.547 60.2288 17.183Z" fill="currentColor" stroke="currentColor"/>

<path d="M59.3012 12.625C60.2062 12.625 60.2072 11.219 59.3012 11.219C58.3962 11.219 58.3952 12.625 59.3012 12.625Z" fill="currentColor" stroke="currentColor"/>

<path d="M33.3011 4.84399C35.7741 4.84399 35.7781 1 33.3011 1C30.8281 1 30.8241 4.84399 33.3011 4.84399Z" fill="currentColor" stroke="currentColor"/>
</svg>
