<svg width="158" height="71" viewBox="0 0 158 71" fill="currentColor" xmlns="http://www.w3.org/2000/svg">

<path fill-rule="evenodd" clip-rule="evenodd" d="M87.7515 14.6912L87.7495 14.6932L87.7505 14.6912H87.7515Z" fill="currentColor"/>

<path fill-rule="evenodd" clip-rule="evenodd" d="M87.7446 14.7221C87.7476 14.7161 87.7506 14.7081 87.7546 14.7021H87.7536C87.7496 14.7101 87.7476 14.7161 87.7446 14.7221Z" fill="currentColor"/>

<path fill-rule="evenodd" clip-rule="evenodd" d="M95.7563 45.1651C95.3383 45.2141 94.9113 45.2181 94.5453 45.4481C94.3243 45.5871 94.3603 45.9661 94.6023 46.0591C95.0053 46.2171 95.4253 46.1431 95.8463 46.1141C96.4563 46.0701 96.3673 45.0951 95.7563 45.1651Z" fill="white"/>
<path fill-rule="evenodd" clip-rule="evenodd" d="M134.219 42.3001C132.856 43.1791 131.379 43.9231 129.901 44.5831C128.409 45.2531 126.91 45.8861 125.352 46.3901C122.252 47.3921 119.058 47.9971 115.804 48.1711C114.903 48.2181 114 48.2321 113.098 48.2101C112.175 48.1871 111.203 48.0601 110.292 48.2491C109.895 48.3331 109.721 48.8861 110.148 49.0811C110.926 49.4361 111.814 49.4951 112.657 49.5361C113.491 49.5771 114.325 49.5911 115.16 49.5751C116.65 49.5461 118.135 49.4191 119.607 49.1961C119.026 49.5471 118.446 49.8991 117.856 50.2371C116.656 50.9221 115.442 51.5831 114.194 52.1781C111.853 53.2951 109.36 54.4731 106.822 54.7251C106.412 54.7641 106.066 54.7821 105.72 54.7721C106.776 54.1351 107.759 53.3911 108.759 52.6701C109.169 52.3751 108.72 51.7501 108.302 52.0331C107.336 52.6891 106.298 53.1931 105.245 53.6911C104.625 53.9821 103.998 54.2611 103.365 54.5251C103.144 54.5151 102.923 54.5331 102.725 54.6251C102.582 54.6911 102.481 54.7891 102.421 54.9081C102.297 54.9551 102.172 55.0041 102.047 55.0531C99.8995 55.8691 97.6645 56.4651 95.3875 56.7871C90.8925 57.4221 86.3275 57.0151 81.9915 55.6831C80.7925 55.3161 79.6165 54.8611 78.4745 54.3391C77.3155 53.8121 76.1945 53.2041 74.9975 52.7611C74.5555 52.5971 74.2215 53.1201 74.5615 53.4521C75.4085 54.2781 76.4315 54.8881 77.4825 55.4131C77.5285 55.4361 77.5755 55.4581 77.6215 55.4811C77.6005 55.4791 77.5805 55.4791 77.5595 55.4791C76.7135 55.5341 75.9195 55.8971 75.1225 56.1631C74.3435 56.4211 73.5585 56.6651 72.7675 56.8901C71.1695 57.3471 69.5525 57.7261 67.9205 58.0421C64.6405 58.6811 61.3315 59.0521 57.9905 59.1531C56.1005 59.2101 54.1905 59.2041 52.3025 59.1041C51.9995 59.0881 51.9005 59.5421 52.2185 59.5831C55.5925 60.0211 58.9705 60.1061 62.3675 59.8681C65.7735 59.6301 69.1405 59.0771 72.4475 58.2211C73.3555 57.9851 74.2615 57.7271 75.1575 57.4461C76.0775 57.1591 77.0985 56.9231 77.8765 56.3331C78.1205 56.1471 78.1095 55.8311 77.9435 55.6401C78.8435 56.0721 79.7645 56.4581 80.7025 56.8001C80.7345 56.8121 80.7655 56.8211 80.7965 56.8331C80.5255 56.9421 80.2585 57.0671 79.9825 57.1791C79.3575 57.4351 78.7265 57.6771 78.0945 57.9111C76.8515 58.3741 75.5895 58.7921 74.3145 59.1631C71.7725 59.9051 69.1785 60.4501 66.5575 60.8251C61.2645 61.5811 55.8835 61.6491 50.5845 60.9111C47.6105 60.4971 44.6745 59.9191 41.7705 59.1451C41.5545 59.0881 41.4445 59.4381 41.6525 59.5201C46.7005 61.5381 52.0975 62.5401 57.5195 62.7761C63.0545 63.0201 68.5515 62.4421 73.9135 61.0401C75.3895 60.6551 76.8475 60.2101 78.2855 59.7021C79.0045 59.4481 79.7155 59.1771 80.4215 58.8881C80.7835 58.7401 81.1455 58.5871 81.5045 58.4291C81.6635 58.3611 81.8245 58.2901 81.9805 58.2121C82.2235 58.0871 82.3985 57.8991 82.5945 57.7121C82.6725 57.6361 82.7235 57.5541 82.7515 57.4661C84.3115 57.9131 85.9015 58.2381 87.5195 58.4271C92.2935 58.9841 97.1905 58.4071 101.691 56.7061C102.151 56.5321 102.603 56.3471 103.049 56.1471C103.073 56.1631 103.097 56.1761 103.121 56.1901C103.444 56.3721 103.811 56.5731 104.17 56.6611C104.855 56.8271 105.586 56.8581 106.288 56.8371C107.671 56.7941 109.05 56.4501 110.354 56.0051C113.138 55.0561 115.85 53.6501 118.317 52.0541C119.007 51.6091 119.692 51.1501 120.346 50.6561C120.976 50.1791 121.949 49.6031 122.187 48.8161C122.198 48.7791 122.203 48.7421 122.205 48.7091C124.86 48.1171 127.473 47.2401 129.891 46.0121C131.594 45.1471 133.158 44.0921 134.697 42.9691C135.13 42.6551 134.664 42.0151 134.219 42.3001Z" fill="currentColor"/>

<path fill-rule="evenodd" clip-rule="evenodd" d="M68.8615 55.8452C67.0865 56.2322 65.2615 56.3862 63.4465 56.3042C62.9915 56.2822 62.8505 56.9822 63.3195 57.0172C65.2005 57.1542 67.0895 57.0622 68.9455 56.7302C69.8625 56.5662 70.7705 56.3492 71.6575 56.0642C72.0905 55.9252 72.5325 55.7852 72.9455 55.5972C73.3185 55.4272 73.8035 55.1972 73.9575 54.7842C73.9915 54.6902 73.9685 54.5612 73.8605 54.5202C73.4875 54.3832 73.0885 54.5162 72.7265 54.6332C72.2925 54.7762 71.8725 54.9592 71.4425 55.1082C70.5965 55.4002 69.7355 55.6532 68.8615 55.8452Z" fill="currentColor"/>

<path fill-rule="evenodd" clip-rule="evenodd" d="M42.3707 41.3182C41.7617 41.1212 41.1477 40.9312 40.5297 40.7612C39.2527 40.4062 37.9507 40.1262 36.6437 39.9002C35.3337 39.6712 34.0177 39.5052 32.6907 39.4232C32.0577 39.3862 31.4237 39.3472 30.7907 39.3572C30.1007 39.3672 29.4337 39.4392 28.7487 39.5022C28.5057 39.5252 28.4737 39.9222 28.7307 39.9452C29.3847 40.0002 30.0337 40.0952 30.6887 40.1642C31.3467 40.2302 32.0057 40.2792 32.6647 40.3532C33.9357 40.4992 35.2077 40.6752 36.4657 40.9102C37.7277 41.1442 38.9747 41.4392 40.2117 41.7792C40.8287 41.9492 41.4437 42.1292 42.0537 42.3242C42.6737 42.5232 43.3357 42.7952 43.9927 42.7462C44.2877 42.7242 44.3507 42.3692 44.1657 42.1852C43.6977 41.7222 42.9867 41.5172 42.3707 41.3182Z" fill="currentColor"/>

<path fill-rule="evenodd" clip-rule="evenodd" d="M43.8548 49.0171C44.1098 48.9971 44.2288 48.6421 44.0188 48.4821C43.4938 48.0801 42.8508 47.9491 42.2168 47.7691C41.6078 47.5951 40.9938 47.4331 40.3818 47.2671C39.1118 46.9211 37.8398 46.5781 36.5718 46.2221C36.1548 46.1051 36.0558 46.7511 36.4558 46.8761C37.7078 47.2691 38.9558 47.6711 40.2058 48.0711C40.8008 48.2621 41.3938 48.4561 41.9898 48.6391C42.6078 48.8311 43.2048 49.0681 43.8548 49.0171Z" fill="currentColor"/>

<path fill-rule="evenodd" clip-rule="evenodd" d="M28.7204 53.6462C29.0944 53.8982 29.7584 54.4372 30.2334 54.2202C30.3354 54.1732 30.4385 54.0562 30.4125 53.9332C30.2995 53.4102 29.5654 53.1402 29.1654 52.8452C28.6774 52.4882 28.2135 52.0952 27.7955 51.6562C26.9755 50.7932 26.3255 49.7612 25.9035 48.6462C24.9495 46.1242 25.3284 43.4782 26.3794 41.0582C26.4894 40.8042 26.1255 40.5442 25.9555 40.7902C24.7205 42.5732 24.3404 44.9092 24.6414 47.0342C24.9364 49.1082 25.9185 51.0182 27.3775 52.5142C27.7885 52.9352 28.2334 53.3182 28.7204 53.6462Z" fill="currentColor"/>

<path fill-rule="evenodd" clip-rule="evenodd" d="M64.9683 55.1302C66.0613 54.9292 67.1433 54.6482 68.2063 54.3252C68.7303 54.1652 69.2483 53.9832 69.7603 53.7902C70.3053 53.5832 70.7983 53.3862 71.2293 52.9832C71.3763 52.8442 71.2613 52.5362 71.0603 52.5242C70.1233 52.4692 69.1773 52.8622 68.2733 53.0752C67.3403 53.2962 66.4063 53.4932 65.4643 53.6672C63.5503 54.0212 61.6323 54.2822 59.6863 54.3842C55.8203 54.5872 51.9373 54.1962 48.1653 53.3412C46.0223 52.8552 43.9033 52.2202 41.8773 51.3682C41.5013 51.2082 41.2413 51.7642 41.6093 51.9422C45.2413 53.7122 49.0503 54.9262 53.0603 55.4542C57.0043 55.9762 61.0563 55.8552 64.9683 55.1302Z" fill="currentColor"/>

<path fill-rule="evenodd" clip-rule="evenodd" d="M87.7634 41.4272C88.1174 41.2632 88.2804 40.9091 88.4734 40.5891C88.5964 40.3861 88.4584 40.0951 88.2594 40.0031C88.0644 39.9111 87.7444 39.9871 87.6724 40.2181C87.5584 40.5751 87.3964 40.9351 87.5074 41.3121C87.5374 41.4091 87.6714 41.4682 87.7634 41.4272Z" fill="currentColor"/>

<path fill-rule="evenodd" clip-rule="evenodd" d="M108.662 47.0731C110.633 47.3621 112.786 46.6771 114.517 45.7641C116.326 44.8091 117.933 43.5491 119.211 41.9481C119.928 41.0521 120.518 40.0341 121.022 39.0051C121.277 38.4851 120.478 38.1221 120.212 38.6281C118.482 41.9231 115.146 44.3941 111.655 45.5421C110.645 45.8741 109.615 46.1031 108.598 46.4071C108.268 46.5051 108.333 47.0251 108.662 47.0731Z" fill="currentColor"/>

<path fill-rule="evenodd" clip-rule="evenodd" d="M105.415 40.9452C104.635 41.6782 103.692 42.2872 102.757 42.8032C102.293 43.0612 101.817 43.2872 101.34 43.5202C100.885 43.7412 100.359 43.9362 100.007 44.3092C99.8274 44.4982 99.9784 44.7872 100.202 44.8402C100.726 44.9652 101.374 44.7462 101.867 44.5592C102.409 44.3502 102.943 44.0572 103.431 43.7452C104.417 43.1102 105.234 42.3132 105.995 41.4292C106.323 41.0482 105.758 40.6222 105.415 40.9452Z" fill="currentColor"/>

<path fill-rule="evenodd" clip-rule="evenodd" d="M97.2436 42.0831C96.7486 42.3081 96.2526 42.5301 95.7566 42.7551C95.3356 42.9441 94.7596 43.1241 94.6576 43.6321C94.6256 43.7941 94.7206 43.9371 94.8556 44.0131C95.2836 44.2531 95.8166 43.9211 96.2086 43.7401C96.6806 43.5231 97.1516 43.3041 97.6236 43.0881C98.2456 42.8001 97.8766 41.8001 97.2436 42.0831Z" fill="currentColor"/>

<path fill-rule="evenodd" clip-rule="evenodd" d="M116.366 37.4291C116.75 37.0171 116.96 36.4541 117.173 35.9411C117.399 35.4021 117.568 34.8381 117.757 34.2851C117.87 33.9551 117.783 33.5861 117.444 33.4281C117.157 33.2951 116.696 33.4081 116.586 33.7411C116.394 34.3251 116.169 34.9091 116.017 35.5031C115.874 36.0621 115.694 36.6611 115.753 37.2411C115.784 37.5521 116.165 37.6461 116.366 37.4291Z" fill="currentColor"/>

<path fill-rule="evenodd" clip-rule="evenodd" d="M157.441 30.2771C157.007 28.6481 156.066 27.2071 154.897 26.0111C152.555 23.6161 149.252 22.3491 146.168 21.2241C139.437 18.7671 132.367 17.2811 125.21 16.8941C123.158 16.7851 121.108 16.7691 119.055 16.8491C118.084 16.8861 117.116 16.9621 116.152 17.0641C115.654 17.1151 115.165 17.1771 114.674 17.2711C114.401 17.3241 114.139 17.4001 113.881 17.4821C113.156 16.9721 112.406 16.4981 111.638 16.0621C108.458 14.2571 104.827 13.1362 101.186 12.8282C100.137 12.7402 99.0926 12.7261 98.0416 12.8011C97.4106 12.8461 96.7595 12.9161 96.1345 13.0711C95.8605 12.7431 95.5346 12.4481 95.1706 12.1961C92.0476 10.0441 88.0905 10.0941 84.4605 10.2171C84.2495 10.2231 84.0705 10.3621 83.9745 10.5431C83.5425 10.6131 83.1395 11.0782 83.3075 11.5782C83.4165 11.9082 83.5075 12.2091 83.7275 12.4881C83.9975 12.8361 84.3695 13.0971 84.7515 13.3081C85.3945 13.6631 86.2285 13.7531 86.8505 13.9801C87.0205 14.0431 87.1845 14.1111 87.3445 14.1971C87.3515 14.2011 87.3575 14.2051 87.3625 14.2071C87.3685 14.2111 87.3746 14.2151 87.3816 14.2211C87.4406 14.2661 87.4986 14.3112 87.5546 14.3582C87.5856 14.3852 87.6735 14.4931 87.6635 14.4771C87.6885 14.5121 87.7166 14.5491 87.7396 14.5881C87.7416 14.5981 87.7436 14.6061 87.7446 14.6171C87.7456 14.6191 87.7456 14.6231 87.7476 14.6251C87.7466 14.6351 87.7486 14.6541 87.7526 14.6911C87.7556 14.6831 87.7586 14.6751 87.7616 14.6681C87.7616 14.6701 87.7625 14.6701 87.7625 14.6701C87.7595 14.6781 87.7556 14.6841 87.7526 14.6911C87.7526 14.6951 87.7535 14.6992 87.7535 14.7032C87.7575 14.6952 87.7616 14.6871 87.7656 14.6801C87.7626 14.6881 87.7575 14.6962 87.7545 14.7032C87.7555 14.7112 87.7556 14.7171 87.7566 14.7261C87.7486 14.7301 87.7456 14.7281 87.7446 14.7221C87.7426 14.7261 87.7406 14.7281 87.7396 14.7321C87.7406 14.7301 87.7426 14.7261 87.7446 14.7221C87.7436 14.7161 87.7455 14.7061 87.7505 14.6931C87.7445 14.7071 87.7356 14.7201 87.7266 14.7401C87.7206 14.7521 87.7095 14.7671 87.6995 14.7831C87.6735 14.8141 87.6445 14.8481 87.6175 14.8791C87.6355 14.8541 87.5255 14.9421 87.4445 15.0021C87.4085 15.0181 87.3165 15.0651 87.2845 15.0761C87.1835 15.1131 87.0826 15.1441 86.9806 15.1761C86.9526 15.1841 86.9295 15.1901 86.9105 15.1961C86.8075 15.2191 86.7015 15.2351 86.5965 15.2511C86.5255 15.2611 86.4535 15.2691 86.3835 15.2781C86.1155 14.6801 85.2745 14.3661 84.7325 14.0961C84.0975 13.7801 83.4435 13.4811 82.7685 13.2621C82.0845 13.0371 81.3936 12.8301 80.6836 12.7131C80.1246 12.6211 79.5375 12.5511 78.9835 12.6541C78.6845 12.4571 78.3585 12.2971 77.9925 12.1991C77.6175 12.0971 77.2105 12.0741 76.8285 12.1501C76.7645 12.1111 76.6875 12.0781 76.5995 12.0621C75.9355 11.9291 75.3225 12.0871 74.8095 12.4231C73.5385 11.9901 72.2335 11.5681 70.9095 11.3431C69.5495 11.1101 68.1766 10.9601 66.7996 10.9021C64.4756 10.8021 62.1525 10.8611 59.8415 11.1071C60.0575 10.4801 60.1645 9.79315 60.2335 9.18115C60.3445 8.18915 60.2065 7.23814 60.0725 6.25714C60.3055 6.18314 60.5295 6.08513 60.7205 5.93713C60.9105 5.78913 60.8935 5.48814 60.6685 5.38214C60.1945 5.16114 59.6185 5.18313 59.1085 5.20413C58.5865 5.22913 58.0595 5.31113 57.5485 5.41913C56.5225 5.63413 55.5205 6.01313 54.6455 6.60113C53.9255 7.08513 53.3116 7.73614 52.8866 8.48614C52.5866 7.98414 52.2585 7.50213 51.9025 7.04113C50.3585 5.04313 48.3905 3.47113 46.2805 2.10913C45.6685 1.71313 45.0466 1.34114 44.4116 0.986142C44.1006 0.810142 43.7905 0.642142 43.4705 0.486142C43.1315 0.322142 42.7625 0.0841467 42.3795 0.0601467C42.3745 0.0601467 42.3705 0.0601467 42.3655 0.0601467C42.2865 -0.00085327 42.1825 -0.0238755 42.0745 0.0311245C40.9375 0.603125 40.1416 1.79313 39.6406 2.93313C39.1196 4.12213 38.7915 5.41013 38.7115 6.70413C38.5515 9.30413 39.3136 11.8761 40.8856 13.9581C41.5946 14.8971 42.4395 15.6401 43.4135 16.2391C43.3095 16.2961 43.2045 16.3501 43.0995 16.4091C38.8865 18.7181 35.1296 21.7411 31.9036 25.2921C31.8046 25.3021 31.7055 25.3251 31.6075 25.3661C27.8345 26.9521 23.9115 28.0011 19.9885 29.1361C16.2395 30.2201 12.5196 31.4781 9.14855 33.4841C6.10055 35.2951 3.46755 37.8001 1.74755 40.9221C0.0555512 43.9921 -0.437448 47.4921 0.398552 50.8971C0.843552 52.7061 1.71153 54.4181 2.82253 55.9091C3.55953 56.8971 4.44654 57.8331 5.47454 58.5381C6.20754 59.3661 7.00354 60.1401 7.81554 60.8641C9.85354 62.6841 12.1696 64.1671 14.6186 65.3721C20.1506 68.0971 26.2625 69.2612 32.3715 69.7332C39.0475 70.2512 45.7856 70.1742 52.4726 69.9012C59.2626 69.6222 66.0376 69.0611 72.7956 68.3521C79.5636 67.6431 86.3376 66.8891 93.0366 65.6921C93.2176 65.6611 93.3965 65.6241 93.5745 65.5831C93.7035 65.5811 93.8325 65.5771 93.9615 65.5751C95.2625 65.5441 96.5535 65.4951 97.8505 65.3821C100.418 65.1631 102.956 64.8021 105.491 64.3291C110.639 63.3721 115.718 62.0281 120.662 60.3041C125.52 58.6111 130.251 56.5481 134.8 54.1421C139.426 51.6931 143.873 48.9171 148.07 45.7881C150.132 44.2531 152.152 42.6461 154.071 40.9351C156.101 39.1241 158.191 36.7381 157.766 33.8061C157.741 33.6281 157.706 33.4511 157.665 33.2751C157.682 33.1521 157.693 33.0311 157.703 32.9101C157.765 31.9951 157.676 31.1611 157.441 30.2771ZM155.282 32.9111C155.294 32.7161 155.283 32.8531 155.282 32.9111ZM153.336 28.0031C153.426 28.0931 153.374 28.0401 153.336 28.0031ZM97.6415 14.4171C98.5145 14.4521 99.3826 14.4951 100.253 14.5751C102.018 14.7351 103.77 15.0891 105.462 15.6141C108.681 16.6121 111.76 18.3292 114.338 20.5652C114.704 20.8812 115.061 21.2121 115.408 21.5511C115.769 21.9041 116.05 22.1991 116.301 22.4771C116.602 22.8131 116.893 23.1591 117.177 23.5101C116.214 23.7151 115.245 24.0391 114.452 24.5941C113.476 24.6721 112.544 25.1211 111.993 25.9631C111.67 26.4571 111.468 27.0061 111.397 27.5671C111.18 27.2251 110.949 26.8911 110.695 26.5731C109.549 25.1261 108.12 24.0441 106.486 23.2021C106.047 22.9771 105.755 23.6471 106.168 23.8881C107.594 24.7201 108.823 25.9641 109.775 27.3041C110.243 27.9641 110.662 28.6691 110.999 29.4061C111.348 30.1681 111.568 31.0101 112.045 31.7011C112.232 31.9731 112.703 31.8751 112.749 31.5411C112.772 31.3731 112.779 31.2011 112.77 31.0311C113.272 31.5311 113.871 31.9331 114.533 32.2091C115.846 32.7561 117.289 32.8481 118.693 32.7381C119.114 32.7071 119.545 32.6601 119.975 32.5951C119.929 33.0231 119.867 33.4491 119.79 33.8571C119.655 34.5821 119.44 35.2911 119.154 35.9701C118.545 37.4152 117.621 38.7041 116.51 39.8101C114.008 42.3021 110.58 43.5231 107.171 44.1501C106.119 44.3431 105.06 44.5001 104 44.6481C102.933 44.7981 101.872 44.9331 100.829 45.2051C100.558 45.2751 100.629 45.6871 100.878 45.7281C101.882 45.9001 102.898 45.9021 103.914 45.8761C104.282 45.8661 104.651 45.8471 105.018 45.8191C104.653 46.0551 104.288 46.2921 103.911 46.5031C102.907 47.0641 101.846 47.5151 100.766 47.9071C98.6066 48.6921 96.3115 49.1041 94.0145 49.1611C92.7895 49.1901 91.5695 49.0911 90.3625 48.8881C90.5255 48.7551 90.6875 48.6181 90.8455 48.4801C91.4265 47.9601 91.9795 47.4101 92.4825 46.8161C92.7175 46.5371 92.9815 46.1991 93.1685 45.8361C93.4095 45.5291 93.6376 45.2091 93.8566 44.8751C94.4586 43.9531 94.9886 42.9792 95.4846 41.9962C96.4646 40.0602 97.2636 38.0251 97.7866 35.9181C98.4536 33.2271 98.6196 30.3161 98.1056 27.5531C98.5496 28.2291 98.9846 28.9121 99.4076 29.5981C100.032 30.6121 100.616 31.6861 100.898 32.8501C101.338 34.6781 100.987 36.6881 100.079 38.3191C99.5475 39.2741 98.6935 40.0011 98.1645 40.9341C98.0415 41.1511 98.2615 41.4911 98.5175 41.4341C99.5795 41.1961 100.36 40.2821 100.924 39.3931C101.508 38.4711 101.92 37.4521 102.139 36.3831C102.616 34.0431 101.968 31.7421 100.666 29.7781C99.7896 28.4601 98.7345 27.2761 97.7815 26.0161C97.7645 25.9951 97.7465 25.9771 97.7275 25.9611C97.5405 25.3221 97.3156 24.6951 97.0456 24.0861C96.8206 23.5741 96.5685 23.0701 96.2885 22.5821C96.3875 22.6451 96.4875 22.7091 96.5865 22.7731C97.2685 23.2121 97.9395 23.6691 98.6115 24.1231C98.8025 24.2521 98.9906 24.3831 99.1796 24.5141C99.3266 24.6371 99.4845 24.7481 99.6515 24.8481C100.638 25.5571 101.591 26.3151 102.48 27.1451C104.744 29.2561 106.606 31.9501 107.252 35.0181C107.428 35.8521 107.519 36.7061 107.499 37.5571C107.479 38.4181 107.211 39.2662 107.226 40.1212C107.232 40.4552 107.745 40.6271 107.935 40.3421C108.386 39.6681 108.484 38.8071 108.533 38.0141C108.582 37.2151 108.554 36.4161 108.434 35.6231C108.19 33.9941 107.624 32.4341 106.84 30.9881C105.635 28.7651 103.894 26.9221 101.941 25.3401C102.875 25.2271 103.733 24.7351 104.223 23.8771C104.856 22.7721 104.574 21.3071 103.509 20.5761C102.891 20.1521 102.181 19.9782 101.436 19.9962C101.006 20.0062 100.548 20.0781 100.153 20.2501C100.007 20.3131 99.8485 20.3952 99.7025 20.4962C99.6115 20.4222 99.4905 20.3941 99.3625 20.4591C98.8755 20.7051 98.5265 21.0001 98.3335 21.5271C98.1935 21.9021 98.1385 22.3081 98.1775 22.7071C97.9325 22.5591 97.6866 22.4101 97.4386 22.2661C97.0346 22.0281 96.6305 21.7841 96.2165 21.5631C95.9375 21.4131 95.6445 21.2951 95.3535 21.1721C94.9745 20.6761 94.5516 20.1641 94.0676 19.7401C94.4616 19.5291 94.8336 19.2851 95.1756 19.0101C95.6426 19.2681 96.1895 19.4161 96.6775 19.5961C97.2185 19.7931 98.0545 20.1841 98.6245 19.9571C98.8135 19.8831 98.8705 19.6621 98.7635 19.4981C98.4295 18.9861 97.5186 18.8241 96.9676 18.6761C96.6096 18.5781 96.2345 18.4511 95.8575 18.3661C96.0555 18.1451 96.2345 17.9091 96.3915 17.6531C97.4005 17.7141 98.4226 17.6631 99.4336 17.7101C100.568 17.7611 101.708 17.8881 102.829 18.0771C105.068 18.4561 107.253 19.1511 109.305 20.1261C109.866 20.3921 110.416 20.6851 110.968 20.9701C111.537 21.2671 112.111 21.6181 112.743 21.7631C113.053 21.8331 113.255 21.4521 113.091 21.2101C112.775 20.7451 112.287 20.3881 111.82 20.0851C111.303 19.7511 110.778 19.4461 110.227 19.1731C109.167 18.6461 108.071 18.1981 106.942 17.8391C104.686 17.1241 102.34 16.7121 99.9695 16.7021C98.9135 16.6981 97.7835 16.7351 96.7335 16.9851C96.8025 16.8191 96.8635 16.6451 96.9145 16.4671C97.1195 15.7461 97.0885 15.0451 96.8805 14.4011C97.1335 14.4031 97.3875 14.4071 97.6415 14.4171ZM122.008 25.5341C122.191 25.5981 122.369 25.6751 122.543 25.7621C122.62 25.8011 122.697 25.8441 122.773 25.8871C122.757 25.8851 122.979 26.0431 123.003 26.0631C123.061 26.1121 123.116 26.1631 123.171 26.2151C123.175 26.2271 123.288 26.3621 123.297 26.3731C123.31 26.3911 123.41 26.5611 123.408 26.5471C123.425 26.5841 123.441 26.6211 123.456 26.6601C123.467 26.6851 123.515 26.8501 123.522 26.8571C123.533 26.9231 123.542 26.9901 123.547 27.0561C123.55 27.0851 123.548 27.2441 123.552 27.2611C123.541 27.3631 123.528 27.4621 123.507 27.5621C123.492 27.6341 123.475 27.7051 123.454 27.7751C123.47 27.7161 123.398 27.9411 123.388 27.9681C123.347 28.0681 123.302 28.1651 123.253 28.2611C123.243 28.2811 123.157 28.4231 123.148 28.4471C123.144 28.4531 123.14 28.4591 123.136 28.4651C122.312 27.7831 121.487 27.1021 120.661 26.4181C120.133 25.9801 119.454 26.8011 119.982 27.2381C120.779 27.8981 121.575 28.5601 122.372 29.2201C122.358 29.2301 122.345 29.2401 122.331 29.2491C122.147 29.3741 121.938 29.4871 121.714 29.5871C121.716 29.5231 121.698 29.4561 121.654 29.3961C121.309 28.9271 120.503 28.9041 119.979 28.7671C119.416 28.6221 118.872 28.4211 118.345 28.1751C117.238 27.6591 116.273 26.9371 115.405 26.0831C115.005 25.6881 114.297 26.3371 114.678 26.7611C115.566 27.7491 116.645 28.5441 117.837 29.1261C118.426 29.4131 119.043 29.6421 119.673 29.8211C119.89 29.8821 120.164 29.9661 120.447 30.0181C120.224 30.0731 120.007 30.1181 119.8 30.1531C119.293 30.2411 118.782 30.3071 118.269 30.3461C118.009 30.3681 117.748 30.3791 117.487 30.3831C117.4 30.3831 117.313 30.3831 117.226 30.3811C117.077 30.3791 117.053 30.3771 117.159 30.3791C117.073 30.3731 116.986 30.3651 116.9 30.3571C116.643 30.3341 116.387 30.2941 116.134 30.2421C115.843 30.1791 115.805 30.1721 115.577 30.0861C115.369 30.0061 115.176 29.9021 114.975 29.8031C114.946 29.7891 114.924 29.7801 114.909 29.7721C114.894 29.7601 114.878 29.7471 114.852 29.7291C114.732 29.6431 114.612 29.5551 114.498 29.4591C114.414 29.3871 114.334 29.3121 114.254 29.2361C114.158 29.1381 114.151 29.1311 114.232 29.2121C114.185 29.1551 114.138 29.1011 114.093 29.0421C114.027 28.9541 113.97 28.8621 113.906 28.7741C113.877 28.7231 113.858 28.6941 113.851 28.6861C113.831 28.6451 113.811 28.6041 113.793 28.5631C113.75 28.4631 113.712 28.3621 113.68 28.2581C113.667 28.2211 113.611 27.9471 113.608 27.9611C113.598 27.8811 113.59 27.8011 113.58 27.7191C113.58 27.6821 113.58 27.6561 113.58 27.6391C113.585 27.5901 113.589 27.5411 113.596 27.4921C113.653 27.1051 113.802 26.7401 114.018 26.4291C114.159 26.2261 114.292 26.0721 114.464 25.9741C115.523 25.8311 116.542 25.4531 117.604 25.3041C118.672 25.1561 119.758 25.1401 120.827 25.2831C121.047 25.3121 121.265 25.3491 121.483 25.3961C121.588 25.4171 121.693 25.4431 121.798 25.4681C121.8 25.4741 122.009 25.5381 122.008 25.5341ZM79.7235 50.8001C78.3045 50.7631 76.8435 50.5681 75.4485 50.2711C75.7715 50.1501 76.0915 50.0171 76.4015 49.8651C77.0235 49.5601 77.7466 49.1871 78.1406 48.5931C78.2226 48.4701 78.1955 48.2341 78.0045 48.2241C77.4305 48.1971 76.8675 48.3862 76.3235 48.5522C75.7155 48.7352 75.1235 48.9661 74.5215 49.1671C73.3525 49.5561 72.1635 49.8821 70.9515 50.1051C68.5205 50.5501 66.0475 50.6361 63.5905 50.3861C62.8945 50.3161 62.1985 50.2201 61.5055 50.1181C61.2335 50.0791 60.9636 50.0261 60.6916 49.9771C61.2556 49.7131 61.7855 49.3481 62.2595 48.9521C62.4055 49.1921 62.7186 49.3581 63.0106 49.2741C62.9496 49.5261 63.1645 49.8251 63.4925 49.7191C64.7915 49.2971 66.0105 48.7091 67.1075 47.8951C68.1065 47.1551 69.3355 46.1162 69.6465 44.8582C69.7115 44.5902 69.3925 44.4581 69.1955 44.5731C68.6555 44.8911 68.2005 45.3991 67.7535 45.8351C67.3265 46.2511 66.8745 46.6511 66.4085 47.0241C65.5745 47.6921 64.6726 48.2991 63.7186 48.7861C64.9126 47.7721 65.8076 46.3191 66.4546 44.9361C67.2056 43.3331 67.6436 41.5771 67.7746 39.8131C68.0656 35.8991 66.8535 32.1041 64.8235 28.7881C63.7545 27.0441 62.4795 25.4681 61.0615 24.0051C61.8165 23.5011 62.3775 22.7102 62.6395 21.8152C63.0175 20.5262 62.6575 18.9951 61.5655 18.1551C60.9335 17.6671 60.1825 17.4301 59.3895 17.4211C59.0435 17.4171 58.6705 17.4821 58.3525 17.6201C58.1245 17.7201 57.8345 17.8741 57.6765 18.0771C57.6635 18.0931 57.6226 18.1451 57.6226 18.1511C57.5426 18.2291 57.4566 18.2991 57.3826 18.3831C57.2296 18.5511 57.1596 18.7721 57.1626 18.9921C56.7926 19.3981 56.4845 19.8591 56.2975 20.3591C55.1995 19.7911 54.0776 19.2691 52.9286 18.8121C51.7516 18.3451 50.5545 17.9331 49.3415 17.5701C48.7015 17.3791 48.0495 17.1891 47.3895 17.0641C48.1175 16.7381 48.8556 16.4311 49.6016 16.1461C50.0926 15.9581 50.5876 15.7791 51.0846 15.6091C51.1396 15.6771 51.2166 15.7281 51.3166 15.7421C52.4196 15.8831 53.5715 15.5991 54.6825 15.5701C55.7845 15.5431 56.8916 15.6151 57.9816 15.7931C60.1696 16.1521 62.2876 16.9411 64.1666 18.1231C67.9976 20.5291 70.5575 24.6002 71.3075 29.0392C71.5195 30.2952 71.6085 31.5921 71.5485 32.8651C71.5175 33.5191 71.4485 34.1761 71.3535 34.8241C71.3145 35.0861 71.2696 35.3441 71.2266 35.6031C70.1216 37.0621 69.8445 39.1522 70.3665 40.9142C70.1335 41.6132 69.8516 42.3071 69.6666 43.0181C69.5916 43.3071 69.9725 43.4131 70.1455 43.2411C70.4435 42.9381 70.6965 42.5851 70.9105 42.2081C71.3815 43.0731 72.0235 43.8411 72.7805 44.4741C71.9445 45.3691 71.0046 46.1731 70.0236 46.9021C69.4546 47.3261 68.8725 47.7241 68.2595 48.0841C67.7735 48.3691 66.7736 48.7291 66.6756 49.3591C66.6516 49.5191 66.7335 49.6461 66.8655 49.7241C67.4485 50.0681 68.4155 49.3821 68.9015 49.0851C69.5405 48.6961 70.1655 48.2721 70.7425 47.7961C71.7605 46.9561 72.6345 46.0031 73.4175 44.9541C74.1165 45.4311 74.8895 45.7981 75.6995 46.0321C75.5565 46.1201 75.4145 46.2081 75.2715 46.2961C74.5915 46.7061 73.9135 47.1181 73.2105 47.4931C71.8065 48.2411 70.3685 48.9271 68.8785 49.4891C68.4095 49.6651 68.6795 50.3641 69.1525 50.2121C70.7075 49.7121 72.2385 49.1321 73.6975 48.3961C74.4065 48.0391 75.1106 47.6641 75.7906 47.2511C76.1376 47.0401 76.4886 46.8231 76.8126 46.5751C76.9226 46.4891 77.0426 46.3992 77.1576 46.3022C78.1396 46.3862 79.1366 46.2752 80.0546 45.9701C79.9856 46.0701 79.9305 46.1771 79.9065 46.2901C79.8325 46.6281 80.1775 46.8251 80.4625 46.7511C80.6625 46.6981 80.8386 46.4951 80.9806 46.3531C81.1116 46.2201 81.2415 46.0871 81.3705 45.9551C81.5285 45.7951 81.5055 45.5231 81.3745 45.3531C82.0235 44.9491 82.5925 44.4151 83.0305 43.7531C83.0765 43.7451 83.1215 43.7281 83.1645 43.6931C84.5075 42.6811 85.4396 41.1321 86.2696 39.6951C87.1146 38.2321 87.8236 36.6971 88.3346 35.0861C89.3136 32.0041 89.5026 28.6701 88.4946 25.5661C88.0566 24.2141 87.3705 22.6891 86.2895 21.6811C86.9285 21.6421 87.5645 21.5761 88.1975 21.4801C88.2005 21.4881 88.2046 21.4981 88.2096 21.5071C89.1666 23.3431 89.7276 25.3901 89.9116 27.4481C90.0026 28.4641 90.0055 29.4971 89.9345 30.5141C89.8635 31.5651 89.6766 32.5862 89.4986 33.6212C89.4506 33.9022 89.8295 34.0041 89.9585 33.7681C90.9995 31.8521 91.2486 29.4851 90.9856 27.3481C90.7206 25.1981 89.9345 23.1761 88.7125 21.3931C89.1635 21.3151 89.6195 21.2232 90.0735 21.1212C90.3695 21.7382 90.6955 22.3401 90.9655 22.9711C91.3095 23.7741 91.6235 24.5821 91.8745 25.4181C92.3885 27.1231 92.6585 28.8981 92.6945 30.6781C92.7595 34.0081 91.9376 37.3261 90.3776 40.2621C89.9496 41.0671 89.4855 41.8461 88.9535 42.5881C88.6975 42.9471 88.4265 43.2931 88.1555 43.6411C87.8625 44.0201 87.5215 44.3621 87.3055 44.7911C87.0965 45.2111 87.5986 45.5081 87.9426 45.3181C88.3276 45.1051 88.6235 44.7521 88.9195 44.4311C89.2195 44.1071 89.4975 43.7671 89.7665 43.4171C90.2835 42.7411 90.7556 42.0301 91.1886 41.2981C92.0586 39.8251 92.7036 38.2121 93.1666 36.5681C94.1556 33.0451 94.0946 29.3021 93.1146 25.7851C92.8346 24.7791 92.4825 23.7871 92.0435 22.8421C91.7395 22.1861 91.3995 21.5081 90.9835 20.8991C91.6685 20.7151 92.3426 20.4971 92.9946 20.2351C93.3996 20.7621 93.8475 21.2621 94.2235 21.8111C94.7245 22.5411 95.1595 23.3071 95.5145 24.1201C96.2405 25.7801 96.6936 27.5401 96.8556 29.3471C97.2086 33.2711 96.1535 37.1631 94.4755 40.6871C93.8185 42.0661 93.0085 43.3691 92.2885 44.7121C91.9525 44.9681 91.6676 45.3191 91.4036 45.6141C91.0146 46.0471 90.6335 46.4811 90.2035 46.8781C89.2935 47.7181 88.2646 48.4391 87.1836 49.0421C84.9216 50.3061 82.3065 50.8661 79.7235 50.8001ZM43.2616 19.1971C43.3756 19.1291 43.4905 19.0641 43.6045 18.9981C44.7925 19.2911 45.9765 19.6351 47.1075 20.0961C48.4525 20.6451 49.7455 21.3321 50.9745 22.1021C53.4825 23.6721 55.8095 25.6041 57.9455 27.6451C58.7995 28.4611 59.6245 29.3231 60.3835 30.2391C60.0305 29.9071 59.6675 29.5871 59.2975 29.2741C57.7945 28.0041 56.1585 26.9071 54.4435 25.9481C50.9915 24.0181 47.1435 22.7621 43.2105 22.3391C41.6895 22.1751 40.1616 22.1341 38.6536 22.3081C40.1276 21.1831 41.6686 20.1381 43.2616 19.1971ZM59.9865 27.6261C57.7635 25.3801 55.2505 23.3371 52.6035 21.6121C50.2885 20.1021 47.6595 18.7171 44.8895 18.2821C45.3475 18.0401 45.8105 17.8051 46.2775 17.5811C46.3015 17.5691 46.3266 17.5581 46.3516 17.5461C47.2276 17.9011 48.1605 18.1261 49.0615 18.4091C50.2555 18.7861 51.4325 19.2191 52.5865 19.7061C53.7175 20.1791 54.8325 20.6901 55.9225 21.2531C55.9825 21.2841 56.0425 21.3161 56.1035 21.3471C56.0985 21.5521 56.1156 21.7631 56.1576 21.9781C56.4646 23.5421 57.7426 24.6732 59.3726 24.5782C59.7216 24.5572 60.0535 24.4841 60.3635 24.3671C62.7455 27.1351 64.8255 30.2361 65.9305 33.7401C66.9655 37.0191 66.9805 40.6381 65.6455 43.8401C65.6355 43.8631 65.6255 43.8851 65.6165 43.9061C66.4195 41.2891 66.2505 38.4201 65.3715 35.8321C64.3055 32.6931 62.2985 29.9601 59.9865 27.6261ZM57.8445 20.7401C57.8785 20.4611 57.9575 20.2051 58.0745 19.9701C58.2775 19.9801 58.4865 19.9271 58.6815 19.8121C58.7495 19.7981 58.8166 19.7831 58.8826 19.7631C58.9156 19.7531 58.9395 19.7471 58.9515 19.7421C58.9755 19.7381 58.9985 19.7321 59.0225 19.7281C59.1395 19.7071 59.2565 19.6951 59.3755 19.6871C59.4175 19.6831 59.4605 19.6831 59.5035 19.6831C59.5095 19.6831 59.5156 19.6831 59.5236 19.6831C59.6156 19.7011 59.7056 19.7161 59.7956 19.7341C59.7286 19.7241 59.9805 19.8021 60.0265 19.8261C60.0575 19.8421 60.0876 19.8571 60.1186 19.8751C60.1306 19.8831 60.1455 19.8951 60.1695 19.9121C60.2055 19.9451 60.3405 20.1021 60.3465 20.0941C60.3955 20.1701 60.4565 20.2701 60.4455 20.2311C60.4885 20.3331 60.5215 20.4361 60.5575 20.5401C60.4815 20.3191 60.5595 20.5851 60.5655 20.6401C60.5705 20.6831 60.5655 20.9601 60.5765 20.9191C60.5625 21.0261 60.5406 21.1321 60.5246 21.2391C60.5096 21.2961 60.5015 21.3251 60.5015 21.3331C60.4865 21.3721 60.4735 21.4111 60.4575 21.4481C60.4135 21.5531 60.3625 21.6571 60.3065 21.7581C60.3045 21.7461 60.1546 21.9591 60.1316 21.9851C60.0966 22.0241 60.0595 22.0631 60.0215 22.1001C60.0065 22.1141 59.9855 22.1311 59.9575 22.1551C59.8965 22.2061 59.8316 22.2511 59.7656 22.2961C59.6816 22.3471 59.6485 22.3681 59.6635 22.3601C59.6005 22.3931 59.5436 22.4211 59.4896 22.4421C59.1416 21.9261 58.5295 21.6001 57.9995 21.2921C57.9415 21.2591 57.8825 21.2261 57.8235 21.1921C57.8175 21.0481 57.8255 20.8981 57.8445 20.7401ZM61.1135 13.5111C62.5065 13.9271 63.8765 14.3861 65.1895 15.0341C66.8285 15.8411 68.3356 16.8911 69.6626 18.1471C72.4416 20.7781 74.2345 24.3741 74.8665 28.1371C75.0555 29.2541 75.1425 30.3911 75.1255 31.5241C75.1165 32.0691 75.0505 32.6121 75.0295 33.1571C75.0265 33.2471 75.0205 33.3372 75.0145 33.4272C74.8445 33.4432 74.6755 33.4641 74.5095 33.4931C74.0295 33.5731 73.6086 33.6771 73.1746 33.7861C72.9746 33.8371 72.7525 33.9031 72.5475 33.9971C72.5685 33.8561 72.5886 33.7181 72.6066 33.5811C72.7646 32.3601 72.7955 31.1261 72.6805 29.9011C72.4475 27.4341 71.7035 25.0381 70.4955 22.8761C68.1095 18.6041 63.8596 15.6491 59.1106 14.5991C58.1756 14.3901 57.2176 14.2551 56.2566 14.2041C56.4386 14.1691 56.6186 14.1341 56.7996 14.1011C58.2276 13.8311 59.6675 13.6361 61.1135 13.5111ZM78.1186 36.1591C78.2416 36.2041 78.3635 36.2551 78.4835 36.3071C78.7605 36.4281 79.0276 36.5691 79.2866 36.7211C79.3146 36.7371 79.3325 36.7461 79.3455 36.7521C79.3535 36.7601 79.3706 36.7741 79.4076 36.7991C79.5296 36.8851 79.6516 36.9732 79.7696 37.0652C79.9866 37.2372 80.1935 37.4221 80.3875 37.6201C80.4325 37.6711 80.4775 37.7221 80.5205 37.7741C80.6035 37.8741 80.6835 37.9771 80.7595 38.0831C80.8365 38.1881 80.9085 38.2961 80.9785 38.4071C81.0165 38.4681 81.0526 38.5301 81.0886 38.5931C81.0936 38.6011 81.0985 38.6101 81.1035 38.6201C81.2145 38.8541 81.3136 39.0911 81.3906 39.3371C81.4006 39.3701 81.4516 39.5601 81.4676 39.6141C81.4686 39.6261 81.4715 39.6371 81.4735 39.6511C80.7855 39.3271 80.1065 38.9831 79.4515 38.5881C78.1445 37.8011 76.9945 36.8051 75.9215 35.7271C75.9785 35.7311 76.0316 35.7331 76.0806 35.7371C76.6856 35.7841 77.2875 35.8951 77.8705 36.0711C77.8605 36.0701 78.0746 36.1421 78.1186 36.1591ZM78.5636 21.3701C78.3616 21.0321 78.1406 20.6901 77.8986 20.3601C79.0426 20.8701 80.2736 21.2181 81.5076 21.4341C82.4566 22.5431 83.2886 23.7351 83.8646 25.0981C84.2216 25.9401 84.4765 26.8171 84.6425 27.7151C84.7275 28.1781 84.7716 28.6411 84.8166 29.1101C84.8616 29.5671 84.9895 29.9871 85.1025 30.4321C85.1505 30.6181 85.4596 30.6251 85.5236 30.4481C85.6936 29.9711 85.8165 29.5261 85.8055 29.0161C85.7945 28.5511 85.7265 28.0782 85.6475 27.6212C85.4785 26.6352 85.1755 25.6661 84.7715 24.7541C84.2765 23.6331 83.6186 22.5371 82.7866 21.6111C83.1416 21.6481 83.4955 21.6761 83.8445 21.6931C84.3105 21.7141 84.7745 21.7241 85.2385 21.7181C85.6025 22.3411 86.0246 22.9271 86.3816 23.5541C86.7406 24.1851 87.0396 24.8431 87.2746 25.5291C87.7506 26.9211 87.9575 28.4021 87.9575 29.8731C87.9585 32.9511 86.8785 35.9261 85.4025 38.5921C84.9765 39.3621 84.5025 40.0981 84.0345 40.8421C84.0095 40.8811 83.9835 40.9201 83.9585 40.9591C84.0545 39.5511 83.6505 38.1351 82.8765 36.9381C82.9385 36.9501 83.0075 36.9321 83.0605 36.8791C83.3995 36.5331 83.6325 36.0641 83.8545 35.6371C84.0925 35.1741 84.3195 34.7051 84.5525 34.2411C84.7525 33.8411 84.1185 33.5481 83.9215 33.9481C83.6915 34.4151 83.4555 34.8801 83.2325 35.3481C83.0255 35.7821 82.8006 36.2411 82.7306 36.7191C82.3996 36.2441 82.0085 35.8071 81.5655 35.4241C80.9345 34.8751 80.2085 34.4301 79.4365 34.1001C80.3635 32.3541 80.6395 30.2051 80.5945 28.2821C80.5375 25.8431 79.8096 23.4641 78.5636 21.3701ZM81.3195 41.9091C81.2715 42.0261 81.2196 42.1431 81.1616 42.2571C81.1316 42.3141 80.9866 42.5442 81.0156 42.5092C80.8786 42.7002 80.7305 42.8781 80.5685 43.0461C80.5655 43.0481 80.5635 43.0501 80.5605 43.0541C80.5205 43.0871 80.4826 43.1201 80.4426 43.1541C80.3216 43.2521 80.1966 43.3421 80.0666 43.4261C80.0316 43.4491 79.8745 43.5392 79.8335 43.5652C79.7725 43.5922 79.6326 43.6571 79.6056 43.6681C79.3676 43.7701 79.1235 43.8422 78.8755 43.9142C78.8195 43.9262 78.7635 43.9371 78.7065 43.9471C78.5845 43.9681 78.4625 43.9841 78.3395 43.9981C78.0975 44.0231 77.8556 44.0331 77.6106 44.0331C77.6516 44.0311 77.4215 44.0231 77.3655 44.0191C77.2405 44.0071 77.1155 43.9921 76.9915 43.9741C76.7075 43.9331 76.4276 43.8691 76.1496 43.7941C76.1466 43.7941 76.1205 43.7841 76.0955 43.7781C76.0555 43.7641 75.9865 43.7411 75.9715 43.7351C75.8555 43.6921 75.7395 43.6471 75.6245 43.5981C75.3695 43.4891 75.1226 43.3641 74.8826 43.2231C74.8496 43.2061 74.8166 43.1842 74.7826 43.1642C74.7596 43.1482 74.7085 43.1171 74.6975 43.1091C74.5905 43.0331 74.4815 42.9591 74.3765 42.8791C74.1525 42.7091 73.9355 42.5291 73.7295 42.3381C73.6755 42.2871 73.6225 42.2341 73.5685 42.1821C73.5705 42.1841 73.5356 42.1491 73.5106 42.1231C73.4806 42.0901 73.4246 42.0271 73.4166 42.0201C73.3796 41.9771 73.3435 41.9341 73.3075 41.8911C73.1175 41.6611 72.9435 41.4182 72.7855 41.1642C72.7565 41.1172 72.7285 41.0681 72.6995 41.0211C72.6485 40.9371 72.7195 41.0721 72.6435 40.9231C72.5785 40.7881 72.5145 40.6531 72.4575 40.5171C72.3445 40.2421 72.2456 39.9642 72.1656 39.6772C72.1086 39.4722 72.1435 39.5811 72.1525 39.6261C72.1335 39.5381 72.1185 39.4482 72.1045 39.3582C72.0825 39.2162 72.0675 39.0731 72.0565 38.9281C72.0565 38.9241 72.0555 38.9181 72.0555 38.9121C72.8585 39.5961 73.6656 40.2731 74.4636 40.9651C74.8556 41.3031 75.2446 41.6431 75.6356 41.9811C75.9886 42.2861 76.4275 42.8421 76.9175 42.8701C77.1705 42.8821 77.5215 42.7001 77.4475 42.3801C77.3245 41.8471 76.8425 41.5771 76.4355 41.2471C76.0165 40.9031 75.5965 40.5622 75.1765 40.2201C74.3365 39.5342 73.5076 38.8371 72.6746 38.1461C72.4646 37.9701 72.2296 38.0111 72.0676 38.1461C72.1546 37.3761 72.4065 36.6131 72.8015 35.9331C73.2975 35.9741 73.8525 35.8141 74.3185 35.7771C74.5995 35.7541 74.8836 35.7441 75.1656 35.7321C75.0816 35.8691 75.0635 36.0411 75.1825 36.1871C76.2215 37.4841 77.5226 38.5521 78.9256 39.4311C79.7476 39.9471 80.6335 40.3981 81.5615 40.7121C81.5575 40.7691 81.5515 40.8921 81.5465 40.9331C81.5285 41.0801 81.5065 41.2241 81.4775 41.3691C81.4555 41.4711 81.4315 41.5701 81.4045 41.6701C81.4075 41.6531 81.3385 41.8601 81.3195 41.9091ZM80.5595 43.0541C80.5245 43.0831 80.4145 43.2041 80.5595 43.0541ZM81.0865 38.5911C81.0565 38.5301 81.0395 38.5091 81.0865 38.5911ZM101.326 21.8391C101.569 21.8121 101.786 21.8141 102.024 21.8701C102.113 21.8901 102.365 21.9951 102.434 22.0441C102.727 22.2451 102.823 22.4701 102.777 22.7571C102.729 23.0541 102.541 23.3411 102.249 23.5051C101.534 23.9071 100.586 23.6611 99.9986 23.1421C99.6356 22.8221 99.4425 22.3221 99.4755 21.8411C100.014 22.1521 100.752 21.9001 101.326 21.8391ZM87.7396 14.5851C87.7236 14.4781 87.7016 14.5171 87.7396 14.5851ZM87.7656 14.6751C87.7816 14.6421 87.7905 14.6181 87.7645 14.6671C87.7635 14.6651 87.7635 14.6651 87.7635 14.6631C87.7895 14.6071 87.8276 14.5521 87.7656 14.6751ZM87.6985 14.7821C87.6685 14.8221 87.6415 14.8531 87.6985 14.7821ZM86.9076 15.1971C86.8576 15.2081 86.7766 15.2341 86.9076 15.1971ZM82.0865 14.8781C82.5165 15.0601 82.9465 15.2391 83.3705 15.4371C83.3215 15.4331 83.2735 15.4291 83.2255 15.4231C82.8905 15.3901 82.5675 15.3221 82.2385 15.2491C82.2245 15.2451 82.1566 15.2261 82.1356 15.2221C82.0856 15.2041 82.0345 15.1871 81.9865 15.1671C81.8145 15.1011 81.6536 15.0191 81.4896 14.9391C81.4806 14.9351 81.4095 14.8941 81.3935 14.8881C81.3455 14.8551 81.2965 14.8201 81.2505 14.7861C81.1185 14.6881 80.9936 14.5831 80.8736 14.4701C80.8406 14.4391 80.8106 14.4071 80.7786 14.3761C81.2186 14.5341 81.6565 14.6971 82.0865 14.8781ZM79.2425 15.7351C80.3335 16.9581 81.7776 17.5731 83.3996 17.6941C84.1936 17.7531 84.9876 17.7351 85.7826 17.6801C86.5826 17.6231 87.4365 17.5861 88.1805 17.2601C89.0455 16.8791 89.7635 16.1701 89.9885 15.2351C90.2145 14.2961 89.8025 13.3641 89.1175 12.7271C88.4005 12.0651 87.4686 11.8401 86.5366 11.6661C86.2506 11.6111 85.9726 11.5591 85.7316 11.4941C88.1086 11.5971 90.5625 11.8181 92.7205 12.8241C93.3185 13.1031 93.8896 13.4281 94.3826 13.8671C94.7816 14.2241 95.0926 14.7051 95.1576 15.1601C95.2336 15.6971 95.0825 16.2402 94.7715 16.7462C94.4655 17.2422 93.9595 17.6501 93.4475 17.9651C92.3005 18.6641 90.8896 19.0351 89.5936 19.3461C88.2836 19.6601 86.9096 19.8441 85.5546 19.8991C82.8686 20.0041 80.2206 19.4971 77.7916 18.3271C76.6116 17.7571 75.2976 16.9521 74.8646 15.6381C74.6156 14.8761 74.9855 13.7182 75.7535 13.3842C75.8265 13.6092 76.0455 13.7941 76.2935 13.7511C76.3155 13.7451 76.3405 13.7411 76.3625 13.7371C76.4915 13.7721 76.6146 13.7901 76.7746 13.7881C76.8786 13.7881 76.9296 13.7741 77.0586 13.7941C77.3236 13.8291 77.6205 13.9601 77.8205 14.1071C78.4035 14.5321 78.7685 15.2021 79.2425 15.7351ZM65.7285 13.3531C65.8675 13.3551 66.0045 13.3591 66.1425 13.3631C66.2355 13.3651 66.3275 13.3692 66.4195 13.3712C66.4495 13.3732 66.4815 13.3731 66.5125 13.3751C66.5245 13.3751 66.5416 13.3751 66.5666 13.3771C66.6306 13.3791 66.6915 13.3851 66.7555 13.3871C66.6225 13.4591 66.5815 13.6491 66.6675 13.7801C66.9135 14.1571 67.3686 14.3251 67.7576 14.5201C68.2146 14.7481 68.6695 14.9791 69.1265 15.2091C70.0185 15.6581 70.9095 16.1051 71.8015 16.5551C72.2595 16.7851 72.5906 16.0671 72.1366 15.8341C71.2466 15.3831 70.3565 14.9301 69.4665 14.4791C69.0325 14.2581 68.5985 14.0381 68.1645 13.8171C67.8865 13.6741 67.6055 13.5031 67.3065 13.4151C67.7275 13.4361 68.1476 13.4621 68.5676 13.4891C69.8806 13.5751 71.1895 13.7191 72.5005 13.8251C72.8625 13.8521 73.2236 13.8881 73.5846 13.9291C73.5256 14.0641 73.4755 14.2041 73.4345 14.3451C72.9795 15.9191 73.8785 17.4601 75.0045 18.4991C75.1945 18.6771 75.3945 18.8431 75.5995 19.0031C76.1245 19.9091 76.8086 20.7311 77.3726 21.6141C77.9736 22.5551 78.4486 23.5711 78.7996 24.6321C79.5056 26.7731 79.6295 29.0301 79.2545 31.2471C79.1085 32.1121 78.8635 32.9582 78.6165 33.8022C78.1595 33.6592 77.6905 33.5561 77.2205 33.4931C76.9425 33.4561 76.6576 33.4291 76.3696 33.4111C76.4576 32.9111 76.4815 32.4051 76.5015 31.8991C76.5415 30.8291 76.4935 29.7561 76.3525 28.6961C76.0735 26.5921 75.4635 24.5361 74.4865 22.6511C72.6595 19.1291 69.7586 16.2351 66.2436 14.3991C65.4846 14.0031 64.6865 13.6471 63.8635 13.3601C64.1645 13.3521 64.4635 13.3481 64.7635 13.3461C65.0845 13.3451 65.4075 13.3471 65.7285 13.3531ZM55.5496 7.58514C56.3226 7.15914 57.2025 6.92313 58.0575 6.72213C58.3365 6.65713 58.6175 6.60114 58.8975 6.54214C58.9225 7.33114 58.7495 8.11815 58.5825 8.88815C58.4965 9.28515 58.3835 9.67315 58.2555 10.0561C58.1065 10.4991 57.8855 10.9231 57.7775 11.3781C56.6305 11.5581 55.4925 11.7821 54.3675 12.0501C54.2235 11.4251 54.0106 10.8121 53.7656 10.2281C53.6736 10.0091 53.5745 9.79415 53.4715 9.58215C53.9285 8.73415 54.6996 8.05414 55.5496 7.58514ZM40.6255 10.6501C39.8725 8.51314 39.9085 6.13813 40.7205 4.02313C40.9625 3.39413 41.2975 2.82214 41.5835 2.21414C41.7055 1.95614 41.8455 1.70813 41.9835 1.45813C42.3125 1.78013 42.7745 2.04813 43.1155 2.28213C43.6085 2.62013 44.0945 2.97214 44.5895 3.30914C45.5775 3.98914 46.5436 4.70415 47.4506 5.48715C49.0876 6.90315 50.5946 8.59014 51.4946 10.4951C51.7576 11.0541 51.9786 11.6321 52.1486 12.2251C52.1836 12.3501 52.2176 12.4751 52.2486 12.6001C52.2486 12.6041 52.2485 12.6061 52.2505 12.6121C49.5335 13.4031 46.8975 14.4501 44.3655 15.7391C42.7025 14.4451 41.3245 12.6321 40.6255 10.6501ZM35.9995 24.4761C36.4515 24.0761 36.9115 23.6851 37.3795 23.3061C37.5145 23.1971 37.6515 23.0891 37.7855 22.9801C39.3325 23.0131 40.8805 23.0621 42.4185 23.2181C44.3065 23.4091 46.1795 23.7901 47.9965 24.3351C51.6435 25.4291 55.0625 27.2551 57.9905 29.6891C58.8085 30.3691 59.5885 31.0951 60.3235 31.8631C60.6815 32.2361 61.0206 32.6291 61.3606 33.0171C61.7266 33.4351 62.0766 33.8451 62.6446 33.9551C62.7046 33.9671 62.7735 33.9531 62.8325 33.9221C62.9905 34.2351 63.1395 34.5551 63.2755 34.8791C63.5215 35.4631 63.7385 36.0671 63.9185 36.6841C63.5375 36.1901 63.1226 35.7231 62.6836 35.2821C60.9406 33.5241 58.8125 32.2081 56.6735 30.9891C52.2795 28.4811 47.5945 26.2961 42.5615 25.4931C41.1255 25.2641 39.6755 25.1512 38.2215 25.1902C37.4845 25.2112 36.7516 25.2661 36.0236 25.3851C35.5946 25.4551 35.1565 25.5221 34.7375 25.6451C34.7585 25.6251 34.7785 25.6061 34.7985 25.5861C35.2235 25.1751 35.5125 24.9051 35.9995 24.4761ZM38.1326 29.4801C38.1886 29.5211 38.2435 29.5621 38.2975 29.6051C38.3805 29.6751 38.4596 29.7501 38.5366 29.8261C38.5396 29.8301 38.5505 29.8401 38.5615 29.8531C38.5875 29.8861 38.6305 29.9391 38.6425 29.9551C38.7215 30.0551 38.7945 30.1581 38.8635 30.2661C38.9095 30.3381 39.0095 30.5531 38.9235 30.3621C38.9765 30.4811 39.0326 30.5951 39.0806 30.7161C39.1216 30.8201 39.1586 30.9251 39.1926 31.0321C39.1946 31.0361 39.1946 31.0421 39.1966 31.0481C38.2646 30.5011 37.3815 29.8621 36.5605 29.1591C36.1755 28.8291 35.6865 29.4271 36.0605 29.7641C36.9235 30.5431 37.8565 31.2251 38.8615 31.8071C39.0275 31.9031 39.1986 31.9961 39.3726 32.0861C39.3776 32.1561 39.3815 32.2251 39.3845 32.2951C39.3855 32.3611 39.3825 32.6431 39.3885 32.6041C39.3655 32.9851 39.3085 33.3681 39.2205 33.7411C38.9935 33.5161 38.6576 33.3311 38.4856 33.2211C37.9086 32.8541 37.3345 32.4851 36.7535 32.1251C35.5845 31.3981 34.4185 30.6701 33.2335 29.9691C32.8195 29.7231 32.3805 30.4101 32.7805 30.6861C33.9165 31.4651 35.0686 32.2151 36.2186 32.9711C36.7956 33.3481 37.3775 33.7171 37.9585 34.0881C38.1665 34.2231 38.5896 34.5351 38.9426 34.5801C38.8596 34.7751 38.7665 34.9651 38.6635 35.1501C38.6305 35.2111 38.4435 35.4941 38.5735 35.3081C38.5095 35.3981 38.4475 35.4902 38.3805 35.5782C38.2355 35.7692 38.0785 35.9451 37.9135 36.1171C37.9485 36.0761 37.7715 36.2441 37.7285 36.2791C37.7005 36.3031 37.6705 36.3261 37.6415 36.3491C37.2505 36.3121 36.8596 36.2831 36.4686 36.2571C36.3316 36.1101 36.1975 35.9621 36.0685 35.8101C35.1835 34.7711 34.4525 33.6151 33.8975 32.3691C33.6615 31.8361 32.8116 32.1501 33.0456 32.6911C33.5906 33.9491 34.2975 35.1341 35.1595 36.2011C34.3875 36.1801 33.6136 36.1931 32.8426 36.2321C32.8246 36.2141 32.8096 36.1971 32.7956 36.1811C32.4516 35.7771 32.2776 35.4741 32.1016 34.9951C31.7426 34.0151 31.7525 32.8642 32.0255 31.8022C32.1705 31.2342 32.4056 30.6911 32.6576 30.1631C32.6606 30.1531 32.6655 30.1471 32.6695 30.1401C32.7285 30.0811 32.7795 30.0151 32.8245 29.9431C33.3205 29.1521 34.4245 29.0971 35.3205 29.0661C35.5925 29.0581 35.8646 29.0501 36.1366 29.0481C36.4506 29.0461 36.5195 29.0481 36.7685 29.0721C36.9785 29.0911 37.3556 29.1641 37.4556 29.1931C37.5836 29.2281 37.9246 29.3631 38.1326 29.4801ZM38.1455 29.4851C38.2425 29.5421 38.1815 29.5091 38.1455 29.4851ZM35.0295 37.1731C34.9605 37.1651 34.8366 37.1531 34.8006 37.1501C34.6546 37.1321 34.5116 37.1051 34.3686 37.0761C34.3856 37.0761 34.4006 37.0761 34.4166 37.0761C34.8836 37.0861 35.3505 37.1051 35.8145 37.1311C35.6305 37.1561 35.4436 37.1721 35.2566 37.1761C35.2216 37.1751 35.0615 37.1711 35.0295 37.1731ZM32.8696 48.5271C32.6156 48.5311 32.3596 48.8611 32.5666 49.0931C34.6696 51.4561 37.1075 53.4091 39.9045 54.8941C42.0235 56.0171 44.3425 56.8321 46.7075 57.3141C46.6975 57.3141 46.6875 57.3141 46.6765 57.3141C45.9675 57.3571 45.2585 57.3921 44.5485 57.4081C43.5975 57.4281 42.6475 57.4201 41.6975 57.3791C41.7845 57.2541 41.7715 57.0631 41.6425 56.9651C41.3595 56.7521 41.0515 56.7361 40.7145 56.6621C40.3715 56.5841 40.0255 56.5251 39.6805 56.4591C39.0225 56.3321 38.3645 56.1781 37.7285 55.9711C36.4445 55.5531 35.2035 54.9442 34.0965 54.1642C31.7775 52.5312 30.0505 50.1601 29.1465 47.4741C28.8885 46.7031 28.6866 45.9081 28.5546 45.1071C28.5016 44.7891 28.4615 44.4681 28.4325 44.1461C29.5735 45.9031 31.0936 47.4001 32.8696 48.5271ZM21.6935 49.0381C21.1245 48.7511 20.5896 48.4131 20.1446 47.8991C20.0396 47.7781 19.9425 47.6531 19.8495 47.5261C20.3855 47.7921 20.9285 48.0471 21.4915 48.2451C21.5455 48.5131 21.6135 48.7781 21.6935 49.0381ZM21.5255 44.2881C21.2955 45.3371 21.2425 46.3991 21.3615 47.4341C20.9015 47.1231 20.4185 46.8481 19.9435 46.5611C19.6705 46.3971 19.3925 46.2391 19.1135 46.0841C18.9725 45.6541 18.8865 45.2031 18.8635 44.7401C18.7255 42.0721 20.4176 39.6721 22.4976 38.1721C23.6786 37.3211 25.0136 36.7641 26.2696 36.0491C26.2396 36.4161 26.2275 36.7831 26.2325 37.1521C25.0375 37.9161 24.0786 39.0411 23.2906 40.2111C22.4556 41.4481 21.8445 42.8291 21.5255 44.2881ZM22.8996 45.7261C23.0266 44.1871 23.5446 42.7751 24.2916 41.4331C24.8726 40.3921 25.6205 39.4781 26.3285 38.5291C26.3875 38.9841 26.4715 39.4391 26.5835 39.8941C26.8365 40.9171 27.2035 41.8961 27.6685 42.8161C27.5105 43.4841 27.5865 44.2831 27.6305 44.9491C27.6825 45.7281 27.8056 46.4981 27.9986 47.2561C28.3726 48.7251 28.9825 50.1511 29.8115 51.4221C31.3525 53.7891 33.6365 55.6581 36.2505 56.7291C34.8555 56.4501 33.4765 56.0811 32.1305 55.6201C29.7975 54.8191 27.4606 53.7961 25.5976 52.1411C23.7426 50.4971 22.6946 48.2281 22.8996 45.7261ZM31.5045 29.5441C31.1545 30.0541 30.8515 30.5931 30.6165 31.1671C30.1135 32.3921 29.8975 33.7311 30.1555 35.0401C30.2505 35.5171 30.3955 35.9851 30.5955 36.4291C29.7525 36.5481 28.9195 36.7301 28.0905 36.9211C28.1605 35.9351 28.3556 34.9701 28.6626 34.0931C29.3226 32.2101 30.3585 30.6181 31.5835 29.0971C31.5465 29.2351 31.5185 29.3841 31.5045 29.5441ZM2.21856 47.3411C2.22256 47.1651 2.22056 47.2941 2.21856 47.3411ZM154.768 36.4031C154.737 36.4581 154.704 36.5121 154.671 36.5671C154.666 36.5751 154.663 36.5791 154.66 36.5851C154.654 36.5951 154.646 36.6051 154.637 36.6201C154.542 36.7591 154.445 36.8951 154.342 37.0301C153.956 37.5381 153.519 38.0031 153.059 38.4441C153.027 38.4771 152.993 38.5091 152.959 38.5421C152.935 38.5641 152.885 38.6101 152.876 38.6181C152.765 38.7201 152.654 38.8191 152.543 38.9191C152.304 39.1321 152.063 39.3411 151.819 39.5481C151.335 39.9641 150.846 40.3741 150.354 40.7811C149.37 41.5911 148.369 42.3831 147.354 43.1541C143.343 46.2051 139.099 48.9451 134.674 51.3551C134.557 51.4191 134.44 51.4821 134.322 51.5461C134.302 51.5561 134.099 51.6651 134.065 51.6831C133.784 51.8331 133.502 51.9821 133.217 52.1281C132.652 52.4231 132.083 52.7121 131.512 52.9951C130.389 53.5521 129.254 54.0891 128.111 54.6041C125.804 55.6431 123.459 56.5981 121.081 57.4631C118.704 58.3301 116.294 59.1081 113.858 59.7931C112.651 60.1351 111.437 60.4531 110.218 60.7481C109.494 60.9241 109.279 60.9751 108.561 61.1331C107.959 61.2661 107.356 61.3931 106.751 61.5161C104.269 62.0181 101.768 62.3831 99.2656 62.7661C98.0256 62.9561 96.7776 63.0941 95.5326 63.2451C94.3756 63.3841 93.2065 63.4911 92.0555 63.6711C89.7585 63.8101 87.4676 64.1071 85.1836 64.3761C81.8646 64.7671 78.5475 65.1791 75.2255 65.5461C68.5875 66.2821 61.9355 66.8901 55.2675 67.2471C48.7455 67.5951 42.1786 67.7432 35.6576 67.4312C29.6286 67.1442 23.4776 66.3801 17.8216 64.1711C15.3966 63.2261 13.1025 62.0031 10.9875 60.5501C9.90854 59.8081 8.87956 58.9951 7.91656 58.1091C7.46556 57.6951 7.02755 57.2671 6.61755 56.8121C6.16455 56.3061 5.66655 55.8141 5.24255 55.2851C4.85055 54.7991 4.47954 54.2991 4.08254 53.8141C3.99854 53.7121 3.89655 53.6421 3.78655 53.5971C3.38155 52.8551 3.05855 52.0811 2.76955 51.1971C2.71155 51.0171 2.65756 50.8381 2.60656 50.6561C2.57756 50.5481 2.54853 50.4371 2.52053 50.3301C2.51653 50.3161 2.50653 50.2731 2.49953 50.2441C2.41353 49.8551 2.34756 49.4631 2.30056 49.0681C2.25556 48.6951 2.22856 48.3201 2.21856 47.9451C2.21356 47.7571 2.21356 47.5681 2.21856 47.3811C2.21856 47.3671 2.21856 47.3541 2.21856 47.3421C2.22656 47.1921 2.23654 47.0411 2.25054 46.8911C2.32054 46.1351 2.46456 45.3851 2.67056 44.6551C2.69556 44.5671 2.72155 44.4771 2.74755 44.3891C2.75655 44.3661 2.77655 44.3032 2.78255 44.2892C2.84655 44.1112 2.90655 43.9321 2.97555 43.7541C3.12555 43.3651 3.29454 42.9841 3.47854 42.6091C3.64654 42.2671 3.82855 41.9331 4.02255 41.6051C4.21655 41.2731 4.32855 41.1052 4.61355 40.7032C5.07155 40.0602 5.57555 39.4511 6.11355 38.8751C6.35155 38.6231 6.59653 38.3771 6.84853 38.1371C6.88353 38.1041 7.00456 37.9921 7.00756 37.9891C7.06456 37.9381 7.12256 37.8871 7.17956 37.8371C7.35356 37.6851 7.52854 37.5341 7.70654 37.3901C8.39054 36.8291 9.10955 36.3141 9.85455 35.8371C11.3605 34.8801 12.8536 34.1571 14.5666 33.4641C16.3046 32.7631 18.0885 32.1811 19.8845 31.6481C22.8915 30.7551 25.9796 30.0111 28.9546 28.9801C28.2596 30.0171 27.6485 31.1071 27.1815 32.2611C26.8015 33.1961 26.5325 34.1521 26.3785 35.1161C26.3755 35.1161 26.3716 35.1161 26.3686 35.1161C24.7716 35.3251 23.2696 36.0792 21.9506 36.9832C20.6746 37.8562 19.5795 38.9581 18.7815 40.2861C17.8785 41.7921 17.4456 43.5871 17.6576 45.2921C16.2896 44.5521 14.9216 43.8121 13.5536 43.0711C12.9966 42.7701 12.5855 43.6631 13.1395 43.9601C14.5345 44.7141 15.9285 45.4641 17.3245 46.2161C17.5285 46.3271 17.7336 46.4371 17.9386 46.5461C18.1666 47.2301 18.5125 47.8802 18.9915 48.4701C19.7715 49.4351 20.9555 50.3671 22.2375 50.4131C22.5685 51.0771 22.9845 51.7061 23.4885 52.2841C25.2395 54.2881 27.6266 55.6121 30.0756 56.5771C32.8826 57.6841 35.8355 58.4311 38.8325 58.7801C40.5345 58.9771 42.2475 59.0421 43.9605 58.9711C45.6725 58.9011 47.3855 58.6862 48.9915 58.0782C49.1845 58.0062 49.2615 57.8551 49.2515 57.7051C50.0015 57.7831 50.7595 57.8381 51.5125 57.8221C51.9415 57.8141 52.3656 57.7951 52.7916 57.7501C53.0226 57.7251 53.2575 57.7091 53.4875 57.6801C53.7295 57.6451 53.9285 57.5452 54.1545 57.4532C54.5065 57.3122 54.4475 56.8101 54.0865 56.7301C53.8925 56.6871 53.7035 56.6191 53.5045 56.6071C53.3305 56.5991 53.1515 56.6131 52.9775 56.6111C52.5855 56.6071 52.1895 56.5841 51.7965 56.5661C51.0595 56.5311 50.3195 56.4961 49.5855 56.4231C48.0755 56.2751 46.5736 55.9951 45.1106 55.6011C42.2516 54.8311 39.4726 53.5561 37.0286 51.8881C35.6516 50.9491 34.3476 49.9101 33.1786 48.7181C34.1116 49.2781 35.1076 49.7401 36.1536 50.0891C36.7136 50.2731 37.2936 50.4021 37.8726 50.5111C38.3176 50.5951 38.5675 49.8881 38.1175 49.7321C34.7435 48.5581 31.5955 46.4901 29.7255 43.4781C32.3655 43.6671 35.0196 44.1261 37.5756 44.7751C40.4496 45.5021 43.2436 46.4741 45.9206 47.7521C46.6566 48.1021 47.3866 48.4651 48.1056 48.8481C48.8046 49.2231 49.5595 49.7641 50.3675 49.7831C50.5995 49.7891 50.6486 49.5101 50.5636 49.3511C50.2146 48.7121 49.4106 48.3311 48.7906 47.9881C48.1526 47.6351 47.5075 47.2911 46.8495 46.9781C45.4955 46.3321 44.1036 45.7572 42.6886 45.2592C39.8506 44.2552 36.9276 43.5501 33.9426 43.1731C32.4326 42.9821 30.9165 42.9231 29.3955 42.9061C29.0385 42.2541 28.7406 41.5581 28.5106 40.8221C28.1726 39.7361 28.0325 38.5481 28.0705 37.3731C29.0265 37.2561 29.9966 37.1741 30.9686 37.1251C31.2796 37.6151 31.6676 38.0531 32.1406 38.4061C33.1706 39.1761 34.4066 39.5172 35.6836 39.4962C36.5376 39.4822 37.3515 39.2732 38.0905 38.9142C38.2645 38.9772 38.4435 38.9961 38.6215 38.9471C38.7505 38.9121 38.8276 38.7572 38.8166 38.6342C38.8126 38.5892 38.8065 38.5501 38.7975 38.5111C39.2025 38.2431 39.5765 37.9311 39.9145 37.5771C40.2855 37.6401 40.6565 37.7061 41.0265 37.7781C45.3495 38.6341 49.6055 40.2491 53.3325 42.6161C54.3655 43.2721 55.3555 43.9991 56.3095 44.7641C57.2995 45.5591 58.1935 46.4571 59.1675 47.2641C59.7025 47.7091 60.5846 46.9551 60.0886 46.4051C59.3096 45.5441 58.3805 44.8131 57.4575 44.1121C56.5515 43.4221 55.6095 42.7802 54.6435 42.1772C52.7105 40.9702 50.6986 39.9001 48.5886 39.0341C46.0156 37.9791 43.3326 37.2101 40.5976 36.7371C40.9496 36.2291 41.2335 35.6741 41.4365 35.0851C41.6665 34.4151 41.8215 33.7101 41.8795 32.9991C41.9405 33.0131 42.0005 33.0241 42.0615 33.0341C42.3025 33.0791 42.3946 32.7471 42.1876 32.6371C42.0936 32.5861 41.9996 32.5391 41.9036 32.4921C41.9086 32.1851 41.8925 31.8812 41.8575 31.5782C43.8705 31.7662 45.8626 32.0781 47.8136 32.6441C49.0586 33.0051 50.2756 33.4741 51.4466 34.0311C52.0346 34.3101 52.6095 34.6111 53.1735 34.9351C53.4645 35.1011 53.7475 35.2791 54.0395 35.4431C54.3315 35.6071 54.6135 35.6851 54.9355 35.7651C55.1995 35.8301 55.3816 35.4951 55.2346 35.2901C54.6326 34.4501 53.6266 33.9871 52.7226 33.5201C51.7916 33.0401 50.8295 32.6181 49.8465 32.2561C47.8565 31.5271 45.7796 31.0471 43.6666 30.8521C43.0206 30.7931 42.3685 30.7761 41.7195 30.7951C41.4375 29.5691 40.8555 28.3501 39.7855 27.6351C38.3505 26.6741 36.6305 26.7932 34.9885 26.9832C34.2665 27.0672 33.5026 27.2451 32.8736 27.5831C33.2616 27.1491 33.6596 26.7241 34.0666 26.3101C34.0826 26.3161 34.0985 26.3221 34.1175 26.3221C34.7125 26.3771 35.3015 26.2711 35.8955 26.2281C36.5155 26.1831 37.1375 26.1561 37.7585 26.1461C38.9805 26.1261 40.2095 26.2051 41.4215 26.3591C43.8525 26.6661 46.2245 27.3161 48.5085 28.1951C50.7815 29.0701 52.9685 30.1561 55.0965 31.3381C57.1486 32.4791 59.2035 33.6681 60.9825 35.2131C61.9305 36.0371 62.7756 36.9771 63.4596 38.0331C63.7926 38.5471 64.0785 39.0841 64.3145 39.6501C64.3695 39.7851 64.4185 39.9201 64.4665 40.0561C64.4875 40.8291 64.4315 41.5991 64.2835 42.3591C64.1995 42.2201 64.1135 42.0881 64.0355 41.9611C63.6415 41.3321 63.1826 40.7421 62.6786 40.1971C61.6796 39.1171 60.4936 38.2341 59.1626 37.6011C58.6586 37.3611 58.3015 38.1362 58.7985 38.3842C60.0075 38.9822 61.1055 39.8121 61.9995 40.8251C62.4405 41.3251 62.8305 41.8661 63.1675 42.4421C63.4105 42.8581 63.5886 43.4011 63.8736 43.8211C63.4536 44.9621 62.8106 46.0421 62.0066 46.9521C61.5556 47.4641 61.0395 47.9131 60.4835 48.3071C60.1335 48.5571 59.7655 48.7722 59.4025 48.9962C59.3215 48.8982 59.1945 48.8401 59.0255 48.8591C58.6815 48.9001 58.3376 48.9001 57.9976 48.9621C57.6796 49.0191 57.3585 49.0731 57.0395 49.1221C56.8595 49.1511 56.6805 49.1791 56.5015 49.2081C56.4955 49.1981 56.4895 49.1901 56.4835 49.1831C56.0045 48.5721 55.2335 48.1011 54.6085 47.6461C53.9365 47.1581 53.2456 46.6971 52.5406 46.2611C51.1576 45.4021 49.6645 44.7021 48.1595 44.0851C47.6885 43.8921 47.3606 44.5871 47.8256 44.8061C49.2716 45.4821 50.6366 46.2851 51.9766 47.1541C52.6336 47.5781 53.2746 48.0291 53.8996 48.5021C54.2126 48.7381 54.5195 48.9821 54.8235 49.2291C54.9045 49.2951 54.9836 49.3641 55.0626 49.4341C55.0556 49.4341 55.0486 49.4361 55.0416 49.4361C53.7486 49.6251 52.4535 49.7681 51.1465 49.8231C49.8655 49.8781 48.5835 49.8501 47.3025 49.7781C45.9805 49.7021 44.5675 49.4691 43.2585 49.7291C43.0335 49.7741 42.8395 50.1141 43.0905 50.2721C44.2445 51.0021 45.6945 51.1861 47.0315 51.3011C48.3995 51.4181 49.7795 51.4301 51.1505 51.3671C52.4985 51.3061 53.8525 51.1791 55.1815 50.9471C55.8835 50.8261 56.5925 50.6701 57.2805 50.4781C57.5925 50.3901 57.9015 50.2921 58.2105 50.1931C58.3275 50.1561 58.4405 50.1111 58.5515 50.0621C58.6385 50.2401 58.8245 50.3771 59.0555 50.3751C59.1825 50.3751 59.3095 50.3651 59.4355 50.3501C59.9245 50.6451 60.4735 50.7991 61.0225 50.9631C61.4175 51.0801 61.8125 51.1841 62.2125 51.2741C61.8145 51.3251 61.4156 51.3871 61.0196 51.4461C60.0546 51.5891 59.0856 51.7101 58.1146 51.8001C56.1756 51.9761 54.2215 52.0521 52.2755 52.0031C51.8335 51.9931 51.7976 52.7571 52.2446 52.7901C54.2086 52.9311 56.1715 52.9581 58.1385 52.8271C59.1125 52.7611 60.0826 52.6671 61.0496 52.5321C62.0146 52.3971 63.0435 52.2371 63.9215 51.7981C64.0065 51.7571 64.0675 51.6711 64.0955 51.5791C64.9795 51.6811 65.8675 51.7311 66.7585 51.7391C69.3235 51.7621 71.9315 51.4072 74.3795 50.6342C74.5175 50.5892 74.6546 50.5461 74.7916 50.4991C74.7896 50.6161 74.8416 50.7371 74.9596 50.8041C76.2436 51.5311 77.6115 51.9971 79.0835 52.1651C79.2295 52.1831 79.3765 52.1961 79.5225 52.2081C79.4405 52.3131 79.4386 52.4891 79.5926 52.5711C81.6246 53.6631 83.7415 54.5321 86.0005 55.0201C88.2435 55.5081 90.5796 55.7192 92.8726 55.5652C93.5316 55.5182 94.1926 55.4581 94.8436 55.3361C95.5066 55.2151 96.0965 55.0331 96.7015 54.7361C96.9245 54.6251 96.8476 54.3301 96.6056 54.3241C96.0416 54.3061 95.5045 54.3181 94.9455 54.3731C94.3935 54.4301 93.8426 54.4901 93.2906 54.5331C92.1886 54.6151 91.0726 54.6441 89.9686 54.5991C87.7366 54.5111 85.4995 54.1201 83.3615 53.4761C82.2115 53.1281 81.0835 52.7441 79.9925 52.2421C81.1655 52.3061 82.3426 52.2421 83.4976 52.0271C84.4246 51.8551 85.3315 51.5991 86.2075 51.2691C88.4535 52.5721 91.0295 53.2511 93.6085 53.4921C96.5095 53.7631 99.4765 53.4781 102.246 52.5511C103.032 52.2851 103.813 51.9791 104.546 51.5921C104.9 51.4031 105.269 51.2231 105.589 50.9811C105.9 50.7451 106.253 50.4851 106.45 50.1471C106.55 49.9731 106.373 49.7881 106.202 49.7951C105.884 49.8091 105.588 49.9531 105.285 50.0451C104.926 50.1531 104.591 50.3201 104.245 50.4651C103.626 50.7231 103.003 50.9771 102.368 51.1971C101.071 51.6441 99.7445 51.9921 98.3875 52.1951C95.6435 52.6011 92.8615 52.5471 90.1545 51.9181C89.0605 51.6641 87.9915 51.3461 86.9365 50.9751C87.9515 50.5301 88.9166 49.9752 89.8126 49.3152C89.8516 49.3702 89.9106 49.4151 89.9946 49.4361C94.6756 50.6041 99.7306 50.0811 104.05 47.9161C105.25 47.3141 106.628 46.6451 107.405 45.5121C109.233 45.1901 111.04 44.6921 112.737 43.9361C115.948 42.5041 118.757 40.0651 120.215 36.8191C120.593 35.9791 120.875 35.0901 121.013 34.1801C121.083 33.7071 121.142 33.2051 121.116 32.7271C121.111 32.6101 121.098 32.4951 121.083 32.3791C121.423 32.2971 121.757 32.1991 122.084 32.0861C122.36 32.4201 122.667 32.7321 122.913 33.0941C123.238 33.5721 123.492 34.0901 123.684 34.6351C124.063 35.7091 124.2 36.8911 124.082 38.0261C123.837 40.3911 122.518 42.5381 120.73 44.0691C120.217 44.5081 119.672 44.9111 119.103 45.2741C118.819 45.4561 118.532 45.6311 118.249 45.8111C117.926 46.0161 117.663 46.2041 117.387 46.4671C117.137 46.7031 117.422 47.0631 117.7 47.0571C118.381 47.0471 119.009 46.7661 119.608 46.4541C120.222 46.1341 120.812 45.7551 121.356 45.3251C122.451 44.4601 123.379 43.4361 124.092 42.2351C125.449 39.9501 125.727 37.1121 124.763 34.6241C124.508 33.9641 124.164 33.3272 123.74 32.7592C123.49 32.4272 123.19 32.0641 122.847 31.7731C122.855 31.7711 122.864 31.7651 122.872 31.7611C124.194 32.2361 125.435 32.9131 126.508 33.8491C128.166 35.2981 129.356 37.2491 129.84 39.4021C129.979 40.0211 130.07 40.6521 130.104 41.2871C130.139 41.9431 130.175 42.5841 130.365 43.2151C130.461 43.5311 130.876 43.4791 131.013 43.2391C131.636 42.1631 131.447 40.7311 131.202 39.5611C130.94 38.3091 130.474 37.1181 129.829 36.0141C128.633 33.9671 126.756 32.3831 124.574 31.4711C124.333 31.3691 124.088 31.2801 123.841 31.1981C124.003 31.0811 124.159 30.9561 124.309 30.8231C124.344 30.8501 124.377 30.8801 124.412 30.9051C124.641 31.0901 124.87 31.2781 125.11 31.4481C125.395 31.6511 125.605 31.7681 125.943 31.8541C126.178 31.9151 126.411 31.6331 126.307 31.4131C126.159 31.0931 126.014 30.9191 125.754 30.6711C125.541 30.4681 125.316 30.2761 125.092 30.0851C125.071 30.0671 125.05 30.0501 125.029 30.0341C125.145 29.8741 125.256 29.7061 125.355 29.5301C129.544 30.5201 132.922 33.7801 133.953 38.0161C134.112 38.6681 134.199 39.3271 134.291 39.9891C134.336 40.3171 134.384 40.6471 134.45 40.9711C134.512 41.2681 134.568 41.6271 134.736 41.8831C134.831 42.0271 135.046 42.0221 135.152 41.8971C135.336 41.6841 135.381 41.4011 135.465 41.1391C135.568 40.8131 135.567 40.4551 135.577 40.1181C135.594 39.4661 135.47 38.7921 135.318 38.1591C135.015 36.8991 134.504 35.6961 133.836 34.5891C132.566 32.4851 130.642 30.8041 128.413 29.7781C127.533 29.3741 126.606 29.0732 125.656 28.8842C126.071 27.7752 126.02 26.5301 125.427 25.4851C125.409 25.4561 125.391 25.4271 125.373 25.3971C129.251 25.8211 132.856 28.2211 134.641 31.7081C134.909 32.2311 135.145 32.7631 135.375 33.3041C135.593 33.8141 135.733 34.4431 136.183 34.8101C136.313 34.9151 136.506 34.8691 136.58 34.7181C136.828 34.2181 136.663 33.6321 136.531 33.1241C136.388 32.5751 136.179 32.0501 135.934 31.5381C135.434 30.4931 134.756 29.5201 133.976 28.6651C132.403 26.9361 130.398 25.6712 128.156 25.0092C127.023 24.6732 125.827 24.5501 124.646 24.5561C124.046 24.0481 123.297 23.7241 122.534 23.5051C121.605 23.2391 120.602 23.1571 119.617 23.1941C119.511 22.9501 119.352 22.7212 119.167 22.4832C119.034 22.3112 118.9 22.1431 118.762 21.9751C119.397 22.0141 120.03 22.0751 120.663 22.1451C121.953 22.2861 123.247 22.4981 124.515 22.7821C127.003 23.3391 129.412 24.2291 131.658 25.4381C133.62 26.4931 135.502 27.8851 136.844 29.6291C137.554 30.5551 138.033 31.3851 138.388 32.4861C138.423 32.5951 138.457 32.7091 138.488 32.8201C138.5 32.8611 138.545 33.0581 138.543 33.0431C138.593 33.2831 138.632 33.5251 138.659 33.7701C138.686 34.0021 138.703 34.2351 138.711 34.4691C138.715 34.5841 138.716 34.7011 138.714 34.8191C138.714 34.8331 138.713 34.8911 138.712 34.9301C138.71 34.9691 138.706 35.0281 138.706 35.0371C138.667 35.6001 138.567 36.1561 138.43 36.7011C138.419 36.7501 138.407 36.7971 138.394 36.8441C138.395 36.8401 138.361 36.9611 138.347 37.0061C138.335 37.0431 138.319 37.0961 138.315 37.1061C138.288 37.1841 138.26 37.2601 138.23 37.3361C138.137 37.5781 138.031 37.8141 137.917 38.0471C137.86 38.1621 137.8 38.2761 137.737 38.3871C137.712 38.4321 137.684 38.4771 137.658 38.5201C137.644 38.5411 137.604 38.6061 137.588 38.6271C137.434 38.8521 137.271 39.0681 137.091 39.2741C136.737 39.6741 136.428 40.0981 136.048 40.4811C135.732 40.8011 136.063 41.4711 136.52 41.3741C137.067 41.2551 137.601 41.0441 138.081 40.7491C138.536 40.4681 138.936 39.9991 139.255 39.5731C139.94 38.6551 140.425 37.5691 140.641 36.4421C141.095 34.0811 140.572 31.7211 139.368 29.6651C138.052 27.4211 135.97 25.7391 133.773 24.4071C131.431 22.9851 128.829 21.9461 126.17 21.2921C124.669 20.9231 123.144 20.6711 121.6 20.5951C120.79 20.5541 119.986 20.5401 119.176 20.5811C118.81 20.6011 118.437 20.6081 118.076 20.6831C117.945 20.7081 117.817 20.7381 117.687 20.7671C117.219 20.2731 116.734 19.7941 116.228 19.3391C116.195 19.3101 116.162 19.2821 116.128 19.2531C116.907 19.2301 117.687 19.2201 118.466 19.2121C119.326 19.2061 120.186 19.1941 121.046 19.2081C121.453 19.2161 121.861 19.2261 122.267 19.2371C122.651 19.2511 123.091 19.2681 123.457 19.2821C126.709 19.4071 130.22 19.8071 133.523 20.4011C135.169 20.6981 136.804 21.0511 138.424 21.4601C139.257 21.6711 140.085 21.8961 140.91 22.1361C141.299 22.2491 141.688 22.3661 142.075 22.4861C142.082 22.4901 142.245 22.5411 142.313 22.5621C142.381 22.5841 142.538 22.6342 142.544 22.6342C142.759 22.7042 142.972 22.7731 143.185 22.8451C144.766 23.3701 146.332 23.9451 147.869 24.5891C148.597 24.8941 149.317 25.2221 150.017 25.5871C150.347 25.7591 150.672 25.9401 150.991 26.1321C151.016 26.1481 151.112 26.2061 151.141 26.2241C151.192 26.2571 151.243 26.2891 151.293 26.3221C151.464 26.4351 151.633 26.5521 151.799 26.6731C152.164 26.9391 152.515 27.2221 152.848 27.5251C152.999 27.6641 153.147 27.8082 153.291 27.9532C153.307 27.9712 153.32 27.9821 153.332 27.9941C153.407 28.0781 153.481 28.1621 153.553 28.2481C153.828 28.5741 154.076 28.9221 154.299 29.2851C154.34 29.3491 154.378 29.4181 154.418 29.4841C154.435 29.5111 154.447 29.5331 154.458 29.5501C154.465 29.5641 154.475 29.5831 154.485 29.6051C154.572 29.7791 154.654 29.9552 154.73 30.1342C154.885 30.5012 155.013 30.8801 155.11 31.2691C155.116 31.2961 155.124 31.3291 155.126 31.3471C155.144 31.4581 155.166 31.5721 155.183 31.6831C155.214 31.8901 155.244 32.0951 155.261 32.3041C155.28 32.5071 155.286 32.7101 155.286 32.9151C155.285 32.9211 155.285 32.9271 155.284 32.9351C155.276 33.0481 155.269 33.1621 155.259 33.2731C155.234 33.5251 155.218 33.7711 155.224 34.0251C155.225 34.0461 155.225 34.0641 155.225 34.0801C155.224 34.0881 155.222 34.1031 155.22 34.1251C155.208 34.2561 155.191 34.3871 155.17 34.5161C155.136 34.7461 155.195 34.9611 155.312 35.1391C155.295 35.1961 155.277 35.2521 155.261 35.3071C155.252 35.3341 155.248 35.3501 155.245 35.3601C155.213 35.4541 155.179 35.5461 155.143 35.6371C155.032 35.9001 154.908 36.1551 154.768 36.4031Z" fill="currentColor"/>

<path fill-rule="evenodd" clip-rule="evenodd" d="M31.7876 62.6502C30.9506 62.5092 30.0926 62.5432 29.2466 62.5312C28.4106 62.5212 27.5756 62.4802 26.7406 62.4282C25.0456 62.3202 23.3566 62.0842 21.6956 61.7272C18.3786 61.0122 15.1556 59.8582 12.1616 58.2582C10.4656 57.3542 8.8856 56.2832 7.3956 55.0692C7.1376 54.8582 6.81162 55.2532 7.06662 55.4652C9.69462 57.6902 12.6736 59.6272 15.8406 60.9852C19.0476 62.3622 22.4476 63.2452 25.9226 63.5812C26.9016 63.6772 27.8866 63.7222 28.8706 63.7062C29.8676 63.6902 30.8976 63.6612 31.8506 63.3372C32.1876 63.2202 32.1286 62.7062 31.7876 62.6502Z" fill="currentColor"/>

<path fill-rule="evenodd" clip-rule="evenodd" d="M36.6027 64.3121C36.7897 64.2631 36.5627 64.3021 36.4997 64.3041C36.4717 64.3081 36.4437 64.3101 36.4177 64.3101C36.4157 64.3101 36.3927 64.3081 36.3467 64.3081C36.2457 64.2981 36.2328 64.2941 36.1238 64.2341C35.8778 64.0911 35.5367 64.2481 35.4247 64.4881C35.3027 64.7521 35.4237 65.0621 35.6807 65.1871C36.0777 65.3821 36.6627 65.3941 36.9617 65.0351C36.9927 65.0081 37.0248 64.9761 37.0548 64.9451C37.1768 64.8181 37.1697 64.5911 37.0717 64.4551C36.9607 64.3001 36.7777 64.2671 36.6027 64.3121Z" fill="currentColor"/>

<path fill-rule="evenodd" clip-rule="evenodd" d="M126.269 53.4072C125.56 53.4852 124.885 53.7202 124.198 53.9072C123.493 54.1002 122.784 54.2762 122.078 54.4662C120.669 54.8452 119.264 55.2342 117.854 55.6162C115.043 56.3822 112.219 57.1082 109.385 57.7822C103.746 59.1242 98.0516 60.2762 92.3336 61.2202C89.0976 61.7532 85.8586 62.3022 82.6036 62.6892C82.1726 62.7402 82.2326 63.4042 82.6666 63.3612C85.5876 63.0642 88.5146 62.8032 91.4216 62.3942C94.3056 61.9882 97.1806 61.5272 100.045 61.0072C105.803 59.9642 111.525 58.6342 117.157 57.0482C118.745 56.6032 120.334 56.1532 121.898 55.6282C122.656 55.3742 123.413 55.1182 124.165 54.8452C124.942 54.5602 125.744 54.3412 126.468 53.9372C126.728 53.7902 126.54 53.3762 126.269 53.4072Z" fill="currentColor"/>

<path fill-rule="evenodd" clip-rule="evenodd" d="M131.064 50.9431C131.003 50.9511 130.943 50.9701 130.886 50.9901C130.934 50.9961 130.919 51.0021 130.842 51.0111C130.809 51.0151 130.777 51.0251 130.745 51.0361C130.526 51.1101 130.323 51.2841 130.133 51.4131C129.882 51.5811 129.813 51.9771 130 52.2161C130.185 52.4501 130.553 52.5501 130.804 52.3491C130.978 52.2101 131.188 52.0761 131.331 51.9041C131.486 51.7191 131.691 51.4061 131.495 51.1331C131.405 51.0071 131.218 50.9211 131.064 50.9431Z" fill="currentColor"/>

<path fill-rule="evenodd" clip-rule="evenodd" d="M76.8834 39.7531C75.9194 38.8901 74.9635 38.0191 74.0075 37.1501C73.5375 36.7241 72.9194 37.4781 73.3814 37.9061C74.3124 38.7671 75.2444 39.6292 76.1694 40.5002C76.6314 40.9362 77.0944 41.3711 77.5554 41.8071C77.9604 42.1901 78.3814 42.7622 79.0064 42.6592C79.1184 42.6412 79.2464 42.5561 79.2564 42.4291C79.3044 41.7921 78.7855 41.4541 78.3565 41.0711C77.8655 40.6301 77.3744 40.1931 76.8834 39.7531Z" fill="currentColor"/>

<path fill-rule="evenodd" clip-rule="evenodd" d="M10.4065 50.3252C13.2915 51.6712 16.1765 53.0182 19.0605 54.3642C20.5025 55.0362 21.9455 55.7102 23.3875 56.3812C24.1085 56.7192 24.8265 57.0612 25.5515 57.3912C26.2525 57.7092 26.9575 58.0732 27.7235 58.1902C27.9875 58.2332 28.1405 57.8992 27.9395 57.7232C27.3555 57.2152 26.6245 56.9092 25.9295 56.5782C25.2105 56.2362 24.4865 55.9062 23.7645 55.5702C22.3205 54.9002 20.8775 54.2302 19.4345 53.5602C16.5465 52.2182 13.6595 50.8782 10.7725 49.5372C10.2645 49.3022 9.89947 50.0892 10.4065 50.3252Z" fill="currentColor"/>

<path fill-rule="evenodd" clip-rule="evenodd" d="M13.1995 48.2432C17.0175 50.9422 21.0285 53.3702 25.1965 55.4892C25.7685 55.7822 26.3475 56.0612 26.9285 56.3352C27.2415 56.4802 27.5574 56.6162 27.8744 56.7492C28.0224 56.8122 28.1715 56.8782 28.3255 56.9232C28.4915 56.9702 28.6534 56.9582 28.8224 56.9862C29.0734 57.0312 29.2285 56.7012 29.0315 56.5392C28.8195 56.3652 28.6664 56.1992 28.4214 56.0642C28.1604 55.9192 27.8935 55.7852 27.6275 55.6482C27.1155 55.3882 26.6024 55.1302 26.0894 54.8752C25.0634 54.3632 24.0464 53.8302 23.0384 53.2812C20.9994 52.1662 18.9995 50.9802 17.0495 49.7182C15.9495 49.0072 14.8674 48.2752 13.7974 47.5212C13.3074 47.1732 12.7055 47.8942 13.1995 48.2432Z" fill="currentColor"/>
</svg>
