<svg width="137" height="111" viewBox="0 0 137 111" fill="currentColor" xmlns="http://www.w3.org/2000/svg">

<path fill-rule="evenodd" clip-rule="evenodd" d="M85.2785 39.4161C86.1825 40.3201 87.5375 41.449 88.8925 41.675C89.5705 41.449 90.3605 41.9011 90.5865 42.5791C90.9255 43.3701 90.4735 44.273 89.6825 44.499C86.9715 45.177 84.3745 42.8051 82.6805 40.9981C82.3415 40.2071 82.5675 39.304 83.2455 38.852C84.0365 38.513 84.9395 38.7391 85.2785 39.4161ZM96.4595 21.3461C96.0075 22.4751 96.2335 21.9111 95.7815 23.1531C95.5555 23.4921 95.2165 23.492 94.8775 23.379C94.5385 23.153 94.4255 22.7011 94.6515 22.4751C94.9905 21.4591 94.7645 22.023 95.3295 20.668C95.5555 20.329 95.8945 20.3291 96.2335 20.4421C96.5725 20.6681 96.6855 21.1201 96.4595 21.3461ZM30.3895 98.033C30.1635 98.259 30.0505 98.485 29.9375 98.711C29.8245 99.276 29.8245 99.7271 29.9375 100.179L30.0505 100.292C34.5685 101.196 39.4245 101.76 44.2815 101.986C43.6035 100.066 44.1685 97.4681 44.9595 95.7741C45.1855 95.4351 45.6375 95.322 45.8635 95.548C46.2025 95.774 46.3155 96.113 46.0895 96.452C45.9765 96.678 45.8635 96.9041 45.7505 97.2431C45.2985 98.5981 44.9595 100.857 45.7505 102.099H46.0895C46.6545 102.099 47.1055 102.099 47.5575 102.099C46.8795 100.857 47.2185 98.485 47.3315 97.581C47.4445 97.242 47.7835 97.016 48.1225 97.129C48.4615 97.242 48.6875 97.5811 48.6875 97.9201C48.5745 98.4851 48.4615 99.0491 48.4615 99.6141C48.3485 100.066 48.4615 100.518 48.5745 101.082C48.6875 101.308 48.8005 101.534 49.0265 101.873C49.1395 101.873 49.2525 101.986 49.3655 102.212C49.7045 102.212 50.0435 102.212 50.3815 102.212C49.8165 100.97 49.3655 99.953 50.1555 98.598C50.2685 98.259 50.7205 98.1461 51.0595 98.3721C51.2855 98.4851 51.3985 98.937 51.2855 99.276C50.7205 100.18 51.3985 101.196 51.8505 102.212C66.4195 102.099 81.3285 99.3881 93.2995 94.4191C93.2995 92.9511 92.9605 91.483 92.1705 90.24C91.8315 89.675 91.4925 89.224 91.0415 88.659C90.8155 88.433 90.7025 88.0941 91.0415 87.7551C91.2675 87.5291 91.6065 87.5291 91.9455 87.7551C93.6395 89.5621 94.5435 91.595 94.6565 93.854C96.6895 92.95 98.6095 92.0471 100.53 91.0311C105.951 87.9821 110.808 84.819 115.325 81.318L115.551 81.2051C115.438 79.9631 114.986 78.833 114.309 77.93C114.083 77.478 113.744 77.139 113.293 76.801C113.067 76.575 112.954 76.236 113.067 75.897C113.293 75.558 113.745 75.445 113.971 75.671C115.439 76.913 116.343 78.494 116.682 80.189C117.247 79.737 117.811 79.2851 118.376 78.8341C117.924 77.8181 117.134 76.6881 116.795 76.1231C116.569 75.8971 116.682 75.445 116.908 75.219C117.247 74.993 117.586 75.106 117.812 75.332C118.377 76.123 118.941 77.026 119.393 77.93C123.572 74.203 127.412 70.1371 131.026 65.2811L131.478 64.716C133.511 59.634 134.527 54.438 133.624 49.469C132.946 45.742 131.93 42.354 130.688 39.53C130.462 39.191 130.123 38.8521 129.672 38.5141C129.333 38.1751 128.994 37.949 128.768 37.723C128.429 37.497 128.09 37.4971 127.864 37.6101C127.525 37.7231 127.186 37.61 126.96 37.271C126.847 37.045 126.96 36.5931 127.299 36.4801C127.864 36.1411 128.654 36.2541 129.219 36.4801C124.137 27.2191 115.553 23.04 103.017 19.991L102.791 20.1041C101.887 20.2171 101.097 19.652 100.984 18.862C100.871 18.523 100.984 18.1841 101.097 17.9581C100.758 18.5231 100.081 18.7491 99.4025 18.5231C79.7505 14.7961 42.4805 25.525 26.6685 37.271C16.0525 45.177 2.61253 58.73 3.17653 73.073C3.85453 93.064 13.1155 101.647 32.4285 106.165C43.1575 108.763 53.5485 106.956 64.3905 106.504C78.9595 105.826 102.113 99.0501 113.294 88.9981C117.925 84.8191 123.572 78.6071 127.75 71.7181C127.185 72.3961 126.621 72.96 126.056 73.525C124.023 75.558 121.99 77.365 119.844 79.172C119.957 79.85 120.07 80.5271 119.844 81.2051C119.731 81.5441 119.392 81.6571 119.053 81.5441C118.714 81.4311 118.488 81.092 118.714 80.753C118.714 80.527 118.714 80.414 118.714 80.188C118.036 80.64 117.472 81.2041 116.907 81.6561C116.907 82.3341 116.794 83.124 116.568 83.802C116.455 84.141 116.116 84.254 115.777 84.141C115.438 84.028 115.212 83.576 115.438 83.237C115.438 83.124 115.438 82.898 115.551 82.672C109 87.754 101.998 91.9331 94.5435 95.2081C94.5435 95.5471 94.4305 95.9991 94.4305 96.4501C94.3175 96.7891 93.8655 97.0151 93.5265 96.9021C93.1875 96.7891 93.0745 96.3371 93.1875 95.9981C93.1875 95.9981 93.1875 95.885 93.1875 95.772C84.1525 99.612 74.5525 101.984 64.1615 102.887C58.4015 103.339 52.6415 103.565 46.8815 103.452C46.8815 103.565 46.8815 103.565 46.7685 103.678C46.6555 104.017 46.3165 104.13 45.9775 104.017C45.6385 103.791 45.4125 103.565 45.1865 103.339C40.2175 103.226 35.3605 102.774 30.6175 101.871C30.6175 102.097 30.5045 102.323 30.2785 102.436C29.9395 102.662 29.4875 102.549 29.3745 102.21C29.2615 101.984 29.1485 101.758 29.1485 101.532C24.4045 100.628 19.6615 99.273 15.0305 97.353C14.8045 97.127 14.6915 96.6751 14.9175 96.4491C15.1435 96.1101 15.5955 96.11 15.8215 96.336C16.0475 96.336 16.2735 96.4491 16.4995 96.5621C20.2265 98.0301 24.2925 99.16 28.5845 100.063C28.4715 99.159 28.5845 98.3691 29.2625 97.2391C29.4885 96.9001 29.9405 96.9 30.2785 97.013C30.5025 97.242 30.6155 97.694 30.3895 98.033ZM102.333 62.004C105.269 64.715 106.286 66.183 105.269 70.249V70.1361V70.362C105.156 70.701 104.817 70.927 104.478 70.814C104.139 70.701 103.913 70.3621 103.913 70.0231C104.026 69.6841 104.139 69.2321 104.139 68.8941C104.591 66.6351 104.139 65.619 102.558 64.038C102.219 63.699 101.88 63.36 101.429 63.022C101.203 62.796 101.09 62.4571 101.316 62.1181C101.543 61.8921 101.994 61.779 102.333 62.004ZM78.7285 79.284C80.4225 78.606 81.2135 78.719 81.7775 79.171C82.9065 80.187 82.4555 82.6721 86.7465 80.6391C94.8785 76.7991 94.0875 81.881 97.4755 76.573C98.7175 74.54 102.332 76.2341 103.349 73.4111C103.349 73.4111 103.349 73.298 103.349 73.185C103.462 72.846 103.801 72.507 104.14 72.62C104.479 72.62 104.705 72.9591 104.705 73.4111C103.576 77.7031 99.3965 75.8961 98.6055 77.2511C94.8785 83.2371 94.3135 78.719 89.0055 81.091C78.3895 85.722 83.8105 78.493 79.2925 80.526C78.9535 80.639 78.6145 80.5261 78.3885 80.1871C78.2765 79.8491 78.3895 79.51 78.7285 79.284ZM37.6175 87.7551C37.9565 87.8681 38.2955 87.981 38.7465 88.094C42.5865 89.11 46.3135 87.981 49.9275 86.4C50.4925 86.061 51.0565 85.835 51.6215 85.496C51.9605 85.27 52.2995 85.3831 52.5255 85.6091C52.7515 85.8351 52.7515 86.0611 52.6385 86.2871C52.5255 86.4001 52.5255 86.5131 52.4125 86.6261C48.4595 88.6591 44.6195 90.127 40.5535 89.788C39.4245 89.675 38.1815 89.336 37.0525 88.884C36.7135 88.771 36.6005 88.3191 36.7135 87.9801C36.9395 87.7551 37.2785 87.6421 37.6175 87.7551L42.3615 87.529H42.4745C39.7635 87.416 37.1665 86.5131 35.3595 84.3671C29.8255 77.8161 37.1665 74.9931 42.2485 73.1861C42.7005 72.8471 43.3775 72.9601 43.8295 73.1861C44.0555 72.8471 44.3945 72.621 44.9585 72.508C48.2335 73.073 49.8145 72.7341 51.9605 75.5571C56.4785 81.4301 50.8315 86.6251 44.6195 87.4161L49.5885 87.19H50.0405L55.5745 86.8511L57.1555 87.19C63.7065 88.206 66.4165 88.4321 72.7415 85.0441C74.8875 83.9151 78.0495 86.9641 76.9205 82.4461C76.9205 82.1071 77.0335 81.768 77.3725 81.655C77.7115 81.542 78.1635 81.768 78.2765 82.107C79.6315 88.319 74.4365 85.4951 73.3075 86.2861C68.4515 89.5611 61.3355 89.787 55.8015 88.206C55.4625 88.206 55.1235 87.98 55.0105 87.641C55.0105 87.302 55.2365 86.9631 55.5755 86.8501L50.0415 87.189H49.5895L44.6205 87.4151C43.9425 87.5281 43.1525 87.529 42.4745 87.529H42.3615L37.6175 87.7551ZM56.2525 62.7951C56.3655 62.9081 56.4785 63.021 56.4785 63.134L56.5915 63.2471C56.8175 63.4731 56.7045 63.812 56.4785 64.151C56.3655 64.151 56.2525 64.2641 56.1395 64.2641C56.0265 64.2641 55.9135 64.2641 55.9135 64.2641C55.5745 65.0551 55.0095 65.8451 54.2195 66.6361C51.1705 69.5721 51.1705 69.911 53.2035 71.831L53.4295 72.0571C53.6555 72.2831 53.6555 72.735 53.4295 72.961C53.0905 73.187 52.7515 73.187 52.5255 72.848C49.4765 70.024 50.0405 68.895 53.3165 65.733C54.2205 64.717 54.6715 63.813 54.8975 62.797C54.2195 60.764 54.3325 57.8281 55.5755 56.8111C56.1405 55.5691 57.3825 54.326 59.8675 53.31C60.2065 53.197 60.5455 53.423 60.6585 53.762C60.6585 54.101 60.5455 54.4401 60.0935 54.5531C60.0935 54.6661 59.9805 54.6661 59.8675 54.6661C58.5125 55.3441 57.6085 56.0211 57.1565 56.8121C57.1565 56.8121 57.1565 56.925 57.1565 57.038C57.1565 57.377 56.9305 57.603 56.7045 57.716C56.7045 57.716 56.5915 57.7161 56.5915 57.8291C56.3655 58.6201 56.3655 59.523 56.3655 60.427C56.3655 61.214 56.3655 62.0041 56.2525 62.7951ZM82.1165 47.322C77.4855 48.903 80.8745 57.8261 82.1165 60.423C82.4555 60.875 100.301 59.8581 101.204 55.0021C101.204 54.8891 101.204 54.889 101.317 54.776C101.317 54.55 101.656 54.3241 101.995 54.4371C102.334 54.4371 102.56 54.776 102.56 55.115C101.431 60.875 82.0045 63.699 80.8745 60.875C79.4065 56.922 75.6795 48.1131 81.8905 46.0801C82.2295 45.9671 82.5685 46.1931 82.6815 46.5321C82.6815 46.6451 82.6815 46.758 82.6815 46.871C82.5685 47.096 82.3425 47.209 82.1165 47.322ZM97.3635 43.482C101.204 41.11 103.915 42.9171 102.559 47.7741C102.672 48.1131 102.446 48.5651 102.107 48.6781C101.768 48.7911 101.429 48.5651 101.316 48.2261C101.316 48.1131 101.316 47.887 101.429 47.548C101.655 45.741 102.22 42.0141 98.3795 44.3861C98.2665 44.3861 98.2665 44.499 98.1535 44.499C97.9275 44.725 97.4755 44.7251 97.2495 44.3861C97.0245 44.1601 97.0245 43.708 97.3635 43.482ZM109.9 29.2521C117.015 27.7841 110.465 36.9321 116.338 34.3341C116.79 34.1081 117.016 33.995 117.354 33.882C113.062 31.171 117.015 25.75 109.448 27.444C108.319 27.67 107.415 27.8961 106.737 28.1221C107.189 28.3481 107.528 28.687 107.866 29.138C114.417 38.286 91.9405 44.2721 87.4235 37.8341C85.3905 34.7851 86.4075 32.413 88.6655 30.719V30.6061C88.4395 30.2671 88.3265 29.702 88.1005 29.59C85.2765 30.042 84.7125 28.122 84.3735 29.138C84.3735 29.477 84.0345 29.703 83.6955 29.703C83.2435 29.59 83.0175 29.2511 83.1305 28.9121C83.9215 26.0881 85.3895 28.6861 87.8745 28.3471C89.0035 28.2341 89.4555 29.1381 89.7945 30.0411C92.5055 28.3471 96.1195 27.4431 98.0395 26.9921C98.9435 26.8791 99.6205 27.5571 99.7335 28.3471V28.46C99.7335 29.251 99.1685 29.9281 98.3785 30.0411C97.9265 30.1541 93.4095 31.0571 91.0375 32.7521C90.2465 34.4461 91.8285 36.5921 94.1995 37.6091C97.1355 37.6091 100.751 36.7051 103.235 35.3501C103.461 35.1241 103.687 34.7851 104.026 34.4461C104.93 33.3171 104.478 31.622 103.913 30.267C102.784 30.154 101.541 30.2671 100.751 29.2511C100.638 29.0251 100.525 28.799 100.525 28.46C100.525 28.008 100.864 27.5561 101.316 27.2181C100.864 26.9921 100.412 26.653 99.8475 26.314C96.1205 23.829 97.3625 31.3961 89.0055 25.2981C85.1655 22.5871 84.8265 29.364 78.6145 25.072C76.6945 23.717 71.4995 29.703 68.3365 25.75C67.0945 27.557 65.7385 29.2511 62.1245 27.1051C60.4305 28.3471 59.9785 31.2841 55.7995 29.2511C50.1525 29.2511 49.0235 36.592 44.7315 36.253C39.3105 35.801 42.4725 38.6251 36.1475 39.8671C32.4205 40.5451 40.2135 43.368 27.3385 45.966C27.2255 46.418 27.1125 46.757 26.9995 47.095C27.6775 46.982 28.4675 46.8691 29.2585 46.7561C29.5975 46.7561 29.9365 46.869 30.1625 46.982C30.5015 46.869 30.8405 46.7561 31.1785 46.7561H31.5175H31.4045C39.9885 46.9821 38.5195 55.565 34.2285 57.711C25.6445 61.89 20.1105 58.389 19.8845 54.21C19.0935 54.662 18.0775 55.2261 17.0605 56.2431C19.7715 60.1961 12.9945 61.664 13.8985 64.375C14.4635 66.069 14.8025 67.311 14.9145 68.215C17.1735 66.86 20.5615 66.2951 23.3855 66.1821C23.8375 66.1821 24.2895 66.521 24.5145 66.973C25.4185 66.973 26.2085 67.312 26.8865 68.102C31.8555 74.088 18.5285 84.1401 13.6725 77.0241C13.4465 76.6851 13.2205 76.459 13.1075 76.12C13.2205 76.911 13.3335 77.701 13.2205 78.379C14.6885 78.379 15.2535 79.283 14.3495 80.638C16.0435 86.963 11.6385 86.059 17.2855 90.012C20.8995 89.56 21.3515 88.657 23.4975 93.852C27.6765 94.53 27.3375 89.6731 33.3235 94.7561C40.3255 100.629 40.5515 85.8341 52.9755 92.9491C58.1705 95.7731 57.1545 89.448 63.7045 90.464C77.0315 92.497 65.8505 87.3021 80.4195 88.6571C89.6805 89.5611 80.5325 81.542 93.2945 82.784C101.879 83.575 94.4235 79.9601 105.493 78.4921C105.945 78.3791 107.978 78.153 108.655 77.814C108.09 69.23 111.366 72.506 116.109 71.038C114.415 62.116 128.194 64.713 127.064 59.857C125.257 52.29 127.29 54.7751 128.645 51.2731C128.193 49.9181 121.643 48.449 122.32 42.69C121.304 43.368 120.061 44.158 122.207 47.095C124.127 49.693 123.901 49.3541 125.031 51.6131C125.031 51.7261 125.144 51.7261 125.144 51.7261L125.257 51.952H125.144L125.37 52.404C125.031 53.082 124.579 53.195 124.128 52.517C124.015 52.404 124.015 52.291 124.015 52.065C122.886 50.258 122.66 49.919 121.191 47.999C120.062 46.418 119.61 45.2881 119.61 44.3851C119.61 41.6741 123.789 42.1261 120.626 39.8671C116.221 36.8181 121.53 33.4291 117.012 35.4621C115.883 35.9141 114.979 36.1401 114.414 36.1401C112.72 36.2531 112.607 34.7851 112.494 33.3161C112.494 31.8481 112.494 30.2671 110.687 30.3801C110.574 30.3801 110.348 30.4931 110.235 30.4931C109.896 30.6061 109.557 30.3801 109.444 30.0411C109.336 29.7031 109.561 29.2521 109.9 29.2521ZM120.178 35.012C120.291 36.141 119.839 37.6101 120.517 38.1741C121.759 39.1901 122.437 39.981 122.776 40.659C122.889 40.546 122.889 40.5461 122.889 40.4331C123.341 39.1911 123.454 35.464 121.195 35.125C120.856 35.124 120.517 35.012 120.178 35.012ZM108.206 45.9671C109.222 43.9341 112.498 43.821 114.192 44.499C114.531 44.273 114.87 44.4991 114.983 44.8381C115.209 45.1771 114.983 45.516 114.644 45.629C114.192 45.629 113.289 45.516 112.272 45.516C111.368 45.516 110.352 45.5161 109.787 45.9681C109.674 46.0811 109.561 46.1941 109.448 46.4201C109.335 46.7591 108.883 46.872 108.544 46.759C108.206 46.644 108.093 46.3061 108.206 45.9671ZM127.519 39.9811C129.326 42.0141 129.665 40.433 131.133 44.724C131.246 45.063 131.02 45.4021 130.681 45.5151C130.342 45.6281 130.003 45.402 129.89 45.063C128.648 41.336 128.422 42.917 126.389 40.658C126.163 40.432 126.276 39.98 126.502 39.754C126.841 39.529 127.293 39.6421 127.519 39.9811ZM45.0715 29.026C45.9755 29.365 46.5395 30.1551 46.9915 30.9461C52.6385 24.5081 58.0595 27.2191 58.6245 26.5411C63.4805 21.5721 61.4485 25.186 65.4005 24.96C66.0785 24.169 65.9655 23.4921 67.6595 21.7981C68.3375 21.3461 69.2405 21.4591 69.8055 22.0241C69.9185 22.2501 70.0315 22.589 70.0315 22.815C70.1445 22.928 70.1445 22.9281 70.1445 23.0411C71.7255 26.7681 75.7915 19.54 80.3095 22.589C84.7145 25.638 85.3915 18.4101 91.3775 23.3801C96.4595 27.5591 96.2335 18.8621 103.124 25.0741C106.738 28.3491 113.402 19.3141 116.79 27.3331C119.726 34.2221 120.517 30.834 123.679 32.754C129.326 36.368 122.775 43.596 126.503 46.081C137.232 53.422 128.197 51.5021 129.552 57.6011C132.15 68.7821 118.371 65.055 118.823 69.46C119.501 76.124 116.451 72.848 111.595 74.542C111.369 75.446 111.595 76.801 111.595 77.591C111.708 82.786 103.124 80.64 101.204 82.673C95.3305 89.337 93.9755 84.0281 88.8925 85.6091C85.2785 96.6771 76.9205 88.8841 73.7585 91.8211C68.3375 96.9031 63.8195 92.16 61.1095 93.289C59.0765 96.79 54.3335 97.129 51.1705 95.322C43.7165 90.804 44.0555 97.581 38.1825 98.823C30.8415 100.404 32.8745 94.7571 28.1305 95.7741C17.5145 98.2591 22.9355 94.983 19.4345 92.499C19.3215 92.499 19.3215 92.499 19.0955 92.612C14.4645 93.967 10.6245 89.4501 11.5285 85.0451C11.7545 83.5771 11.6415 82.4471 11.5285 81.6571C8.02752 82.1091 10.5125 78.495 10.1735 76.688C8.02754 67.314 12.9975 69.686 11.8675 67.314C8.36654 59.069 14.2395 61.215 14.5785 57.94C11.5295 54.1 17.4025 53.5351 21.3545 50.2601C21.5805 49.9211 21.9195 49.582 22.3705 49.244C22.9355 48.679 23.3865 47.8891 23.8385 46.9851C26.8875 39.5311 25.5325 44.952 31.6315 42.016C32.7605 38.967 33.4385 36.8211 36.8265 36.8211C40.2145 33.5461 41.0055 32.9811 45.4095 33.3201C45.4095 32.9811 44.7315 33.885 46.0875 31.965C45.6355 31.287 45.0715 30.384 44.7325 30.271C44.3935 30.158 44.1675 29.8191 44.2805 29.4801C44.3945 29.1391 44.7325 28.913 45.0715 29.026ZM51.1705 34.3341C52.7515 31.5111 54.6715 31.5111 57.6085 31.9621C57.9475 31.8491 58.2865 32.0751 58.2865 32.5271C58.3995 32.8661 58.0605 33.2051 57.7215 33.2051C57.2695 33.2051 56.7055 33.0921 56.2535 33.0921C54.8985 32.9791 53.7685 32.9791 52.7525 34.3341C52.6395 34.4471 52.5265 34.6731 52.4135 34.8991C52.3005 35.2381 51.8485 35.3511 51.5095 35.2381C51.1705 35.1241 51.0575 34.6731 51.1705 34.3341ZM56.9305 36.9321C59.7535 31.3981 67.4335 29.026 73.1935 29.478C73.4195 29.365 73.5325 29.478 73.7585 29.478C74.0975 29.704 74.2105 30.043 74.0975 30.382C73.9845 30.721 73.6455 30.8341 73.3065 30.7211C72.8545 30.7211 72.4025 30.8341 71.9515 30.8341C67.0955 31.1731 61.2225 32.1891 58.5115 36.8201C58.3985 36.9331 58.2855 37.1591 58.1725 37.3851C58.0595 37.7241 57.7205 37.9501 57.3815 37.8371C57.0435 37.7221 56.8175 37.2701 56.9305 36.9321ZM28.9215 65.3931C33.3265 64.3771 33.1005 66.0711 34.2295 67.7651C35.0205 68.8941 36.3755 70.0241 40.4415 70.0241C40.5545 70.0241 40.6675 70.0241 40.7805 70.0241H42.4745C42.8135 70.2501 43.0395 70.5891 42.8135 70.9281C42.7005 71.2671 42.3615 71.38 42.0225 71.267C33.1005 71.719 33.5515 68.5561 32.4225 67.0881C32.0835 66.6361 31.6315 66.297 30.6155 66.41C30.1635 66.41 29.8245 66.5231 29.2605 66.6361C28.9215 66.7491 28.5825 66.523 28.4695 66.184C28.3565 65.844 28.5825 65.5061 28.9215 65.3931ZM30.7285 77.477C31.0675 75.218 36.6015 73.185 38.1825 72.508C38.5215 72.395 38.8605 72.621 38.9735 72.96C39.0865 73.299 38.8605 73.7511 38.5215 73.7511C37.8435 74.0901 35.6975 74.993 34.1165 75.897C33.6645 76.123 33.3255 76.3491 32.9875 76.5751C32.5355 76.9141 32.1965 77.253 31.9715 77.591C31.9715 77.93 31.6325 78.2691 31.2935 78.2691C30.9545 78.1551 30.7285 77.929 30.7285 77.477ZM17.9655 82.447C15.2545 84.593 18.7565 84.1411 20.1115 85.6091C20.3375 85.7221 20.4505 85.9481 20.5635 86.2871C20.6765 86.4001 20.6765 86.739 20.6765 86.965C20.6765 87.304 20.5635 87.5301 20.9025 87.7561C21.1285 87.7561 21.3545 87.7561 21.4675 87.7561C21.5805 87.7561 21.5805 87.7561 21.5805 87.7561C21.8065 87.7561 22.0325 87.756 22.2585 87.869C22.5975 87.982 22.5975 88.4341 22.4845 88.7731C21.9195 89.3381 19.5485 89.9021 19.3225 86.5141C19.3225 86.1751 12.6585 84.933 17.2895 81.319C17.6285 81.206 17.9675 81.2061 18.1935 81.5451C18.4195 81.7711 18.3065 82.11 18.0805 82.336C18.0785 82.447 18.0785 82.447 17.9655 82.447ZM25.1945 88.094C25.7595 88.433 26.2105 88.7721 26.5495 89.1101C27.3405 89.6751 27.9045 90.014 28.9215 89.901C29.2605 89.901 29.5995 89.788 30.0505 89.675C30.3895 89.562 30.8415 89.7881 30.8415 90.1271C30.9545 90.4661 30.8415 90.805 30.3895 90.918C28.9215 91.257 25.7585 91.3701 25.3075 89.4501C24.9685 89.4501 24.6295 89.111 24.6295 88.772C24.6295 88.433 24.8555 88.094 25.1945 88.094ZM39.9895 77.59L40.7805 77.3641C41.1195 77.2511 41.5715 77.4771 41.5715 77.8161C41.6845 78.1551 41.4585 78.494 41.1195 78.607L40.3285 78.8331C39.9895 78.9461 39.6505 78.7201 39.5375 78.3811C39.4245 78.0421 39.6505 77.703 39.9895 77.59ZM45.2975 76.8C45.7495 76.687 45.4105 76.687 46.0885 76.8C46.4275 76.8 46.6535 77.252 46.5405 77.591C46.4275 77.93 46.0885 78.156 45.7495 78.043C45.5235 78.043 45.6365 78.043 45.2975 78.043C44.9585 78.043 44.6195 77.817 44.6195 77.478C44.6195 77.026 44.8455 76.8 45.2975 76.8ZM42.4745 79.736C43.0395 79.849 43.2655 79.6231 43.6035 80.0751C43.8295 80.4141 43.8295 80.753 43.4905 80.979C43.3775 81.205 43.0385 81.2051 42.9255 81.0921C42.3605 81.0921 42.4735 81.092 41.9095 80.866C41.5705 80.753 41.4575 80.3011 41.5705 79.9621C41.7965 79.6231 42.1355 79.51 42.4745 79.736ZM39.5375 81.7691C39.5375 81.8821 39.6505 81.882 39.7635 81.882C40.1025 81.882 40.3285 82.221 40.3285 82.56C40.3285 82.899 39.9895 83.2381 39.6505 83.2381C38.9725 83.1251 38.6345 82.8991 38.2955 82.3341C38.1825 81.8821 38.2955 81.543 38.6345 81.43C38.9725 81.317 39.3115 81.5431 39.5375 81.7691ZM45.9755 80.301C46.5405 80.301 46.9915 80.301 47.4435 80.188C47.7825 80.075 48.1215 80.3011 48.2345 80.6401C48.3475 80.9791 48.1215 81.431 47.7825 81.431C47.1045 81.544 46.8785 81.5441 46.3145 81.6571C45.9755 81.6571 45.6365 81.4311 45.5235 81.0921C45.4105 80.7531 45.6365 80.414 45.9755 80.301ZM61.3355 77.8161C62.3515 77.5901 61.7875 77.703 62.8035 77.477C63.1425 77.477 63.4815 77.816 63.4815 78.155C63.4815 78.494 63.2555 78.8331 62.9165 78.8331C62.1255 78.9461 62.4645 78.833 61.6745 79.059C61.3355 79.172 60.9965 78.946 60.8835 78.607C60.7705 78.268 60.9965 77.8161 61.3355 77.8161ZM60.8835 81.543C61.2225 81.769 61.2225 81.882 61.5615 81.882H61.6745C62.0135 81.995 62.2395 82.334 62.2395 82.673C62.2395 82.786 62.1265 83.012 62.0135 83.012C62.3525 83.012 62.6915 83.012 63.2555 83.012C63.9335 82.899 64.6105 82.7861 65.2885 82.7861C66.6435 82.5601 67.9995 82.2211 68.9025 81.6571C70.9355 80.7531 71.6135 79.0591 69.8065 76.1231C67.5475 76.2361 54.4465 77.4781 59.6415 82.6741C59.8675 82.7871 60.0935 82.7871 60.3195 82.7871L60.5455 82.9C60.4325 82.9 60.4325 82.7871 60.3195 82.7871C60.2065 82.6741 60.2065 82.6741 60.0935 82.5611C59.7545 82.3351 59.7545 81.8831 59.9805 81.6571C60.2065 81.4311 60.6575 81.317 60.8835 81.543ZM71.0485 75.5571C71.1615 75.7831 71.2745 75.896 71.2745 76.009C71.3875 75.896 71.3875 75.7831 71.5005 75.6701C71.6135 75.5571 71.7265 75.557 71.8395 75.444C72.5175 74.992 73.4205 75.105 73.8725 75.783L74.4375 76.6871C79.7455 85.4961 61.6755 90.579 57.0445 84.254C50.6065 75.445 64.6115 73.299 69.9195 73.073C70.8235 73.073 71.5005 73.751 71.3875 74.654C71.3875 74.88 71.3875 75.2191 71.1615 75.4451C71.1615 75.5571 71.0485 75.5571 71.0485 75.5571ZM72.1775 78.8331C72.1775 79.6241 71.9515 80.301 71.6125 80.979C70.5965 82.447 68.4505 83.4641 66.1915 83.9151C69.6925 83.3501 73.1935 81.5431 72.1775 78.8331ZM63.3685 79.849C63.4815 79.849 63.9335 79.736 64.0465 79.736C64.1595 79.736 64.2725 79.736 64.3855 79.736C64.4985 79.849 64.7245 79.962 64.7245 80.188C64.9505 80.527 64.7245 80.866 64.3855 80.979C64.1595 81.092 64.1595 81.0921 63.9335 81.0921C63.5945 81.2051 63.1425 81.092 63.0295 80.753C62.9165 80.414 63.0295 80.075 63.3685 79.849ZM66.3045 76.913C67.3205 76.687 66.8695 76.687 67.8855 76.8C67.9985 76.8 68.1115 76.8 68.2245 76.913C68.4505 77.026 68.4505 77.252 68.4505 77.478C68.4505 77.817 68.1115 78.043 67.7725 78.043C66.9815 78.043 67.4335 77.9301 66.6435 78.1561H66.5305C66.1915 78.1561 65.9655 77.9301 65.8525 77.7041C65.7395 77.3641 65.9655 76.913 66.3045 76.913ZM67.5465 80.188C68.1115 80.188 68.1115 80.1881 68.6755 79.9621C69.0145 79.8491 69.3535 80.075 69.4665 80.414C69.5795 80.753 69.3535 81.2051 69.0145 81.2051C68.2235 81.4311 68.2235 81.544 67.4335 81.431C66.9815 81.431 66.7555 81.092 66.7555 80.753C66.8695 80.414 67.2085 80.075 67.5465 80.188ZM88.4415 66.0701C81.5525 67.8771 83.1335 75.8961 90.5875 74.5411C91.3785 74.4281 92.2815 74.089 93.1855 73.637C93.2985 73.637 93.2985 73.637 93.2985 73.637C94.2025 72.508 95.5575 71.491 95.3315 69.684C95.3315 69.345 95.4445 69.0061 95.7835 68.8931C96.2355 68.7801 96.5745 69.006 96.6875 69.345C96.8005 70.361 96.5745 71.1521 96.3485 71.8301C96.5745 71.6041 97.0265 71.265 97.3645 70.814C98.6065 68.442 96.0095 65.506 92.7335 65.619C92.5075 65.732 92.2815 65.6191 92.1685 65.5061C90.8125 65.6191 89.5705 65.8441 88.4415 66.0701ZM93.8625 64.3761C94.2015 64.3761 94.6535 64.489 95.1045 64.602V64.4891C95.2175 63.9241 95.5565 63.4731 96.0085 63.3601C99.5095 62.3441 106.851 68.329 97.5895 74.654C80.8745 86.061 67.2085 64.828 92.3945 62.456C93.1855 62.456 93.8625 63.1341 93.8625 63.9241C93.8625 64.0371 93.8625 64.15 93.8625 64.15C93.8625 64.263 93.8625 64.2631 93.8625 64.3761ZM97.5895 66.296C98.1545 66.974 98.6055 67.764 98.8315 68.668C99.2835 67.652 99.0575 66.635 97.5895 66.296ZM84.2625 74.315C82.5685 72.621 82.2295 70.136 83.4715 68.103C80.3095 70.249 81.3255 73.073 84.2625 74.315ZM86.5215 67.539C87.3125 67.087 86.8605 67.313 87.7635 66.974C88.1025 66.861 88.5545 67.087 88.6675 67.426C88.6675 67.765 88.5545 68.1041 88.2155 68.2171C87.5375 68.4431 87.7635 68.3301 87.3115 68.6691C86.9725 68.8951 86.5205 68.782 86.2955 68.443C86.0695 68.216 86.1825 67.764 86.5215 67.539ZM92.1685 66.409C92.8465 66.522 92.5075 66.4091 93.2975 66.6351C93.6365 66.7481 93.7495 67.087 93.6365 67.426C93.5235 67.765 93.0715 67.8781 92.7325 67.7651C92.3935 67.7651 92.6195 67.7651 92.0545 67.7651C91.7155 67.6521 91.4895 67.313 91.4895 66.974C91.4905 66.635 91.8295 66.409 92.1685 66.409ZM86.1825 71.0401C86.2955 71.1531 86.6345 71.3791 86.8605 71.6051C87.0865 71.6051 87.3125 71.718 87.4255 71.944C87.5385 72.283 87.4255 72.735 87.0865 72.848C86.2955 72.961 85.6185 72.283 85.1665 71.832C84.9405 71.493 84.9405 71.1541 85.2795 70.9281C85.5045 70.7011 85.9565 70.7011 86.1825 71.0401ZM88.6665 69.4591C89.0055 69.4591 89.1185 69.459 89.4575 69.572C89.6835 69.685 89.9095 69.911 89.9095 70.25C89.9095 70.589 89.5705 70.9281 89.2315 70.9281C89.1185 70.8151 88.8925 70.815 88.7795 70.702C88.3275 70.702 88.1015 70.476 87.9885 70.137C87.9895 69.797 88.3285 69.4591 88.6665 69.4591ZM93.7495 70.0231C93.4105 70.7011 93.0715 71.378 92.3945 71.604C92.0555 71.717 91.7165 71.4911 91.6035 71.1521C91.6035 70.8131 91.7165 70.474 92.0555 70.361C92.1685 70.135 92.5075 69.57 92.6205 69.345C92.8465 69.006 93.1855 68.893 93.5245 69.119C93.8635 69.345 93.9755 69.6841 93.7495 70.0231ZM109.223 51.727C109.562 51.388 109.675 51.388 110.239 51.275H110.126C110.465 51.162 110.917 51.388 111.03 51.727C111.143 52.066 110.917 52.4051 110.578 52.5181C110.578 52.5181 110.239 52.6311 110.126 52.6311C109.9 52.8571 109.561 52.8571 109.222 52.6311C108.997 52.4041 108.997 51.953 109.223 51.727ZM108.997 55.341C109.11 55.454 109.11 55.4541 109.223 55.5671C109.449 55.7931 109.562 56.019 109.449 56.358C109.449 56.697 108.997 56.923 108.658 56.81C108.206 56.584 107.98 56.2451 107.754 55.7941C107.641 55.4551 107.754 55.003 108.093 55.003C108.206 54.89 108.319 54.8901 108.432 54.8901C108.658 55.0021 108.884 55.115 108.997 55.341ZM111.03 53.534C111.369 53.534 111.369 53.534 111.595 53.534C111.934 53.647 112.16 53.76 112.273 53.986C112.386 54.325 112.16 54.7771 111.821 54.8901C111.595 54.8901 111.482 54.8901 111.143 54.7771C110.804 54.7771 110.578 54.5511 110.465 54.2121C110.465 53.8731 110.691 53.534 111.03 53.534ZM113.627 50.71L114.079 50.5971C114.531 50.4841 114.87 50.7101 114.983 51.0491C114.983 51.3881 114.87 51.727 114.531 51.84L113.966 51.953C113.627 52.066 113.288 51.8401 113.175 51.5011C113.063 51.1621 113.289 50.823 113.627 50.71ZM115.209 53.8731C115.435 53.8731 115.322 53.8731 115.661 53.7601C116 53.6471 116.339 53.8731 116.452 54.2121C116.565 54.5511 116.339 55.003 116 55.116C115.435 55.229 115.774 55.116 115.096 55.229C114.757 55.229 114.418 54.89 114.531 54.551C114.531 54.212 114.757 53.8731 115.209 53.8731ZM116.903 49.016C120.065 51.388 119.275 55.0021 115.999 57.1481C119.048 55.9061 121.307 53.7601 119.839 51.6141C119.161 51.3881 118.823 50.823 118.823 50.146C118.823 50.033 118.936 49.9201 118.936 49.8071C119.162 49.1291 119.727 48.6781 120.404 48.7911C120.856 48.7911 121.195 48.9041 121.646 49.1301C130.117 56.0191 108.319 67.2011 104.366 58.1651C100.413 49.2431 108.545 48.565 115.095 47.21C115.886 46.984 116.676 47.4361 116.902 48.2261C117.016 48.4521 117.016 48.79 116.903 49.016ZM107.303 57.2611C107.642 57.4871 107.981 57.487 108.432 57.487C115.886 57.939 120.065 52.856 116.112 50.033C115.999 50.033 115.999 50.033 115.886 50.146C112.498 50.823 103.237 51.1621 107.303 57.2611ZM95.1045 49.129C95.6695 50.371 95.7825 51.501 95.5565 52.404C95.3305 53.533 94.5405 54.437 93.4105 55.115C94.3145 54.776 94.9915 54.324 95.6695 53.986C95.7825 53.534 95.8955 53.195 96.0085 52.97C96.1215 52.857 96.1215 52.7441 96.1215 52.6311C96.4605 51.8401 96.4605 51.389 96.0085 50.033C95.8955 49.807 95.7825 49.468 95.5565 49.129C95.4435 49.129 95.3305 49.129 95.1045 49.129ZM85.7305 55.68H85.8435C89.6835 55.567 93.8625 54.664 94.3145 51.84C94.3145 51.162 94.2015 50.2591 93.7495 49.3551C93.2975 49.3551 92.7335 49.016 92.5075 48.451C83.5845 49.355 82.4555 53.986 85.7305 55.68ZM97.1375 49.581C97.4765 50.372 97.5895 51.049 97.5895 51.84C98.0415 50.823 97.8155 50.033 97.1375 49.581ZM85.5045 53.647V53.7601C85.5045 53.6471 85.6175 53.534 85.6175 53.421C85.7305 53.195 85.9565 52.9691 86.1825 52.8561C86.5215 52.8561 86.8605 53.082 86.9735 53.421C86.9735 53.986 86.6345 54.325 86.2955 54.776C85.9565 55.002 85.5045 54.889 85.3915 54.55C85.1655 54.324 85.2785 53.873 85.5045 53.647ZM86.8595 50.033C87.4245 49.694 87.1985 49.92 87.7635 49.581C88.2155 49.581 88.5545 49.807 88.5545 50.146C88.6675 50.485 88.4415 50.8241 87.9895 50.9371C87.7635 51.0501 87.8765 50.937 87.5375 51.163C87.1985 51.276 86.7465 51.1631 86.6335 50.9371C86.4085 50.5971 86.5215 50.146 86.8595 50.033ZM91.1515 48.7901C91.6035 48.6771 91.8295 48.6771 92.2805 48.9031C92.3935 48.9031 92.3935 49.016 92.3935 49.129C92.5065 49.355 92.5065 49.5811 92.3935 49.8071C92.1675 50.0331 91.8285 50.146 91.6025 50.033H91.4895C91.1505 50.033 90.8115 49.92 90.6985 49.581C90.6995 49.242 90.8125 48.9031 91.1515 48.7901ZM87.9895 52.0661C88.7805 51.8401 88.4415 51.953 89.1185 51.84C89.3445 51.727 89.4575 51.727 89.6835 51.84C89.7965 51.953 89.9095 52.066 89.9095 52.292C90.0225 52.631 89.7965 52.9701 89.4575 53.0831C88.7795 53.1961 89.1185 53.196 88.4415 53.309C88.3285 53.309 88.2155 53.309 88.2155 53.309C87.8765 53.309 87.6505 53.083 87.5375 52.857C87.5375 52.517 87.6505 52.1791 87.9895 52.0661ZM92.1685 51.6141C92.3945 51.6141 92.2815 51.6141 92.5075 51.6141C92.8465 51.5011 93.2985 51.7271 93.4115 52.0661C93.5245 52.4051 93.2985 52.744 92.9595 52.857C92.3945 52.97 92.6205 52.97 92.0555 52.97C91.7165 52.97 91.4905 52.631 91.4905 52.292C91.4905 51.953 91.8295 51.6141 92.1685 51.6141ZM62.9165 60.6491C63.3685 60.6491 63.4815 60.649 63.8205 60.875C64.1595 60.875 64.4985 61.1011 64.4985 61.5531C64.4985 61.8921 64.1595 62.2311 63.8205 62.2311C63.4815 62.1181 63.3685 62.1181 63.1425 62.0051C62.8035 62.0051 62.4645 61.779 62.4645 61.44C62.3515 61.101 62.5775 60.7621 62.9165 60.6491ZM66.0785 58.9551C66.7565 58.6161 66.4175 58.729 67.0945 58.503C67.3205 58.277 67.7725 58.39 67.9985 58.729C68.1115 58.955 67.9985 59.407 67.7725 59.633C67.0945 59.859 67.3205 59.7461 66.8685 59.9721C66.5295 60.1981 66.1905 60.1981 65.9645 59.8591C65.7395 59.6331 65.7395 59.1811 66.0785 58.9551ZM69.5795 55.9061C70.7085 56.0191 70.1445 55.9061 71.2735 56.0191C71.6125 56.1321 71.8385 56.584 71.7255 56.923C71.4995 57.262 71.1605 57.375 70.8215 57.262C70.1435 57.262 70.4825 57.262 69.6925 57.262C69.3535 57.262 69.0145 57.0361 69.0145 56.5841C69.0145 56.3581 69.1275 56.0191 69.4665 55.9061C65.8525 57.0351 58.2855 59.972 62.2385 63.925C64.9495 66.523 79.7445 60.1981 73.3065 56.0191C72.6285 55.7931 72.0645 55.115 72.1775 54.438C72.1775 54.325 72.1775 54.3251 72.1775 54.2121C72.2905 53.5341 72.9685 52.97 73.7585 52.97C74.3235 53.196 74.3235 53.083 74.7745 53.309C86.2945 59.634 64.1585 73.7511 59.1885 64.8291C55.0095 57.3751 65.4005 53.8741 70.4825 52.5181C71.2735 52.4051 72.0635 52.9701 72.1765 53.8731C72.1765 53.9861 72.1765 54.0991 72.1765 54.2121C72.0635 54.8901 71.4985 55.4541 70.8215 55.5671C70.5955 55.5671 70.0305 55.7931 69.4665 55.9061H69.5795ZM70.2575 58.616C70.7095 58.729 70.5965 58.6161 71.0485 58.8421C71.3875 58.9551 71.5005 59.407 71.2745 59.746C71.1615 59.972 70.8225 60.0851 70.4835 59.9721C70.3705 59.9721 70.1445 59.9721 69.9185 59.8591C69.5795 59.8591 69.3535 59.52 69.4665 59.181C69.5795 58.729 69.9185 58.503 70.2575 58.616ZM40.4415 59.8591L41.1195 59.633C41.4585 59.52 41.7975 59.746 41.9105 60.085C42.0235 60.424 41.7975 60.8761 41.4585 60.8761L40.7805 61.102C40.4415 61.215 40.1025 60.989 39.9895 60.65C39.8765 60.31 40.1025 59.9721 40.4415 59.8591ZM40.1025 64.15C40.1025 64.15 40.2155 64.15 40.2155 64.263C40.5545 64.263 40.7805 64.6021 40.6675 64.9411C40.6675 65.2801 40.3285 65.5061 39.9895 65.5061C39.5375 65.3931 39.4245 65.2801 39.0855 64.9411C38.8595 64.7151 38.8595 64.2631 39.1985 64.0371C39.4245 63.8121 39.8765 63.812 40.1025 64.15ZM42.0225 62.2301C42.1355 62.2301 42.1355 62.1171 42.3615 62.2301C42.7005 62.2301 42.9265 62.569 42.9265 62.908C42.9265 63.247 42.7005 63.473 42.3615 63.473C42.0225 63.586 41.5705 63.36 41.5705 63.021C41.4575 62.682 41.5705 62.3431 42.0225 62.2301ZM45.2975 59.068C45.7495 58.955 45.8625 58.955 46.2015 59.068C46.5405 59.181 46.6535 59.6331 46.5405 59.9721C46.4275 60.1981 46.0885 60.4241 45.8625 60.3111C45.7495 60.3111 45.7495 60.3111 45.6365 60.3111C45.2975 60.4241 44.9585 60.1981 44.8455 59.8591C44.7325 59.5201 44.9585 59.181 45.2975 59.068ZM46.6525 62.2301C46.9915 62.1171 47.3305 62.3431 47.4435 62.6821C47.5565 63.0211 47.3305 63.36 46.9915 63.473C46.4265 63.586 46.0875 63.473 45.7495 63.134C45.4105 62.908 45.4105 62.4561 45.7495 62.2301C45.9755 62.0041 46.3145 62.0041 46.6525 62.2301ZM16.7235 70.701C15.1425 71.492 14.3515 72.734 15.5945 74.654C15.5945 74.654 15.5945 74.5411 15.5945 74.4281C15.7075 74.0891 16.0465 73.8631 16.3855 73.9761C17.0635 74.0891 16.8375 74.089 17.2895 74.202C17.6285 74.202 17.9675 74.428 17.9675 74.767C17.9675 75.106 17.7415 75.4451 17.4025 75.5581C16.4985 75.3321 16.8375 75.445 16.1605 75.219H16.0475C16.1605 75.332 16.2735 75.4451 16.2735 75.4451C18.1935 77.4781 21.6945 76.01 23.6145 73.977C23.2755 73.864 22.9365 73.864 22.3725 73.638C22.0335 73.525 21.9205 73.1861 22.0335 72.8471C22.1465 72.5081 22.5985 72.282 22.9375 72.395C23.6155 72.621 23.6155 72.734 24.4055 72.508C24.5185 72.508 24.5185 72.508 24.6315 72.508C25.0835 71.604 25.1965 70.7011 24.6315 70.0231C24.5185 69.9101 24.1795 69.91 23.8405 69.91C23.8405 70.249 23.7275 70.4751 23.3885 70.5881H23.2755C23.0495 70.8141 22.5975 70.8141 22.3715 70.5881C22.1455 70.3621 22.1455 70.023 22.2585 69.797C22.0325 69.684 21.8065 69.571 21.5805 69.345C20.7895 69.345 19.9995 69.571 19.2085 69.797C19.2085 70.023 18.9825 70.3621 18.6435 70.4751C18.5305 70.5881 18.1915 70.814 17.9655 70.927C17.8525 71.266 17.6265 71.4921 17.2875 71.4921C16.9495 71.3791 16.7235 71.153 16.7235 70.701ZM18.9825 72.2821C19.3215 72.1691 19.2085 72.1691 19.4345 72.1691C19.8865 72.0561 20.2255 72.282 20.3385 72.621C20.3385 72.96 20.2255 73.2991 19.8865 73.4121C19.4345 73.5251 19.6605 73.412 19.3215 73.525C18.9825 73.638 18.5305 73.412 18.5305 73.073C18.4175 72.734 18.5305 72.3951 18.9825 72.2821ZM25.7585 54.4371L25.8715 54.55C25.9845 54.55 25.9845 54.55 26.0975 54.663C26.4365 54.889 26.5495 55.2281 26.3235 55.5671C26.2105 55.9061 25.7585 55.906 25.5325 55.793C25.1935 55.793 25.0805 55.5671 24.9675 55.4541C24.6285 55.2281 24.6285 54.776 24.8545 54.55C25.0815 54.212 25.4195 54.2121 25.7585 54.4371ZM25.6455 51.0491C25.8715 50.9361 25.9845 50.9361 26.0975 50.9361C26.4365 50.8231 26.7755 51.049 26.8885 51.388C27.0015 51.727 26.7755 52.0661 26.4365 52.1791C26.3235 52.2921 26.2105 52.292 25.9845 52.292C25.6455 52.405 25.3065 52.179 25.1935 51.84C25.0815 51.501 25.3065 51.1621 25.6455 51.0491ZM27.6785 52.6301C27.9045 52.7431 27.7915 52.7431 28.0175 52.6301C28.4695 52.6301 28.8085 52.743 28.9215 53.082C28.9215 53.421 28.8085 53.873 28.4695 53.986C27.7915 53.986 28.1305 53.986 27.5655 53.986C27.2265 53.986 26.8875 53.6471 26.8875 53.3081C27.0015 52.9691 27.2265 52.6301 27.6785 52.6301ZM30.7285 50.146C31.4065 50.033 31.5195 50.0331 32.0835 50.3721C32.4225 50.3721 32.6485 50.5981 32.6485 50.9371C32.6485 51.2761 32.4225 51.615 32.0835 51.615C31.4055 51.615 31.4055 51.2761 31.0675 51.3891C30.7285 51.5021 30.3895 51.2761 30.2765 50.9371C30.1635 50.5981 30.3895 50.259 30.7285 50.146ZM32.0835 52.6301C32.3095 52.6301 32.1965 52.6301 32.4225 52.7431C32.7615 52.7431 33.1005 52.969 33.1005 53.421C32.9875 53.76 32.7615 53.986 32.3095 53.986C31.7445 53.873 32.0835 53.9861 31.5185 53.7601C31.1795 53.6471 31.0665 53.1951 31.2925 52.8561C31.4055 52.5171 31.8575 52.4041 32.0835 52.6301ZM47.7825 41.788C48.0085 41.788 48.3475 42.014 48.3475 42.24C48.4605 42.579 48.2345 43.0311 47.8955 43.1441C47.3305 43.1441 47.5565 43.144 47.1045 43.257C46.7655 43.37 46.4265 43.144 46.3135 42.805C45.4095 43.709 44.8455 44.8381 45.0715 46.0801C45.1845 45.7411 45.6365 45.628 45.8625 45.854C46.5405 46.08 46.2015 45.967 46.8785 46.193C46.9915 46.193 46.9915 46.193 47.1045 46.306C47.3305 46.419 47.3305 46.7581 47.2175 46.9841C47.1045 47.3231 46.7655 47.5491 46.4265 47.4361L46.2005 47.323C45.7485 47.097 45.9745 47.2101 45.2965 46.9841C45.2965 46.9841 45.2965 46.984 45.1835 46.871C45.2965 47.21 45.5225 47.549 45.6355 47.887H45.7485C47.3295 48.678 49.7015 48.7911 52.6375 47.6611C55.9125 46.3061 55.7995 42.4661 52.9765 41.5621C53.0895 41.7881 52.9765 42.014 52.8635 42.24C52.2985 42.466 52.5245 42.3531 52.1855 42.5791C51.8465 42.8051 51.3945 42.579 51.2815 42.353C51.1685 42.127 51.1685 41.901 51.2815 41.788C51.2815 41.562 51.3945 41.5621 51.5075 41.4491C51.8465 41.3361 51.7335 41.336 51.8465 41.336C51.9595 41.223 51.9595 41.223 51.9595 41.223C51.8465 41.223 51.8465 41.2231 51.7335 41.1101C50.2665 40.9971 48.9115 41.223 47.7825 41.788ZM43.7165 45.9671C43.4905 43.5951 45.1845 41.3361 47.8955 40.3201C43.8295 40.9971 42.5865 43.8211 43.7165 45.9671ZM48.4595 44.16C48.7985 44.16 48.7985 44.047 49.0245 44.16H49.2505C49.5895 44.16 49.8155 44.4991 49.8155 44.8381C49.8155 45.2901 49.4765 45.516 49.1375 45.516C48.9115 45.403 49.0245 45.4031 48.7985 45.4031C48.5725 45.5161 48.2335 45.403 48.1205 45.177C48.1205 45.064 48.1205 45.064 48.1205 44.951C48.0085 44.612 48.1215 44.273 48.4595 44.16ZM52.1865 44.2731L52.5255 44.16C52.8645 44.047 53.3165 44.273 53.4295 44.612C53.4295 44.951 53.3165 45.2901 52.9775 45.4031L52.5255 45.516C52.1865 45.629 51.8475 45.403 51.7345 45.064C51.6225 44.724 51.8485 44.3861 52.1865 44.2731ZM65.2885 40.546C65.5145 40.546 65.5145 40.546 65.5145 40.546H65.6275C65.9665 40.433 66.3055 40.6591 66.4185 40.9981C66.5315 41.3371 66.3055 41.676 65.9665 41.789C65.7405 41.902 65.6275 41.9021 65.4015 41.9021C65.0625 41.9021 64.7235 41.563 64.7235 41.224C64.7235 40.884 64.9495 40.546 65.2885 40.546ZM66.5305 36.706C66.6435 36.819 66.7565 36.8191 66.7565 36.9321C66.9825 37.2711 66.8695 37.61 66.5305 37.836L66.3045 37.9491C65.9655 38.1751 65.5135 38.062 65.4005 37.723C65.2875 37.61 65.2875 37.384 65.2875 37.271C63.2545 38.175 61.8995 39.643 62.8025 41.563C64.2705 44.499 72.0635 42.805 74.7745 39.982C75.1135 38.062 74.2095 36.1421 73.0805 35.3511C71.8385 35.4631 69.0155 35.802 66.5305 36.706ZM67.6595 39.077L67.9985 38.964C68.3375 38.851 68.7895 39.0771 68.7895 39.4161C68.9025 39.7551 68.6765 40.094 68.3375 40.207L67.9985 40.3201C67.6595 40.4331 67.3205 40.2071 67.2075 39.8681C67.0945 39.5291 67.3215 39.19 67.6595 39.077ZM70.3705 35.802L70.8225 35.689C71.1615 35.576 71.5005 35.802 71.6135 36.141C71.7265 36.48 71.5005 36.8191 71.1615 36.9321L70.8225 37.0451C70.4835 37.1581 70.0315 36.9321 69.9185 36.5931C69.9185 36.2541 70.0315 35.915 70.3705 35.802ZM74.4365 34.8991C74.7755 35.2381 75.0015 35.5771 75.2275 35.9151C75.3405 35.8021 75.3405 35.689 75.4535 35.689C75.9055 35.237 76.6955 35.1241 77.2605 35.4631C84.3755 40.5451 64.6115 52.0651 60.0935 42.8041C56.7055 35.8021 67.8865 32.526 73.5335 32.301C74.3245 32.301 75.0015 32.979 75.0015 33.882C75.0015 34.221 74.7755 34.5601 74.6625 34.7861C74.5495 34.7861 74.5495 34.8991 74.4365 34.8991ZM71.0485 38.7391C71.3875 38.6261 71.5005 38.6261 71.8395 38.6261C72.1785 38.5131 72.5175 38.739 72.6305 39.078C72.7435 39.417 72.5175 39.756 72.1785 39.869C71.8395 39.982 71.7265 39.982 71.3875 39.982C71.0485 40.095 70.7095 39.869 70.5965 39.53C70.4835 39.191 70.7095 38.8521 71.0485 38.7391ZM105.496 30.9461C105.722 31.7371 105.835 32.5271 105.835 33.2051C106.286 32.5271 106.286 31.7361 105.496 30.9461ZM90.9255 36.9321C90.2475 36.1411 89.6835 35.1251 89.5705 34.2211C89.2315 34.8991 89.3445 35.5761 90.2485 36.4801C90.4735 36.5931 90.6995 36.8191 90.9255 36.9321ZM94.6525 31.397C95.1045 31.171 95.1045 31.1711 95.5565 31.0581C95.8955 30.9451 96.2345 31.1711 96.3475 31.5101C96.4605 31.8491 96.2345 32.188 95.8955 32.301C95.5565 32.414 95.6695 32.4141 95.3305 32.5271C95.1045 32.7531 94.6525 32.64 94.4265 32.301C94.3135 32.075 94.3135 31.623 94.6525 31.397ZM99.8485 30.3811H100.075C100.414 30.3811 100.753 30.72 100.753 31.059C100.753 31.398 100.527 31.737 100.188 31.737C100.075 31.737 99.8485 31.737 99.8485 31.737C99.5095 31.737 99.1705 31.511 99.1705 31.059C99.1705 30.72 99.3965 30.4941 99.8485 30.3811ZM94.4265 34.7861C94.5395 34.8991 94.7655 35.012 94.9915 35.125C95.2175 35.125 95.5565 35.351 95.5565 35.69C95.5565 36.029 95.3305 36.3681 94.9915 36.4811C94.2005 36.3681 93.8625 36.029 93.2975 35.465C93.1845 35.239 93.1845 34.7871 93.5235 34.5611C93.7495 34.4471 94.2015 34.4471 94.4265 34.7861ZM100.413 33.2041C101.091 33.2041 101.091 33.2041 101.881 33.3171H101.768C102.107 33.2041 102.446 33.3171 102.559 33.6561C102.672 33.9951 102.559 34.447 102.22 34.56C101.542 34.56 101.316 34.447 100.639 34.56C100.3 34.56 99.9605 34.334 99.8475 33.995C99.8485 33.656 100.074 33.3171 100.413 33.2041ZM96.9115 32.979C97.3635 32.979 97.1375 32.979 97.4765 32.979C97.9285 32.979 98.1545 33.2051 98.2675 33.5441C98.2675 33.9961 98.0415 34.222 97.5895 34.335C97.1375 34.335 97.3635 34.335 96.9115 34.335C96.5725 34.335 96.2335 33.9961 96.2335 33.6571C96.2335 33.3171 96.4595 32.979 96.9115 32.979ZM101.204 17.732C101.43 17.393 101.769 17.1671 102.108 17.0541C102.56 17.0541 102.899 16.9411 103.35 16.9411C115.209 18.4091 126.729 25.412 132.376 36.254C139.491 50.146 138.136 60.988 129.891 73.75C118.371 91.708 108.206 98.823 88.2155 104.809C71.0485 110.004 68.3375 108.649 52.4135 110.23C37.8445 111.698 23.2745 108.875 11.4155 99.952C-0.443487 91.03 -3.49248 69.006 4.30052 56.921C13.9005 41.9 28.1315 30.3801 44.7335 24.2811C60.6585 18.4081 83.5855 12.422 100.301 15.697C101.092 15.923 101.543 16.713 101.317 17.504C101.204 17.619 101.204 17.619 101.204 17.732ZM25.1945 50.9361C24.6295 51.7271 23.9525 52.178 23.3875 52.517C21.5805 55.341 25.5335 58.6161 32.9875 54.8891C34.3425 54.2111 36.7145 49.92 31.2935 49.694H31.0675C30.7285 49.694 30.5025 49.5811 30.2765 49.4681C30.0505 49.6941 29.7115 49.6941 29.3725 49.8071C27.5655 49.9201 26.2105 50.3721 25.1945 50.9361ZM53.2035 38.513C60.4315 40.546 59.5285 49.2421 52.0745 50.9371C36.1495 54.4381 35.9235 35.1251 52.1875 37.4971C52.6385 37.6091 53.0905 37.948 53.2035 38.513ZM94.0885 46.193C101.43 44.951 104.593 53.76 94.2015 58.052C80.0835 63.812 74.0975 47.097 92.7335 45.516C93.2975 45.402 93.8625 45.741 94.0885 46.193ZM43.7165 75.783C40.2155 77.138 32.8745 78.945 38.5215 83.237C42.8135 86.512 53.7685 82.8981 49.5895 77.3641C48.0085 75.4441 48.0085 76.1221 45.1845 75.5571C44.8455 75.5571 44.5065 75.444 44.1685 75.331C44.0555 75.557 43.9425 75.67 43.7165 75.783ZM45.2975 58.164C30.2765 58.616 38.6335 70.7 47.1045 65.279C50.6055 63.02 48.1205 58.503 47.3305 58.503C46.8785 58.503 46.4265 58.277 46.0885 58.051C45.8625 58.164 45.5235 58.164 45.2975 58.164ZM46.4265 55.68C46.6525 55.567 46.8785 55.4541 46.9915 55.4541C52.0735 55.4541 54.2195 64.2631 48.7985 67.7651C35.8105 76.1231 24.7425 55.68 45.5235 55.229C45.8625 55.228 46.2015 55.341 46.4265 55.68ZM56.1395 68.4421C56.4785 68.8941 56.9305 69.2331 57.3815 69.4581C58.1725 69.4581 58.7365 70.136 58.7365 70.926C58.8495 71.717 58.1715 72.3941 57.2685 72.3941C55.4615 72.1681 53.9935 71.152 53.2025 69.345C52.9765 68.554 53.4285 67.764 54.2185 67.538C55.0085 67.312 55.8015 67.7641 56.1395 68.4421ZM78.7285 66.6351C77.7125 68.1031 77.1475 68.216 75.4535 68.668C74.6625 68.894 73.8725 68.4421 73.6465 67.6521C73.3075 66.8611 73.8725 65.958 74.6625 65.732C75.3405 65.506 75.7915 65.6191 76.2435 65.0541C76.5825 64.2631 77.5985 64.0381 78.2765 64.4891C78.9545 64.9401 79.1795 65.8441 78.7285 66.6351ZM21.8055 81.091C23.9515 80.526 24.9675 80.5261 26.4365 78.9451C27.0015 78.3801 27.9045 78.267 28.5825 78.832C29.1475 79.284 29.2605 80.3 28.6955 80.865C26.6625 83.124 25.6465 83.2371 22.7095 84.0271C21.9185 84.2531 21.0155 83.8011 20.7895 83.0111C20.5635 82.2211 21.0155 81.317 21.8055 81.091ZM32.5355 85.948C32.6485 86.287 32.7615 86.626 33.1005 86.964C33.7785 87.077 34.3425 87.642 34.4555 88.319C34.4555 89.223 33.7775 89.9 32.9875 89.9C31.0675 89.787 30.2765 88.4321 29.5995 86.7381C29.3735 85.9471 29.8255 85.157 30.6155 84.931C31.4055 84.706 32.3095 85.157 32.5355 85.948ZM24.2905 60.762C25.6455 61.778 27.1145 61.666 28.6955 61.44C29.4865 61.214 30.3895 61.666 30.6155 62.456C30.8415 63.247 30.3895 64.037 29.5995 64.263C26.5505 64.828 24.7435 64.828 22.2585 63.021C21.6935 62.456 21.5805 61.553 22.1455 60.875C22.7095 60.31 23.7255 60.197 24.2905 60.762ZM41.3445 50.3721C41.6835 50.5981 43.0385 51.7271 43.6035 51.6141C44.3945 51.3881 45.1845 51.7271 45.5235 52.5181C45.8625 53.3091 45.4105 54.212 44.6195 54.438C42.5865 55.003 41.3445 54.099 39.6505 52.857C38.9725 52.405 38.7465 51.5021 39.1985 50.8241C39.6505 50.1461 40.6665 49.9201 41.3445 50.3721ZM61.6745 47.6611C62.1265 47.8871 62.6905 48 63.0295 48.339C63.1425 48.339 63.1425 48.3391 63.5945 48.2261C64.3855 48.0001 65.1755 48.4521 65.4015 49.2421C65.6275 50.0331 65.1755 50.9361 64.3855 51.1621C61.5615 51.8401 62.3525 51.1621 60.8845 50.5971C59.9805 50.2581 59.5295 49.468 59.8685 48.677C60.0925 47.887 60.8835 47.4351 61.6745 47.6611ZM78.0505 28.5741C80.1965 28.3481 80.9865 29.8161 81.7775 31.6231C82.0035 32.4141 81.5515 33.317 80.6485 33.543C79.8575 33.769 79.0675 33.204 78.8415 32.414C78.6155 31.962 78.6155 31.9621 78.3895 31.6231C77.7115 31.5101 77.0345 31.0581 76.9215 30.3811C76.6955 29.5901 77.2595 28.8001 78.0505 28.5741Z" fill="currentColor"/>

<path fill-rule="evenodd" clip-rule="evenodd" d="M65.4014 1.694C65.0624 5.986 65.2884 3.953 64.9494 7.793C64.9494 8.697 64.2714 9.487 63.2554 9.487C62.3514 9.487 61.5614 8.696 61.5614 7.793C61.9004 3.727 61.7874 5.76 62.0134 1.694C62.0134 0.79 62.6914 0 63.7074 0C64.6104 0 65.4014 0.79 65.4014 1.694ZM17.1754 15.134C20.1114 18.748 18.9824 17.054 20.7894 20.103C21.6934 20.442 22.0314 21.458 21.6934 22.249C21.3544 23.153 20.3384 23.491 19.4344 23.153C16.1594 19.313 17.7404 21.233 14.8034 17.506C14.1254 16.941 14.1254 15.812 14.8034 15.134C15.4814 14.456 16.6104 14.456 17.1754 15.134ZM46.6524 7.793C46.7654 9.713 47.2174 10.842 47.4434 12.762C47.3304 13.666 46.5394 14.343 45.6364 14.343C44.6204 14.23 43.9424 13.439 44.0554 12.536C43.7164 10.616 43.3774 9.93799 43.2644 7.67999C43.2644 6.77599 44.0554 6.099 44.9584 6.099C45.8614 6.099 46.6524 6.889 46.6524 7.793Z" fill="currentColor"/>
</svg>
